<?xml version="1.0" encoding="UTF-8" standalone="no"?>
<!DOCTYPE svg PUBLIC "-//W3C//DTD SVG 1.1//EN" "http://www.w3.org/Graphics/SVG/1.1/DTD/svg11.dtd">
<svg width="100%" height="100%" viewBox="0 0 416 68" version="1.1" xmlns="http://www.w3.org/2000/svg" xmlns:xlink="http://www.w3.org/1999/xlink" xml:space="preserve" xmlns:serif="http://www.serif.com/" style="fill-rule:evenodd;clip-rule:evenodd;stroke-linejoin:round;stroke-miterlimit:2;">
    <g transform="matrix(2.11931,0,0,2.11931,207.692,33.9089)">
        <g transform="matrix(1,0,0,1,-98,-16)">
            <path d="M194.384,0.615L185.192,15.883L195.084,31.385L185.751,31.385L179.027,20.341L172.304,31.385L162.97,31.385L172.862,15.883L163.671,0.615L172.243,0.615L179.027,11.493L185.812,0.615L194.384,0.615ZM81.294,31.385L79.74,26.937L68.619,26.937L66.933,31.385L58.148,31.385L70.985,0.615L77.435,0.615L90.16,31.385L81.284,31.385L81.294,31.385ZM74.276,12.03L74.144,11.991L70.854,20.704L77.566,20.704L74.276,12.03ZM93.298,31.386L93.298,0.615L104.125,0.615C107.548,0.575 110.097,1.035 111.783,1.775C115.246,3.317 117.409,6.849 117.409,11.005C117.409,15.161 114.119,21.737 104.948,21.737L101.139,21.737L101.139,31.385L93.299,31.385M104.634,14.839C107.924,14.839 109.57,13.756 109.57,11.142C109.57,8.527 107.965,7.522 104.329,7.522L101.13,7.522L101.13,14.839L104.634,14.839ZM121.067,31.385L121.067,0.615L129.253,0.615L129.253,24.478L138.728,24.478L138.728,31.385L121.067,31.385ZM142.344,31.385L142.344,0.615L160.138,0.615L160.138,7.522L150.185,7.522L150.185,12.302L159.833,12.302L159.833,19.2L150.185,19.2L150.185,24.478L160.138,24.478L160.138,31.385L142.344,31.385ZM17.157,0.03C7.976,0.03 0.531,7.181 0.531,16C0.531,24.82 7.976,31.97 17.157,31.97C26.338,31.97 33.783,24.82 33.783,16C33.783,7.18 26.338,0.03 17.157,0.03M17.157,24.382C12.343,24.382 8.433,20.625 8.433,16.001C8.433,11.377 12.343,7.621 17.157,7.621C21.971,7.621 25.881,11.377 25.881,16.001C25.881,20.625 21.981,24.381 17.157,24.381M55.009,31.385L55.009,24.478L45.534,24.478L45.534,0.615L37.348,0.615L37.348,31.385L55.009,31.385Z" style="fill:white;fill-rule:nonzero;"/>
        </g>
    </g>
</svg>
