<?xml version="1.0" encoding="utf-8"?>
<!-- Generator: Adobe Illustrator 24.0.0, SVG Export Plug-In . SVG Version: 6.00 Build 0)  -->
<svg version="1.1" id="Layer_1" xmlns="http://www.w3.org/2000/svg" xmlns:xlink="http://www.w3.org/1999/xlink" x="0px" y="0px"
	 viewBox="0 0 733.667 553.444" enable-background="new 0 0 733.667 553.444" xml:space="preserve">
<g>
	<path fill="#FFFFFF" d="M127.275-0.002c-70.18,0-127.27,57.1-127.27,127.28s57.09,127.28,127.27,127.28
		c48.53,0,90.81-27.31,112.28-67.37v59.87h15v-119.78C254.555,57.098,197.455-0.002,127.275-0.002z M127.275,239.558
		c-61.91,0-112.27-50.37-112.27-112.28c0-61.91,50.36-112.28,112.27-112.28s112.28,50.37,112.28,112.28
		C239.555,189.188,189.185,239.558,127.275,239.558z"/>
	<path fill="#FFFFFF" d="M366.833,56.998c-14.491,0-26.28-11.789-26.28-26.28s11.789-26.28,26.28-26.28
		c14.491,0,26.28,11.789,26.28,26.28S381.324,56.998,366.833,56.998z M366.833,19.438c-6.22,0-11.28,5.06-11.28,11.28
		s5.061,11.28,11.28,11.28s11.28-5.06,11.28-11.28S373.053,19.438,366.833,19.438z"/>
	<path fill="#FFFFFF" d="M606.385-0.002c-70.18,0-127.27,57.1-127.27,127.28s57.09,127.28,127.27,127.28
		c48.54,0,90.83-27.32,112.28-67.39v59.89h15v-119.78C733.665,57.098,676.565-0.002,606.385-0.002z M606.385,239.558
		c-61.91,0-112.27-50.37-112.27-112.28c0-61.91,50.36-112.28,112.27-112.28s112.28,50.37,112.28,112.28
		C718.665,189.188,668.295,239.558,606.385,239.558z"/>
	<path fill="#FFFFFF" d="M374.335,127.278v298.89c0,70.18-57.1,127.28-127.28,127.28v-15c61.91,0,112.28-50.37,112.28-112.28
		v-298.89H374.335z"/>
</g>
</svg>
