<?xml version="1.0" encoding="utf-8"?>
<!-- Generator: Adobe Illustrator 24.2.0, SVG Export Plug-In . SVG Version: 6.00 Build 0)  -->
<svg version="1.1" id="Layer_1" xmlns="http://www.w3.org/2000/svg" xmlns:xlink="http://www.w3.org/1999/xlink" x="0px" y="0px"
	 viewBox="0 0 320.4 407.3" style="enable-background:new 0 0 320.4 407.3;" xml:space="preserve">
<style type="text/css">
	.st0{fill:#5AC3F0;}
	.st1{fill:#00BBED;}
	.st2{fill:#EF4423;}
	.st3{fill:#ED705F;}
</style>
<polygon class="st0" points="247.6,25.4 320.4,98.3 247.6,171.1 233,156.5 291.2,98.3 233,40 "/>
<polygon class="st0" points="72.8,25.4 0,98.3 72.8,171.1 87.4,156.5 29.1,98.3 87.4,40 "/>
<rect x="111.2" y="59.2" transform="matrix(0.9713 -0.2378 0.2378 0.9713 -21.2387 41.3334)" class="st1" width="99" height="99"/>
<rect x="77.3" y="6" transform="matrix(0.7071 -0.7071 0.7071 0.7071 12.384 70.9496)" class="st1" width="29.1" height="29.1"/>
<rect x="213.5" y="6" transform="matrix(0.7071 -0.7071 0.7071 0.7071 52.2717 167.2549)" class="st1" width="29.1" height="29.1"/>
<g>
	<polygon class="st2" points="177.8,390.1 174,393.9 160.7,407.3 147.3,393.9 143.5,390.1 146.9,386.8 160.7,373 174.4,386.8 	"/>
</g>
<g>
	<polygon class="st2" points="161.4,317.9 179.4,299.9 161.4,188.9 143.3,299.9 	"/>
	<polygon class="st3" points="250.5,177.3 225.6,152.3 203.2,174.6 175.5,174.6 168,187.7 187.3,299.9 161.4,325.8 135.4,299.9 
		154.7,187.7 147.2,174.6 117.5,174.4 95.4,152.3 70.5,177.3 88.3,195.1 88.3,386.5 137.4,386.5 137.8,386 156.5,367.3 160.7,363.2 
		164.8,367.3 183.5,386 184,386.5 233,386.5 233,194.8 	"/>
</g>
</svg>
