<?xml version="1.0" encoding="utf-8"?>
<!-- Generator: Adobe Illustrator 24.2.0, SVG Export Plug-In . SVG Version: 6.00 Build 0)  -->
<svg version="1.1" id="Layer_1" xmlns="http://www.w3.org/2000/svg" xmlns:xlink="http://www.w3.org/1999/xlink" x="0px" y="0px"
	 viewBox="0 0 311.3 269.6" style="enable-background:new 0 0 311.3 269.6;" xml:space="preserve">
<style type="text/css">
	.st0{opacity:0.5;}
	.st1{fill:#E2E2E2;}
	.st2{fill:#C1C1C1;}
	.st3{opacity:0.5;fill:#F2C05A;}
	.st4{opacity:0.5;fill:#FFFFFF;}
	.st5{opacity:0.5;fill:#CCBE36;}
	.st6{opacity:0.5;fill:#9E9E9E;}
	.st7{opacity:0.5;fill:#384CA3;}
	.st8{opacity:0.5;fill:#EF6D3A;}
	.st9{opacity:0.5;fill:#EDE43A;}
</style>
<g id="Layer_3" class="st0">
	<g id="Layer_1_1_">
		<g>
			<polygon class="st1" points="82.9,261.1 10,134.8 82.9,8.5 228.8,8.5 301.7,134.8 228.8,261.1 			"/>
			<path class="st2" d="M224.2,16.5l68.3,118.3l-68.3,118.3H87.5L19.3,134.8L87.5,16.5H224.2 M233.4,0.5H78.3L0.8,134.8l77.5,134.3
				h155.1l77.5-134.3L233.4,0.5L233.4,0.5z"/>
		</g>
	</g>
</g>
<g id="Layer_2">
	
		<image style="display:none;overflow:visible;" width="570" height="498" xlink:href="../../../../../Desktop/Screen Shot 2020-06-28 at 1.38.25 PM.png"  transform="matrix(0.5857 0 0 0.5857 -2.0716 -8.1733)">
	</image>
	<path class="st3" d="M217.9,163.4c2,4.5,4.1,8.9,3.6,20.1c-0.2,5.2-6,8.5-12.1,10.4c-3.9,1.3-7.9,2-10.7,2.4
		c-2.1,0.3-3.5,0.4-3.5,0.4h0c-0.3-0.2-0.7-0.4-1.1-0.5c-0.6-0.3-1.2-0.6-1.8-0.9c-0.4-0.2-0.9-0.4-1.3-0.6h0
		c-0.7-0.3-1.4-0.6-2.1-0.9c-1.7-0.8-3.4-1.4-5.1-2.1c-0.8-0.3-1.6-0.6-2.3-0.8c-0.7-0.2-1.3-0.5-2-0.7c-0.4-0.1-0.9-0.3-1.3-0.4
		s-0.9-0.3-1.3-0.4c-0.4-0.1-0.9-0.2-1.3-0.4c-0.2-0.1-0.5-0.1-0.8-0.2c-0.4-0.1-0.9-0.2-1.3-0.3c-0.6-0.2-1.2-0.3-1.8-0.4
		c-0.1,0-0.2,0-0.3-0.1l-1-0.2c-1.7-0.4-3.5-0.7-5.2-0.9c-0.4-0.1-0.7-0.1-1-0.1c-0.5-0.1-1-0.1-1.4-0.2c0,0,0,0,0,0
		c-0.7-0.1-1.4-0.1-2.1-0.2c-0.7-0.1-1.4-0.1-2.2-0.2c-0.3,0-0.6,0-0.9,0c-0.6,0-1.2,0-1.8-0.1c-0.7,0-1.4,0-2,0h-0.7
		c-0.1-0.2-0.3-0.4-0.4-0.6c-0.3-0.4-0.6-0.9-1-1.3c0,0,0,0,0,0c-0.2-0.2-0.3-0.4-0.5-0.6c0,0,0,0,0,0c-0.1-0.1-0.2-0.3-0.4-0.4
		c-0.4-0.4-0.9-0.8-1.3-1.2c-0.3-0.3-0.6-0.5-1-0.8c-0.5-0.4-1.1-0.8-1.7-1.2c-0.2-0.1-0.4-0.2-0.6-0.3c-0.2-0.1-0.5-0.3-0.7-0.4
		c-0.2-0.1-0.3-0.2-0.5-0.3c-0.2-0.1-0.4-0.2-0.6-0.3c-0.3-0.2-0.6-0.3-0.9-0.4c-0.3-0.1-0.6-0.3-0.9-0.4s-0.6-0.3-1-0.4
		c-0.3-0.1-0.7-0.3-1-0.4c-0.4-0.1-0.7-0.3-1.1-0.4c-0.6-0.2-1.2-0.4-1.8-0.6c-0.2-0.1-0.5-0.1-0.7-0.2c-0.2,0-0.3-0.1-0.5-0.1
		c-0.5-0.1-1-0.2-1.4-0.4c-0.3-0.1-0.5-0.1-0.8-0.2c-0.3-0.1-0.6-0.1-0.9-0.2c-0.8-0.1-1.5-0.3-2.3-0.4c-0.9-0.1-1.8-0.2-2.7-0.4
		c-3-0.3-6.3-0.5-9.9-0.5c-2.4,0-4.6,0-6.8-0.2c-0.4,0-0.7,0-1.1,0c-0.8,0-1.6-0.1-2.4-0.1c-0.5,0-1-0.1-1.4-0.1
		c-0.5,0-1-0.1-1.5-0.1c-0.4,0-0.9-0.1-1.3-0.1c-0.3,0-0.6-0.1-0.9-0.1c-0.2,0-0.4,0-0.6-0.1c-0.7-0.1-1.4-0.2-2-0.2
		c-0.7-0.1-1.3-0.2-1.9-0.3c-0.5-0.1-1-0.2-1.5-0.2c-0.4-0.1-0.9-0.1-1.3-0.2c-0.3-0.1-0.7-0.1-1-0.2c-0.5-0.1-1-0.2-1.5-0.3
		c-0.4-0.1-0.7-0.2-1.1-0.2c-0.7-0.1-1.4-0.3-2-0.5c-1.6-0.4-3-0.8-4.4-1.2c-0.4-0.1-0.8-0.2-1.2-0.4c-0.4-0.1-0.8-0.2-1.1-0.4
		c0,0,0,0,0,0c-0.5-0.2-0.9-0.3-1.3-0.5c-0.9-0.3-1.7-0.6-2.4-0.9c-0.4-0.2-0.8-0.3-1.1-0.5c-0.2-0.1-0.4-0.2-0.6-0.3
		c-0.4-0.2-0.8-0.3-1.2-0.5c-0.2-0.1-0.4-0.2-0.6-0.3c-0.3-0.1-0.5-0.2-0.8-0.4c-0.2-0.1-0.4-0.2-0.6-0.3c-0.1,0-0.1-0.1-0.2-0.1
		c-0.2-0.1-0.4-0.2-0.6-0.3c-0.2-0.1-0.4-0.2-0.6-0.3c-0.2-0.1-0.4-0.2-0.6-0.4c-0.2-0.1-0.5-0.3-0.7-0.4c-0.2-0.1-0.4-0.3-0.6-0.4
		s-0.4-0.2-0.6-0.4c0,0,0,0,0,0c-0.2-0.2-0.4-0.3-0.6-0.4c-1.4-1-2.3-1.8-2.7-2.1c0,0,0-0.1-0.1-0.1c-0.1-0.1-0.2-0.2-0.2-0.2
		c0.4-2.5,0.8-5.3,1.2-8.4c0,0,6.7,11.9,32.7,11.9c0.5,0,1.1,0,1.7,0c0.6,0,1.1,0,1.7,0c0.6,0,1.2,0,1.8-0.1c0.5,0,1.1-0.1,1.6-0.1
		c0.1,0,0.1,0,0.2,0c1.7-0.1,3.5-0.3,5.3-0.5c-0.3-0.1-0.7-0.2-1-0.3c-0.6-0.2-1.3-0.5-2-0.8c-0.4-0.1-0.8-0.3-1.2-0.5
		c-0.2-0.1-0.4-0.1-0.6-0.2c-9.6-4.1-14.4-9.3-16.3-14.6c-3.5-9.3,2.1-18.7,6.4-21.6c6.6-4.6,18.9,1.4,21.9,7.5c1.5,3.1,4,5,6.2,6.2
		l2.2,1c0.2,0.1,0.4,0.2,0.6,0.2c0.7,0.2,1.2,0.4,1.2,0.4c0-0.2,0-0.3,0-0.5c0.1-1.2,0.3-2.4,0.4-3.6c0.7-5.4,1.6-10.3,2.6-14.8
		c0.2-0.9,0.4-1.7,0.6-2.6c0.3-1.3,0.7-2.6,1-3.9c0.3-1,0.6-2,0.9-3c0.4-1.2,0.8-2.4,1.1-3.6c0.2-0.8,0.5-1.5,0.8-2.3
		c0.8-2.2,1.6-4.3,2.4-6.2c0.4-1,0.8-1.9,1.2-2.8c0.6-1.2,1.2-2.4,1.7-3.5c0.2-0.4,0.5-0.9,0.7-1.3c1.2-2.2,2.4-4.2,3.5-5.8
		c0.2-0.4,0.5-0.7,0.7-1c0.1-0.2,0.2-0.3,0.3-0.5c0.3-0.4,0.5-0.7,0.8-1.1c1.8-2.4,3.1-3.9,3.8-4.5l0.1-0.1c0,0,0.1-0.1,0.1-0.1
		c0,0,0.1-0.1,0.1-0.1c0.1,0,0.1-0.1,0.1-0.1c-0.3,0.5-9.5,16.2-7.4,28.5c3.9-11.4,30.8-41.1,30.8-41.1s13.9,0.5,20.6,12.2
		c0,0,5.8,13.4,11.2,14.3c5.4,0.9,7.1,7,2.9,14.2c-2.6,4.5,1.6,11.9,5.4,17.8c0,0,0,0,0,0c2.2,3.4,4.3,6.3,4.9,7.7
		C221.6,132.1,215.9,158.9,217.9,163.4z"/>
	<path class="st4" d="M114.9,39.7c-1.5,0.8-2.9,1.7-4.4,2.8C110.7,42.3,111.7,40.9,114.9,39.7z"/>
	<path class="st5" d="M210.6,205.9c-0.6-0.2-18.8-5.2-48.4,2.9C132,217,117,253.1,117,253.1H87.3l-3.3-5.7c0,0,22.9-70.8,107-52.6h0
		c0.4,0.2,0.9,0.4,1.3,0.6c0.6,0.3,1.2,0.6,1.8,0.9c0.4,0.2,0.7,0.3,1.1,0.5h0c3.6,1.8,7.2,3.9,10.9,6.2
		C207.6,204,209.2,205,210.6,205.9z"/>
	<path class="st6" d="M216.9,79.3c-0.5-13.2-13.8-32.3-19.8-1.1c-6.7-11.8-20.6-12.2-20.6-12.2s-26.9,29.8-30.8,41.1
		c-2.1-12.3,7.1-28.1,7.4-28.5C152.5,79,134.8,95.3,130,140l0,0c0,0-7.1-1.7-10.1-7.8s-15.3-12.1-21.9-7.5
		c-4.2,2.9-9.8,12.3-6.4,21.6c2,5.2,6.8,10.5,16.3,14.6c1.7,0.7,3.3,1.3,4.8,1.8c-36.2,4.4-44.9-11.1-44.9-11.1v0
		c0.3-2.5,0.5-5.3,0.6-8.2c0.6-15.9-2-37-13.8-62.8c34.3-15,41.2-37.1,92-40.6c-17.8-3.2-27-1.9-31.7-0.1c22-12,52.4-2.3,59.9,6.6
		c-2-4.5-5.8-11.7-11.8-17.5c14.8,4.6,21.9,25.3,22.3,26.6c-0.3-1.4-6.1-31-18.4-39c15.3,6.2,23.3,41.4,23.3,41.4
		s2.5-22.8,24.1-22.1c-2.6,2.6-10.7,10.7-11.2,11.2C203.8,46.8,222.3,40.7,216.9,79.3z"/>
	<path class="st7" d="M152.9,186.2c-1.5,0-3,0.1-4.4,0.2c-8.6,0.5-17.3,2.3-26.2,5.4h0c-0.5,0.2-0.9,0.3-1.4,0.5
		c-0.8,0.3-1.7,0.6-2.5,1h0c-0.3,0.1-0.5,0.2-0.8,0.4c-0.3,0.1-0.7,0.3-1,0.5h0c-2.3,1.1-4.5,2.3-6.6,3.6
		C88.3,211.3,78,236.8,78,236.8v0c0,0,0,0.1,0,0.1l-4.3-7.5L51,190.1c0,0,0,0,0,0c0,0,0.1-0.1,0.1-0.1c1.5-1.1,3.2-2.6,4.9-4.6
		c2-2.3,4-5.3,5.8-9.1c0.2-0.5,0.5-1.1,0.7-1.6c0.7-1.6,1.4-3.4,1.9-5.4c0.5-1.5,0.9-3.1,1.3-4.8c0-0.1,0-0.1,0-0.2
		c0.1-0.3,0.1-0.5,0.2-0.8c0.2-0.8,0.3-1.7,0.5-2.5c0,0,0-0.1,0-0.1c0-0.1,0-0.2,0.1-0.3c0-0.1,0.1-0.5,0.1-0.6c0,0,0.1,0.1,0.2,0.2
		c0,0,0,0,0.1,0.1c0.4,0.4,1.3,1.1,2.7,2.1c0.2,0.1,0.4,0.3,0.6,0.4c0,0,0,0,0,0c0.2,0.1,0.4,0.2,0.6,0.4s0.4,0.3,0.6,0.4
		c0.2,0.1,0.4,0.3,0.7,0.4c0.2,0.1,0.4,0.2,0.6,0.4c0.2,0.1,0.4,0.2,0.6,0.3c0.2,0.1,0.4,0.2,0.6,0.3c0.1,0,0.1,0.1,0.2,0.1
		c0.2,0.1,0.4,0.2,0.6,0.3c0.2,0.1,0.5,0.2,0.8,0.4c0.2,0.1,0.4,0.2,0.6,0.3c0.4,0.2,0.8,0.3,1.2,0.5c0.2,0.1,0.4,0.2,0.6,0.3
		c0.4,0.2,0.7,0.3,1.1,0.5c0.8,0.3,1.6,0.6,2.4,0.9c0.4,0.2,0.8,0.3,1.3,0.5c0,0,0,0,0,0c0.4,0.1,0.7,0.2,1.1,0.4
		c0.4,0.1,0.8,0.2,1.2,0.4c1.4,0.4,2.8,0.8,4.4,1.2c0.7,0.2,1.3,0.3,2,0.5c0.4,0.1,0.7,0.2,1.1,0.2c0.5,0.1,1,0.2,1.5,0.3
		c0.4,0.1,0.7,0.1,1,0.2c0.4,0.1,0.9,0.1,1.3,0.2c0.5,0.1,1,0.2,1.5,0.2c0.6,0.1,1.3,0.2,1.9,0.3c0.7,0.1,1.3,0.2,2,0.2
		c0.2,0,0.4,0,0.6,0.1c0.3,0,0.6,0.1,0.9,0.1c0.4,0,0.8,0.1,1.3,0.1c0.5,0.1,1,0.1,1.5,0.1c0.5,0,1,0.1,1.4,0.1
		c0.8,0.1,1.6,0.1,2.4,0.1c0.4,0,0.7,0,1.1,0c2.2,0.1,4.5,0.2,6.8,0.2c3.6,0,6.9,0.2,9.9,0.5c0.9,0.1,1.9,0.2,2.7,0.4
		c0.8,0.1,1.6,0.3,2.3,0.4c0.3,0.1,0.6,0.1,0.9,0.2c0.3,0.1,0.5,0.1,0.8,0.2c0.5,0.1,1,0.2,1.4,0.4c0.2,0,0.3,0.1,0.5,0.1
		c0.2,0.1,0.5,0.1,0.7,0.2c0.6,0.2,1.2,0.4,1.8,0.6c0.4,0.1,0.7,0.2,1.1,0.4c0.3,0.1,0.7,0.3,1,0.4c0.3,0.1,0.7,0.3,1,0.4
		s0.6,0.3,0.9,0.4c0.3,0.2,0.6,0.3,0.9,0.4c0.2,0.1,0.4,0.2,0.6,0.3c0.2,0.1,0.3,0.2,0.5,0.3c0.2,0.1,0.5,0.3,0.7,0.4
		c0.2,0.1,0.4,0.2,0.6,0.3c0.6,0.4,1.2,0.8,1.7,1.2c0.3,0.3,0.7,0.5,1,0.8c0.5,0.4,0.9,0.8,1.3,1.2c0.1,0.1,0.3,0.3,0.4,0.4
		c0,0,0,0,0,0c0.2,0.2,0.3,0.4,0.5,0.6c0,0,0,0,0,0c0.4,0.4,0.7,0.9,1,1.3C152.7,185.7,152.8,186,152.9,186.2z"/>
	<path class="st4" d="M162.2,125.6c0,0,10.2-2.2,19.2-2.3C177.8,120.2,170.8,113.9,162.2,125.6z"/>
	<path class="st4" d="M169.6,164.4c0,0-2-8.2,2.2-9.9c4.2-1.8,26.1,1.7,31.6-2.9c5.5-4.7,9.1-5.3,9.1-5.3S204.4,163.5,169.6,164.4z"
		/>
	<g class="st0">
		<path d="M171.2,169.2c3.1,0.6,6.1,0.9,9.1,1.1c3,0.2,6.1,0.1,9-0.2l2.2-0.3l2.2-0.4c0.7-0.1,1.5-0.4,2.2-0.5
			c0.7-0.2,1.5-0.4,2.2-0.7l2.1-0.8l2.1-1l1-0.5l1-0.6c0.7-0.4,1.3-0.8,2-1.1c-0.6,0.5-1.1,1.1-1.7,1.6l-0.9,0.8l-1,0.7
			c-0.7,0.4-1.3,0.9-2,1.3l-2.1,1c-2.9,1.3-6,2.1-9.1,2.4c-3.1,0.3-6.3,0.2-9.4-0.3C177.1,171.4,174,170.6,171.2,169.2z"/>
	</g>
	<path class="st0" d="M169.2,129.5c0,0-1.7,10.9-6.9,13.5L169.2,129.5z"/>
	<path class="st0" d="M176.9,129.5c0,0,2.3,9.5,0,14.8V129.5z"/>
	<path class="st0" d="M171.9,96.2c0,0,8.4,10.4,7,16.5L171.9,96.2z"/>
	<path class="st0" d="M184,104.4c0,0,3,4.1,2.4,8.2L184,104.4z"/>
	<path class="st0" d="M166.9,103.6c0,0,4,5.6,4.3,7.1L166.9,103.6z"/>
	<g class="st0">
		<path d="M200,115.6c-0.1-1.1-0.1-2.1-0.1-3c-0.1-0.9,0.1-1.7-0.2-2.5l-0.1-0.3l-0.2-0.3c-0.1-0.2-0.2-0.4-0.4-0.5
			c-0.2-0.2-0.3-0.3-0.5-0.5l-0.6-0.4c-0.4-0.3-0.8-0.5-1.3-0.7l-1.4-0.5l0-0.2c0.5,0,1,0,1.6,0.1c0.5,0.1,1.1,0.2,1.6,0.4
			c1,0.3,2,1.1,2.7,2.1c0.6,1,1.1,2.3,0.8,3.4c-0.2,1.1-0.7,2.2-1.7,2.9L200,115.6z"/>
	</g>
	<g class="st0">
		<path d="M205.3,119.8c1.7,0.1,3.4,0.6,5,1.4c1.6,0.8,3,1.9,4.1,3.4c1.1,1.5,1.7,3.3,2,5.1c0.1,0.9,0.2,1.8,0.1,2.8
			c-0.1,1-0.4,2-1,2.9c-0.6,0.9-1.4,1.6-2.2,2.1c-0.8,0.5-1.7,1-2.6,1.2c-1.8,0.6-3.6,0.8-5.4,0.7c-1.8-0.1-3.5-0.3-5.2-0.7
			c-1.7-0.4-3.4-0.9-4.9-1.7l0.1-0.3c3.5-0.1,6.8,0,10-0.3c1.6-0.1,3.2-0.3,4.7-0.6c1.5-0.3,2.8-0.9,3.6-1.9
			c0.4-0.5,0.7-1.1,0.8-1.8c0.1-0.7,0.1-1.5,0.1-2.3c-0.1-1.6-0.5-3.1-1.3-4.5c-1.5-2.8-4.6-4.6-7.9-5.4L205.3,119.8z"/>
	</g>
	<path class="st8" d="M252.9,66.1L226,89.9h26.9l-15.4,6.2l2.9,1.3L228,99.9l24.9,2.8l2.7-3.8h6.6l4.3-2.8l5,2.6l-6.5,3.9l2.8,0.9
		l-5.8,4.9l-6.7-1.4l-0.7,4.1l-25.5-6.8l4.4,6.2l-3.4,3.2l11.6,11.8l-15.4-7.1l-3-1.4l1.8,6.6l-6.3-4.2l-0.9-0.6l-1.2,5.6
		c0,0,0,0,0,0c-3.8-5.8-8-13.2-5.4-17.8c4.2-7.2,2.5-13.2-2.9-14.2l0.2-0.4l3.8-5.9l4.5-7.1l0-0.1l2.8-4.4l1.8-2.8v11.9l8.8-9.1
		l5.6-5.8l4-4.2l1.6,4.3l8.6-7.6l0.5,0.8l-3.3,6.4l5.4-2.8L252.9,66.1z"/>
	<g class="st0">
		<path d="M151.1,108.6c1.6-1.2,3.3-2.1,5.3-2.7c0.5-0.1,1-0.3,1.7-0.3c0.6,0,1.4,0,2.2,0.7c0.4,0.3,0.7,0.9,0.8,1.3
			c0.1,0.5,0.1,0.9,0.1,1.2c0,0.3,0,0.2,0,0.2c0,0,0,0,0,0c0,0,0.1,0.1,0.1,0.2c0.3,0.4,1,1,1.7,1.4c0.7,0.5,1.5,0.9,2.3,1.4
			c1.6,0.9,3.3,1.7,5,2.3c3.5,1.3,7.2,2.3,10.9,2.9c3.7,0.7,7.5,0.9,11.3,0.5l0.1,0.3c-3.8,1-7.7,1-11.6,0.7
			c-3.9-0.3-7.7-1.1-11.5-2.1c-1.9-0.5-3.8-1.2-5.6-2c-0.9-0.4-1.8-0.9-2.7-1.5c-0.9-0.6-1.7-1.3-2.5-2.5c-0.2-0.3-0.3-0.7-0.4-1.1
			c-0.1-0.2-0.1-0.4-0.1-0.7c0-0.2,0.1-0.6,0.1-0.5c0-0.1,0-0.2,0.1-0.2c0,0,0,0.1,0.1,0.1c0.1,0-0.1-0.2-0.5-0.2
			c-0.3,0-0.8-0.1-1.2,0c-1.8,0.1-3.7,0.5-5.6,0.9L151.1,108.6z"/>
	</g>
	<path class="st9" d="M191,194.8c-84.1-18.1-107,52.6-107,52.6l-6-10.5c0,0,0-0.1,0-0.1v0c0,0,10.3-25.5,31.9-39.2
		c2.1-1.3,4.3-2.6,6.6-3.6h0c0.3-0.2,0.7-0.3,1-0.5c0.3-0.1,0.5-0.2,0.8-0.4h0c0.8-0.3,1.6-0.7,2.5-1c0.5-0.2,0.9-0.3,1.4-0.5h0
		c8.9-3.1,17.6-4.9,26.2-5.4c1.5-0.1,3-0.2,4.4-0.2h0.7c0.7,0,1.4,0,2,0c0.6,0,1.2,0,1.8,0.1c0.3,0,0.6,0,0.9,0
		c0.7,0,1.4,0.1,2.2,0.2c0.7,0.1,1.4,0.1,2.1,0.2c0,0,0,0,0,0c0.5,0,1,0.1,1.4,0.2c0.3,0,0.7,0.1,1,0.1c1.7,0.2,3.5,0.5,5.2,0.9
		l1,0.2c0.1,0,0.2,0,0.3,0.1c0.6,0.1,1.2,0.3,1.8,0.4c0.4,0.1,0.9,0.2,1.3,0.3c0.2,0.1,0.5,0.1,0.8,0.2c0.4,0.1,0.9,0.2,1.3,0.4
		c0.4,0.1,0.9,0.2,1.3,0.4s0.9,0.3,1.3,0.4c0.7,0.2,1.3,0.4,2,0.7c0.8,0.3,1.6,0.5,2.3,0.8c1.7,0.6,3.4,1.3,5.1,2.1
		C189.6,194.1,190.3,194.4,191,194.8z"/>
	<path class="st7" d="M244.5,217.7L244.5,217.7C244.5,217.7,244.5,217.7,244.5,217.7l-3,5.2l-8,14l-7.4,12.6l-2,3.6h-85
		c0.2-0.5,7.9-14.9,19.4-25.4c2.1-1.9,4.2-3.6,6.5-5.2c1.4-0.9,2.8-1.8,4.3-2.5c0.8-0.4,1.7-0.8,2.7-1.1c2.2-0.8,4.9-1.4,7.8-1.9
		c1.6-0.3,3.3-0.5,5.1-0.7h0c15.6-1.7,36.3-0.5,48.7,0.4c0,0,0,0,0,0h0C239.8,217.2,243.9,217.6,244.5,217.7
		C244.4,217.7,244.4,217.7,244.5,217.7C244.5,217.7,244.5,217.7,244.5,217.7z"/>
	<path class="st9" d="M233.8,216.7c-12.4-1-33.1-2.1-48.7-0.4h0c-1.8,0.2-3.5,0.4-5.1,0.7c-2.9,0.5-5.6,1.1-7.8,1.9
		c-1,0.4-1.9,0.7-2.7,1.1c-1.5,0.7-2.9,1.6-4.3,2.5c-2.3,1.5-4.5,3.3-6.5,5.2c-11.5,10.5-19.2,24.9-19.4,25.4c0,0,0,0,0,0H117
		c0,0,15-36.1,45.2-44.3c29.6-8.1,47.8-3.1,48.4-2.9c0,0,0,0,0,0h0C221,212.1,228.5,215.2,233.8,216.7z"/>
</g>
</svg>
