<?xml version="1.0" encoding="utf-8"?>
<!-- Generator: Adobe Illustrator 25.2.3, SVG Export Plug-In . SVG Version: 6.00 Build 0)  -->
<svg version="1.1" xmlns="http://www.w3.org/2000/svg" xmlns:xlink="http://www.w3.org/1999/xlink" x="0px" y="0px"
	 viewBox="0 0 709 613" style="enable-background:new 0 0 709 613;" xml:space="preserve">
<style type="text/css">
	.st0{fill:#FA921D;}
</style>
<g id="Layer_1">
	<g id="Layer_2_2_">
		<path class="st0" d="M311.5,283.5c-8.3,0.9-14.5,8.1-14.1,16.7c0.4,8.5,7.5,15.3,16.1,15.2l0.6,0c8.8-0.4,15.6-7.8,15.2-16.6
			c-0.3-4.3-2-8-4.6-10.5c9.6-19.2,24.2-33.1,46.3-45c15.1-8.1,30.6-11,46.3-9.1c12.8,1.6,22.8,7.2,29.1,16.6
			c9.2,13.8,10.2,28.9,2.6,44.1c-5.3,10.9-13.8,18.8-19.2,22.9c1.2,3.7,2.9,10,3.8,14.4c41.1-30.1,36.4-70.6,23.8-89.5
			c-9.5-14.1-28.6-22.8-49.7-22.6c-5.7,0-11.4,0.7-17.1,2.1C354.3,229.4,326.9,251.2,311.5,283.5L311.5,283.5z M261.7,319.1
			c21.9,25.1,53.8,38.8,90.2,38.6l4.6-0.1c2.6,5.1,8.1,8.5,14.1,8.5l0.6,0c8.8-0.4,15.6-7.8,15.2-16.6c-0.4-8.5-7.5-15.3-16.1-15.2
			l-0.6,0c-6.3,0.3-11.6,4.3-13.8,9.7l-5.1,0c-21.6,0.2-42.1-5.9-60.7-18c-14.3-9.2-24.6-21.5-30.5-36.2
			c-4.9-11.9-4.7-23.6,0.3-33.6c7.8-15.1,21.2-23.5,38.8-23.6c11.4-0.1,22.3,3.2,27.9,5.8c3.1-2.9,8.8-7.5,12.7-10.3
			c-12.3-5.6-24.9-8.7-36.8-8.5c-27.3,0.2-47.4,15.5-55,30.6C239.3,266.7,240.2,295.1,261.7,319.1L261.7,319.1z M405.9,277.9
			c-0.4-8.5-7.5-15.3-16.1-15.2l-0.6,0c-8.8,0.4-15.6,7.8-15.2,16.6c0.4,8.5,7.5,15.3,16.1,15.2l0.6,0c0.6,0,1.4,0,2-0.3
			c11.8,19.3,16.8,40.3,15.2,63c-1,17.1-6.6,31.9-16.4,44.2c-8.2,10.5-24,15.8-34.9,16.2c-30.2,0.8-43.3-36.6-44.2-51.7
			c-3.7-0.8-10-2.7-14.3-4.1c3.7,46,32.4,69.7,59.7,69.5c25.6-0.2,49.1-18.9,58.3-46.2c12.8-36.5,4-71.5-12.2-98.9
			C405.4,284.2,406.2,281,405.9,277.9L405.9,277.9z"/>
	</g>
</g>
<g id="Layer_2">
</g>
</svg>
