<?xml version="1.0" encoding="utf-8"?>
<!-- Generator: Adobe Illustrator 25.2.3, SVG Export Plug-In . SVG Version: 6.00 Build 0)  -->
<svg version="1.1" id="Layer_1" xmlns="http://www.w3.org/2000/svg" xmlns:xlink="http://www.w3.org/1999/xlink" x="0px" y="0px"
	 viewBox="0 0 709 613" style="enable-background:new 0 0 709 613;" xml:space="preserve">
<style type="text/css">
	.st0{fill:#D8D8D8;}
</style>
<g>
	<path class="st0" d="M215.4,87.4c0.2,0.7-0.1,1.3-0.8,1.5c-0.3,0.1-0.7,0.2-1.2,0.3c-0.5,0.1-0.8,0.1-1,0.2c-0.1,0-1.2,0.4-3.1,1.1
		c0.5,0.4,1.6,1.1,3.1,2.2c0.8,0.2,1.2,0.5,1.2,0.8c0.1,0.8-0.2,1.9-0.9,3.2c-0.7,1.3-1.4,2.2-2,2.7c-0.6,0.5-1.9-0.1-3.8-1.6
		c-1.1-1-2.3-2.1-3.4-3.1c-0.3,1.3-1,3.5-2,6.8c0,0.4-0.1,0.9-0.2,1.5c-0.5,0.4-1.6,0.3-3.2-0.2c-1.6-0.5-2.5-1.1-2.8-1.7
		c-0.2-0.6-0.1-1.6,0.3-3.1c0.3-0.9,0.6-1.7,0.9-2.6l-2.3,0.9c-0.2,0.1-0.4,0.2-0.6,0.4c-0.3,0.2-0.4,0.4-0.6,0.4
		c-0.2,0.1-0.4,0.1-0.6,0c-1.4-0.6-2.4-1.6-2.9-3.2c-0.2-0.4-0.3-0.8-0.3-1.2c-0.1-0.9,0.8-1.7,2.8-2.4c0.4-0.1,0.8-0.3,1.4-0.5
		c0.6-0.2,0.9-0.3,1-0.3c-0.2-0.1-1-0.6-2.6-1.3c-1.1-0.5-1.7-1.1-1.8-1.8c-0.2-0.9-0.1-1.9,0.3-3.1c0.4-1.3,0.9-2.1,1.7-2.4
		c1-0.4,2.5,0.1,4.4,1.5c1.3,1,2.5,2,3.7,3c0.2-1.7,0.3-3.3,0.5-5c0.4-2.3,1.1-3.7,2.1-4.1c0.2-0.1,0.4-0.1,0.6-0.1
		c0.4,0,1.2,0.2,2.3,0.8c1.2,0.7,2,1.3,2.2,2c0.1,0.2,0.1,0.4,0.1,0.6c-0.2,1.4-0.4,3-0.8,5.1c2.8-1.1,4.4-1.5,4.7-1.4
		C213.8,84.1,215,85.5,215.4,87.4z"/>
	<path class="st0" d="M242.6,84.5c0.2,0.8,0.1,1.5-0.2,2.1c-0.2,2.2-0.8,4.5-1.8,7.1c-1.2,2.7-2.4,4.3-3.5,4.8
		c-0.2,0.1-0.3,0.1-0.5,0.1c-1.5,0.1-3.1,0.1-5,0.1c-3.4-0.1-6.5-1.5-9.3-4.3c-2.5-2.5-4.5-5.8-6.1-9.8c-1.9-4.9-2.6-9.6-2.1-14
		c0.5-4.7,2.2-7.8,5.1-9c1.1-0.5,3.1-0.6,5.8-0.2c2.7,0.4,4.7,1.1,5.9,2c1.2,1,2.7,3.5,4.5,7.5c0.4,0.9,0.6,1.8,0.7,2.9
		c0.1,1.2-0.2,1.9-0.8,2c-1.1,0.2-2.5,0.4-4.3,0.5c-2.1,0.1-3.4,0-3.7-0.4c-0.1-0.1-0.2-0.2-0.2-0.4c-0.1-0.3-0.1-0.6,0-1.1
		c0.1-0.5,0.1-0.9,0-1.1c-0.3-1.3-0.7-2.4-1.1-3.5c-0.6-1.5-1.2-2.5-1.8-3c-1.3,2-1.8,4.7-1.6,8.1c0.2,2.9,0.9,6,2.2,9.2
		c1,2.5,2,4.7,3.2,6.5c1.2,1.8,2.2,2.8,3,3c0.4,0.1,1-0.9,1.8-2.7c0.8-1.9,1.3-3.3,1.3-4.3c0,0,0-0.6-0.1-1.6c0-0.6,0.1-1,0.3-1.3
		c0.4-0.4,1.9-0.4,4.4-0.2C241.2,83.7,242.5,84,242.6,84.5z"/>
	<path class="st0" d="M266.9,79.2c0.2,1.5-0.1,2.6-0.7,3.2c-0.2,0.2-0.5,0.3-0.9,0.4c-0.4,0.1-0.7,0.2-0.9,0.4l-5.5,5.3
		c-0.2,0.2-0.3,0.5-0.4,1c-0.1,0.5-0.2,0.8-0.4,1c-0.6,0.5-2,0.8-4.4,0.9c-2.4,0.1-3.9,0-4.6-0.5c-0.5-0.4-0.9-1.1-1.2-2.1
		c-0.1-0.5-0.2-0.9-0.3-1.1l-11.4-30c-0.2-0.3-0.4-0.5-0.6-0.6c-0.3-0.1-0.4-0.3-0.5-0.4c-0.2-0.6,0.2-1.2,1.1-1.8
		c0.6-0.4,2-0.7,4.3-0.9c2.6-0.2,4.1,0.1,4.5,1.1c0.1,0.2,0.1,0.7-0.1,1.3c-0.1,0.6-0.2,1-0.1,1.3l9.4,24.6l3.9-3.8
		c0.2-0.3,0.6-0.8,1.2-1.4c0.4-0.2,1.7,0,4.1,0.6C265.7,78.2,266.9,78.7,266.9,79.2z"/>
	<path class="st0" d="M266.2,46.1c0.1,0.2,0.1,0.5,0.1,0.9s0,0.7,0,0.8c0,0.7,0.2,1.7,0.5,3l10.4,27.4c0.1,0.4,0.3,0.6,0.6,0.9
		c0.3,0.2,0.5,0.4,0.5,0.6c0.7,1.9,0.8,3.1,0.1,3.5c-0.2,0.2-1.4,0.4-3.3,0.6c-2.1,0.2-3.3,0.3-3.7,0.1c-0.9-0.3-1.4-0.7-1.6-1.2
		c0-0.1,0-0.3,0-0.5c0.1-0.2,0-0.5-0.1-0.8l-12-31.4c-0.1-0.2-0.2-0.3-0.4-0.5c-0.2-0.2-0.3-0.3-0.4-0.5c-0.2-0.7,0.2-1.4,1.1-2.1
		c0.3-0.2,1-0.4,2.1-0.8c1.3-0.4,2.4-0.6,3.4-0.7C265.1,45.2,265.9,45.5,266.2,46.1z"/>
	<path class="st0" d="M295.2,35.1c0.1,0.3,0.2,0.7,0.2,1c0,0.6,0,1,0.1,1.4l11.2,29.4c0-0.1,0.2,0.4,0.9,1.6
		c0.7,1.3,0.9,2.3,0.5,2.9c-0.4,0.6-1.5,1.2-3.5,1.7c-1.1,0.3-2.4,0.5-4,0.6c-2,0.1-3.2-0.1-3.7-0.6c-0.1-0.4-0.4-1-0.9-1.9
		c-3.3-3.8-7.1-7.9-11.3-12.3l5,13.2c0.1,0.2,0.3,0.5,0.7,0.8c0.5,0.4,0.7,0.6,0.7,0.6c0.3,0.4,0.6,0.8,0.7,1.3
		c0.5,1.2,0.1,2-0.9,2.4c-1,0.4-2.6,0.7-4.8,0.8c-2,0.1-3.2,0-3.6-0.2c-0.5-0.3-0.8-0.9-0.7-1.8c0.1-0.9,0.1-1.4,0-1.6l-10.6-27.9
		c-0.1-0.2-0.2-0.4-0.4-0.8c-0.2-0.3-0.3-0.6-0.4-0.8c-0.1-1.1,0.2-2,1-2.7c0.1-0.1,0.4-0.3,0.9-0.5c1.2-0.4,2.4-0.7,3.7-0.9
		c1.7-0.2,3-0.2,3.9,0.3c1.2,0.6,3.3,2.9,6.4,6.9c3.8,5,6.5,8.3,8.1,9.9l-6.7-17.5c-0.1-0.2-0.3-0.5-0.6-0.9
		c-0.3-0.4-0.5-0.7-0.6-0.9c-0.1-0.2-0.1-0.4-0.1-0.5c0-0.6,0.4-1.1,1.3-1.8c0.7-0.5,1.4-0.9,2.1-1.1c0.7-0.2,1.6-0.3,2.6-0.4
		C294.1,34.4,295,34.6,295.2,35.1z"/>
	<path class="st0" d="M333.8,52.7c0.4,0.7,0.4,2.3,0.1,4.8c-0.3,2.6-0.9,4-1.7,4.2c-0.9,0.2-3.5-0.8-7.7-3.1c-4.7-2.6-7.5-4-8.4-4.3
		l3.1,8.2c0.1,0.2,0.3,0.5,0.6,0.8c0.3,0.4,0.6,0.7,0.7,0.9c0.6,1.1,0.6,2,0.1,2.6c-0.2,0.3-0.7,0.6-1.4,0.8
		c-1.3,0.5-2.7,0.7-4.1,0.7c-1.6,0-2.6-0.4-2.8-1.2l-12.4-32.6c-0.2-0.6-0.3-1.3-0.1-2.1c0.1-0.8,0.4-1.4,0.8-1.8
		c0.1-0.1,0.2-0.1,0.4-0.2c0.9-0.3,2.2-0.5,4.1-0.4c1.8,0,2.9,0.3,3.2,0.7c0.1,0.2,0.4,1.3,0.8,3.4c0.5,2.4,0.9,4.1,1.4,5.3
		c0.1,0.4,0.3,0.7,0.4,1l3.2-14.7c0.2-0.9,0.6-1.4,1.3-1.6c0.8-0.3,2-0.2,3.8,0.2c2,0.4,3.3,1.1,3.6,2.1c0.1,0.3-0.5,2.4-1.7,6.3
		c-1.6,4.9-2.6,9.2-3.2,12.8l12.9,6.9c0.3,0.2,0.8,0.2,1.6,0C333.2,52.2,333.6,52.3,333.8,52.7z"/>
	<path class="st0" d="M356.1,33.8c0.2,0.7-0.1,1.3-0.8,1.5c-0.3,0.1-0.7,0.2-1.2,0.3c-0.5,0.1-0.8,0.1-1,0.2c-0.1,0-1.2,0.4-3.1,1.1
		c0.5,0.4,1.6,1.1,3.1,2.2c0.8,0.2,1.2,0.5,1.2,0.8c0.1,0.8-0.2,1.9-0.9,3.2c-0.7,1.3-1.4,2.2-2,2.7c-0.6,0.5-1.9-0.1-3.8-1.6
		c-1.1-1-2.3-2.1-3.4-3.1c-0.3,1.3-1,3.5-2,6.8c0,0.4-0.1,0.9-0.2,1.5c-0.5,0.4-1.6,0.3-3.2-0.2c-1.6-0.5-2.5-1.1-2.8-1.7
		c-0.2-0.6-0.1-1.6,0.3-3.1c0.3-0.9,0.6-1.7,0.9-2.6l-2.3,0.9c-0.2,0.1-0.4,0.2-0.6,0.4c-0.3,0.2-0.4,0.4-0.6,0.4
		c-0.2,0.1-0.4,0.1-0.6,0c-1.4-0.6-2.4-1.6-2.9-3.2c-0.2-0.4-0.3-0.8-0.3-1.2c-0.1-0.9,0.8-1.7,2.8-2.4c0.4-0.1,0.8-0.3,1.4-0.5
		c0.6-0.2,0.9-0.3,1-0.3c-0.2-0.1-1-0.6-2.6-1.3c-1.1-0.5-1.7-1.1-1.8-1.8c-0.2-0.9-0.1-1.9,0.3-3.1c0.4-1.3,0.9-2.1,1.7-2.4
		c1-0.4,2.5,0.1,4.4,1.5c1.3,1,2.5,2,3.7,3c0.2-1.7,0.3-3.3,0.5-5c0.4-2.3,1.1-3.7,2.1-4.1c0.2-0.1,0.4-0.1,0.6-0.1
		c0.4,0,1.2,0.2,2.3,0.8c1.2,0.7,2,1.3,2.2,2c0.1,0.2,0.1,0.4,0.1,0.6c-0.2,1.4-0.4,3-0.8,5.1c2.8-1.1,4.4-1.5,4.7-1.4
		C354.4,30.6,355.6,32,356.1,33.8z"/>
</g>
</svg>
