<?xml version="1.0" encoding="utf-8"?>
<!-- Generator: Adobe Illustrator 25.2.3, SVG Export Plug-In . SVG Version: 6.00 Build 0)  -->
<svg version="1.1" id="Layer_1" xmlns="http://www.w3.org/2000/svg" xmlns:xlink="http://www.w3.org/1999/xlink" x="0px" y="0px"
	 viewBox="0 0 709 613" style="enable-background:new 0 0 709 613;" xml:space="preserve">
<style type="text/css">
	.st0{display:none;}
	.st1{display:inline;}
	.st2{fill:#F9D023;}
	.st3{fill:#FCB439;}
	.st4{opacity:0.5;fill:#FFFFFF;enable-background:new    ;}
	.st5{opacity:0.25;fill:#FFFFFF;enable-background:new    ;}
	.st6{fill:#FA921D;}
</style>
<g id="Layer_1_1_" class="st0">
	<g class="st1">
		<circle class="st2" cx="354.5" cy="306.5" r="224"/>
		<path class="st3" d="M223,170.7c75-72.6,194.6-70.7,267.3,4.3c14.1,14.5,25.2,30.7,33.7,47.8c13.7,27.7,20.1,57.9,19.4,88.1
			c-0.4,14-2.1,28-5.6,41.6c-3.9,15.6-9.8,31-17.8,45.4c-8.8,16.1-20.2,31.1-34,44.5c-72.6,70.3-187.2,70.7-260.3,2.6
			c-2.4-2.2-4.7-4.5-7-6.9c-9.3-9.6-17.3-19.9-24.2-30.7c-7.6-12-13.7-24.6-18.3-37.8c-10.1-28.9-13.2-59.8-8.9-89.7
			C173.1,239.6,191.6,201.1,223,170.7z"/>
		<circle class="st2" cx="354.5" cy="306.5" r="178"/>
		<path class="st4" d="M157.4,413.2l37.1-6c6.8,10.8,14.9,21.1,24.2,30.7c2.3,2.4,4.6,4.6,7,6.9l-41.9,6.6
			C173.6,439.5,164.7,426.6,157.4,413.2z"/>
		<path class="st4" d="M537.8,352.4l37-5.9c-2.7,15.2-7,30.2-13,44.6l-42,6.7C528,383.4,534,368.1,537.8,352.4z"/>
		<path class="st4" d="M131.5,285.5l35.9-5.7c-4.2,30-1.3,60.9,8.9,89.7l-35.1,5.6C131.9,346.1,128.7,315.5,131.5,285.5z"/>
		<path class="st4" d="M524,222.8l35.9-5.7c12.2,28.1,18.4,58.1,18.6,88.2l-35.2,5.5C544.2,280.7,537.7,250.5,524,222.8z"/>
		<path class="st5" d="M226.6,430.3l288-46c-8.4,17.3-19.8,33.6-34.2,48l-206.4,33C256.8,456.6,240.8,445,226.6,430.3z"/>
		<path class="st5" d="M177,320.7l350.5-56c7.2,30.2,6.5,61.8-2.2,91.5l-317.8,50.9C189.7,380.9,179.5,351.1,177,320.7z"/>
	</g>
</g>
<g id="Layer_2_1_">
	<g>
		<path class="st6" d="M228.6,309.7c0.4,16.7,21.8,31.9,54,40.9c-6.5,32.8-2.6,58.7,12,66.6c3.4,1.9,7.3,2.6,11.6,2.5l0,0.1
			c14.1-0.3,32.3-10.9,50.5-28.8c19.1,16.8,37.8,26.3,52,26l0-0.1c4.4-0.1,8.1-1.2,11.5-3.1c14.3-8.7,16.8-34.7,8.5-67
			c31.7-10.7,52.1-26.9,51.6-43.5c-0.4-16.7-21.8-31.9-54-40.9c6.5-32.8,2.6-58.7-12-66.6c-3.4-1.9-7.3-2.6-11.7-2.5
			c-14.1,0.3-32.3,10.9-50.5,28.8c-19.1-16.8-37.8-26.3-52-26c-4.4,0.1-8.1,1.2-11.5,3.1c-14.3,8.7-16.8,34.7-8.5,67
			C248.6,276.7,228.2,293,228.6,309.7z M306,408.4L306,408.4c-2.3,0-4.3-0.4-5.9-1.2c-7-3.8-10.5-18.9-8.6-38.7
			c0.5-4.9,1.2-9.9,2.2-15.1c10.1,2.2,21.2,3.8,32.7,4.8c7.2,9.3,14.6,17.7,22,25.1C332.1,399.1,316.7,408.1,306,408.4z M399.3,279
			c-2.6-4.1-5-8-7.7-11.8c7.3,0.9,14.4,2,21.1,3.5c-1.7,6.6-3.9,13.6-6.4,20.4C404.1,287.1,401.8,283,399.3,279z M414.6,339.2
			c-6.7,1.8-13.7,3.3-21,4.6c2.4-4,4.8-8.1,7.1-12.3c2.3-4.1,4.4-8.4,6.4-12.4C410,325.7,412.5,332.5,414.6,339.2z M400.6,305.1
			c-3,7-6.4,13.9-10.1,20.7c-3.8,7-7.8,13.6-11.9,19.9c-7.6,0.9-15.3,1.4-23.1,1.6c-7.7,0.2-15.5,0-23.1-0.4
			c-4.4-6-8.8-12.4-13-19.2c-4.1-6.6-7.8-13.3-11.2-20.2c3.1-6.9,6.4-13.9,10.1-20.7c3.8-7,7.8-13.6,11.9-19.9
			c7.6-0.9,15.3-1.4,23.1-1.6c7.7-0.2,15.5,0,23.1,0.4c4.4,6,8.8,12.4,13,19.2C393.6,291.6,397.2,298.3,400.6,305.1z M308.3,281.5
			c-2.3,4.1-4.3,8.4-6.3,12.5c-3-6.8-5.5-13.6-7.6-20.2c6.7-1.8,13.7-3.4,21-4.6C313,273.2,310.6,277.3,308.3,281.5z M309.7,333.9
			c2.5,4.1,5,8,7.7,11.8c-7.3-0.9-14.4-2-21.1-3.5c1.7-6.6,3.9-13.6,6.4-20.4C304.9,325.7,307.3,329.8,309.7,333.9z M341.8,358.9
			c4.6,0,9.4,0.1,14.1,0c4.9-0.1,9.5-0.4,14.2-0.7c-4.5,6.1-9.1,11.7-13.7,16.8C351.5,370.2,346.6,364.7,341.8,358.9z M414.3,404
			c-1.6,1-3.5,1.4-5.9,1.5l0,0.1c-10.6,0.2-26.6-7.8-43.7-22.8c6.9-7.7,13.9-16.5,20.6-26.2c11.5-1.5,22.5-3.7,32.5-6.4
			c1.3,5.1,2.3,10,3.1,14.8C423.7,384.5,421.1,399.9,414.3,404z M423.9,273.4c5.2,1.4,10,3.1,14.5,4.9c18.4,7.3,30.4,17.1,30.6,25.2
			c0.2,8.1-11.3,18.6-29.2,26.7c-4.3,2-9.1,3.9-14.1,5.6c-3.1-9.9-7.3-20.3-12.3-30.9C417.7,294.1,421.2,283.5,423.9,273.4z
			 M403.1,204.4c2.3,0,4.3,0.4,5.8,1.2c7,3.8,10.5,18.9,8.6,38.7c-0.5,4.9-1.2,9.9-2.2,15.1c-10.1-2.2-21.2-3.8-32.7-4.8
			c-7.2-9.3-14.6-17.7-22-25.1C376.9,213.7,392.4,204.8,403.1,204.4z M352.6,237.9c4.9,4.8,9.8,10.2,14.7,16.1
			c-4.6,0-9.4-0.1-14.1,0c-4.9,0.1-9.5,0.4-14.2,0.7C343.5,248.6,348.1,242.9,352.6,237.9z M294.7,208.8c1.6-1,3.5-1.4,5.9-1.5
			c10.6-0.2,26.6,7.8,43.7,22.8c-6.9,7.7-13.9,16.5-20.6,26.2c-11.5,1.5-22.5,3.7-32.5,6.4c-1.3-5.1-2.3-10.1-3.1-14.9
			C285.3,228.4,287.9,213.1,294.7,208.8z M269.3,282.7c4.3-2,9.1-3.9,14.1-5.6c3.1,9.9,7.3,20.3,12.3,30.9
			c-4.4,10.8-7.9,21.3-10.6,31.4c-5.2-1.4-10-3.1-14.6-4.9c-18.4-7.3-30.4-17.1-30.6-25.2C239.9,301.3,251.4,290.8,269.3,282.7z"/>
		<circle class="st6" cx="354.5" cy="306.5" r="23.5"/>
	</g>
</g>
<g id="Layer_1_2_">
</g>
</svg>
