<?xml version="1.0" encoding="utf-8"?>
<!-- Generator: Adobe Illustrator 25.2.3, SVG Export Plug-In . SVG Version: 6.00 Build 0)  -->
<svg version="1.1" id="Layer_1" xmlns="http://www.w3.org/2000/svg" xmlns:xlink="http://www.w3.org/1999/xlink" x="0px" y="0px"
	 viewBox="0 0 709 613" style="enable-background:new 0 0 709 613;" xml:space="preserve">
<style type="text/css">
	.st0{fill:#606060;}
	.st1{fill:#494949;}
	.st2{stroke:#BA2D2D;stroke-width:5;stroke-linejoin:round;stroke-miterlimit:10;}
	.st3{fill:#BA2D2D;stroke:#D14A4A;stroke-linejoin:round;stroke-miterlimit:10;}
	.st4{fill:#BA2D2D;stroke:#D14A4A;stroke-width:5;stroke-linejoin:round;stroke-miterlimit:10;}
	.st5{fill:none;stroke:#D14A4A;stroke-width:5;stroke-linecap:round;stroke-linejoin:round;stroke-miterlimit:10;}
</style>
<g>
	<g>
		<g>
			<path class="st0" d="M709.4,57.7v497.6c0,31.9-25.8,57.7-57.7,57.7H141.5v-10h510.2c26.3,0,47.7-21.4,47.7-47.7V57.7
				c0-26.3-21.4-47.7-47.7-47.7H141.5V0h510.2C683.6,0,709.4,25.8,709.4,57.7z"/>
			<path class="st1" d="M651.7,0H141.5v10h510.2c26.3,0,47.7,21.4,47.7,47.7v497.6c0,26.3-21.4,47.7-47.7,47.7H141.5v10h510.2
				c31.9,0,57.7-25.8,57.7-57.7V57.7C709.4,25.8,683.6,0,651.7,0z"/>
			<path class="st0" d="M699.4,57.7v497.6c0,26.3-21.4,47.7-47.7,47.7H141.5V10h510.2C678,10,699.4,31.4,699.4,57.7z"/>
		</g>
	</g>
	<g>
		<path class="st2" d="M267.1,509.4c-19.3,0-35.1-15.7-35.1-35.1V139.1c0-19.3,15.7-35.1,35.1-35.1h335.3
			c19.3,0,35.1,15.7,35.1,35.1v335.3c0,19.3-15.7,35.1-35.1,35.1H267.1V509.4z"/>
		<path class="st2" d="M602.4,110c16,0,29.1,13,29.1,29.1v335.3c0,16-13,29.1-29.1,29.1H267.1c-16,0-29.1-13-29.1-29.1V139.1
			c0-16,13-29.1,29.1-29.1L602.4,110 M602.4,98H267.1c-22.7,0-41.1,18.4-41.1,41.1v335.3c0,22.7,18.4,41.1,41.1,41.1h335.3
			c22.7,0,41.1-18.4,41.1-41.1V139.1C643.5,116.4,625.1,98,602.4,98L602.4,98z"/>
	</g>
	<g>
		<path class="st3" d="M297.8,416.7c0-2-0.6-3.6-1.7-4.7s-2.6-1.6-4.5-1.6c-1,0-2.3,0.2-3.8,0.6c-1.6,0.4-3.2,1.1-5,1.9
			s-3.6,1.9-5.4,3.2s-3.5,2.7-5.1,4.3c-0.9,1-1.8,2-2.5,3c-0.7,1.1-1.3,2.1-1.8,3c-0.5,1-0.8,1.8-1.1,2.6c-0.2,0.8-0.3,1.3-0.3,1.7
			c0,0.5,0.2,1,0.6,1.7c0.4,0.6,0.9,1.3,1.5,1.8c0.6,0.6,1.2,1.1,1.8,1.5c0.6,0.4,1.1,0.6,1.6,0.6c0.4,0,0.9-0.2,1.4-0.7
			s1.2-1,2.2-1.7s1.8-1.3,2.4-1.7c0.6-0.4,0.9-0.8,0.9-1.2c0-0.6-0.4-0.8-1.2-0.8c-0.6,0-1.6,0.3-3,0.8c0.8-1.6,1.8-3,3-4.4
			s2.6-2.7,4.1-3.8c1.5-1.1,3.2-2.1,5-3s3.7-1.5,5.8-2c-0.1,1.4-0.4,2.9-0.8,4.3s-1,2.9-1.7,4.5c-0.7,1.5-1.5,3.1-2.4,4.8
			c-0.9,1.6-1.9,3.4-3,5.2c-1.5,2.6-3,5-4.4,7s-2.5,3.8-3.5,5.3s-1.8,2.7-2.4,3.7s-0.9,1.7-0.9,2.2c0,0.3,0.1,0.6,0.4,1
			c0.2,0.4,0.5,0.8,0.9,1.1c0.3,0.3,0.7,0.6,1.1,0.9c0.4,0.2,0.7,0.4,1,0.4c0.4,0,0.8-0.2,1.4-0.7c0.5-0.4,1.1-1,1.6-1.6
			s0.9-1.3,1.3-1.9c0.4-0.7,0.5-1.2,0.5-1.7c0-0.2,0-0.4,0-0.6s0-0.4-0.1-0.7c5.5-7.6,9.7-14.2,12.4-20S297.8,420.5,297.8,416.7z"/>
		<path class="st3" d="M407.9,427.6c-0.6-0.2-1.4-0.3-2.6-0.4l2.8-3.3c0.5-0.6,0.8-1.1,0.8-1.7c0-0.3-0.1-0.5-0.4-0.7
			s-0.6-0.3-1-0.3c-1,0-1.9,0.1-2.6,0.4c-0.7,0.2-1.3,0.6-1.9,1.1s-1.1,1.1-1.7,1.8c-0.6,0.7-1.2,1.6-1.9,2.6c-1.7,0-3,0.1-4.2,0.3
			c-1.1,0.2-2,0.5-2.6,0.9c-0.4,0.3-0.9,0.7-1.4,1.3c-0.5,0.6-0.9,1.1-1.3,1.8c-0.4,0.6-0.7,1.1-1,1.7c-0.3,0.5-0.4,0.8-0.4,1
			c0,0.3,0.2,0.4,0.7,0.4h1.3c0.5,0,1,0,1.6,0.1c0.6,0,1.2,0.1,1.8,0.2c-1.2,1.6-2.4,3.1-3.7,4.6c-1.2,1.4-2.4,2.7-3.8,4.1
			c-0.1,0.1-0.2,0.3-0.4,0.4v0.1c-2,1.8-3.7,3.3-5,4.4c-1.7,1.3-2.9,2-3.6,2c-1.2,0-1.8-0.7-1.8-2c0-0.3,0.1-0.8,0.3-1.3
			c0.2-0.5,0.4-1.2,0.8-1.8c0.4-0.7,0.8-1.4,1.3-2.2c0.5-0.8,1.2-1.5,1.9-2.3c0.4-0.4,0.8-0.8,1.2-1.2c0.4-0.3,0.7-0.7,1.1-1
			c0.3-0.3,0.5-0.6,0.7-0.8c0.2-0.3,0.3-0.5,0.3-0.8c0-1.5-0.3-2.7-0.9-3.3c-0.6-0.7-1.4-1-2.5-1h-1c-0.4,0-0.8,0.1-1.2,0.1L372,433
			c0.5-1,0.8-1.6,0.8-1.9c0-0.2-0.1-0.4-0.2-0.6c-0.2-0.2-0.4-0.2-0.6-0.2c-0.4,0-0.9,0.1-1.5,0.4s-1.2,0.7-1.8,1.2
			c-0.6,0.5-1.2,1-1.8,1.7c-0.6,0.6-1.2,1.3-1.6,2c-0.4,0.7-0.9,1.4-1.2,2.1c-0.3,0.7-0.4,1.4-0.4,2c0,0.9,0.5,1.7,1.6,2.3l-0.8,0.8
			v-0.4c-1.1,1.4-2.3,2.5-3.4,3.4c-1.6,1.3-3.1,2.4-4.5,3.1c-2.4,1.3-4.4,2-5.9,2c-1.3,0-2.3-0.4-3.1-1.3c-0.8-0.9-1.2-2-1.2-3.6
			v-0.3c2.6-0.6,5-1.5,7.1-2.5c2.1-1.1,3.8-2.2,5.2-3.4c1.4-1.2,2.5-2.4,3.2-3.6c0.7-1.2,1.1-2.3,1.1-3.2c0-1-0.4-1.8-1.2-2.2
			c-0.8-0.5-1.9-0.7-3.6-0.7c-2.1,0-4.1,0.5-6.2,1.4s-4.1,2.3-6.1,4.2c-3.2,3-5.1,6.2-5.7,9.6c0,0.1,0,0.1,0,0.2
			c-1.8,1.5-3.4,2.8-4.9,3.7c-2.2,1.4-4.1,2.1-5.5,2.1c-0.3,0-0.6,0-1-0.1c-0.3,0-0.7-0.1-1.1-0.2c1.2-0.3,2.4-0.9,3.4-1.8
			c1.1-0.8,2-1.8,2.8-3c0.8-1.2,1.5-2.4,1.9-3.7c0.5-1.3,0.7-2.7,0.7-4c0-0.9-0.1-1.8-0.2-2.5c-0.1-0.8-0.3-1.5-0.4-2.1
			c-0.2-0.6-0.3-1.2-0.4-1.7s-0.2-0.9-0.2-1.3c0-0.1,0-0.3,0.1-0.5c0-0.2,0.1-0.4,0.1-0.7c0-0.4-0.1-0.6-0.3-0.8
			c-0.2-0.2-0.5-0.2-0.9-0.2c-0.7,0-1.4,0.1-1.9,0.2c-0.5,0.1-1,0.4-1.3,0.7c-0.4,0.3-0.7,0.8-0.9,1.3s-0.4,1.2-0.6,2
			c-0.8,1-2.1,2.4-3.7,4.2c-1.5,1.5-3.3,3.3-5.4,5.5v-0.1c-2.6,2.4-4.7,4.2-6.2,5.4c-1.5,1.2-2.6,1.8-3.2,1.8c-0.4,0-0.8-0.1-1-0.4
			c-0.2-0.2-0.3-0.6-0.3-1c0-0.2,0.1-0.5,0.2-0.9c0.1-0.4,0.4-0.9,0.6-1.5c0.3-0.6,0.6-1.3,1.1-2c0.4-0.7,1-1.5,1.6-2.3
			c0.5-0.6,0.9-1.1,1.4-1.6s0.9-0.9,1.2-1.3c0.4-0.4,0.7-0.9,0.9-1.3c0.2-0.5,0.3-1,0.3-1.6c0-0.5-0.1-1-0.2-1.5
			c-0.1-0.5-0.3-0.9-0.5-1.3c-0.2-0.4-0.4-0.7-0.7-0.9c-0.2-0.2-0.5-0.4-0.7-0.4c-0.5,0-1.3,0.3-2.4,0.9c-1.1,0.6-2.4,1.5-4,2.8
			c-1.6,1.2-3.4,2.9-5.5,4.8c-2,1.9-4.2,4.3-6.6,7V447c0-0.6,0.1-1.2,0.4-1.9c0.3-0.7,0.7-1.4,1.3-2c3.8-4.3,5.7-6.8,5.7-7.7
			c0-0.4-0.3-0.7-1-1c-0.6-0.3-1.4-0.5-2.3-0.5c-1.4,0-2.9,0.9-4.5,2.8c-1.6,1.9-3.2,4.7-4.9,8.5c0,0.4-0.1,0.8-0.1,1.1v0.7
			c0,1.3,0.1,2.5,0.3,3.5c0.2,1,0.4,1.9,0.7,2.7c0.3,0.7,0.7,1.3,1.1,1.7c0.4,0.4,0.9,0.6,1.4,0.6s1.1-0.4,1.8-1.1
			c0.7-0.8,1.6-1.8,2.7-3.1c1.1-1.3,2.4-2.9,3.9-4.7c1.6-1.8,3.5-3.8,5.7-5.9c-1.9,2.7-3.4,5-4.4,6.9c-1,2-1.5,3.6-1.5,5
			c0,1.4,0.3,2.4,1,3.3c0.7,0.8,1.5,1.2,2.5,1.2c0.9,0,1.8-0.3,2.8-0.8s2-1.3,3.1-2.3c1.1-1,2.4-2.2,3.7-3.6
			c0.4-0.4,0.8-0.9,1.2-1.3c0.1-0.1,0.1-0.1,0.2-0.2c0,0,0,0.1,0,0.1v0.1c0,0.9,0.3,1.8,0.8,2.7c0.5,0.9,1.2,1.8,2.1,2.5
			c0.9,0.7,1.8,1.3,2.9,1.8c1.1,0.5,2.2,0.7,3.3,0.7c3.4,0,8-2.6,13.6-7.9c0.1,2.3,0.8,4.1,1.9,5.3c1.3,1.5,3.1,2.2,5.5,2.2
			c2.6,0,5.2-0.9,8-2.8c1.9-1.3,4-3.1,6.2-5.2l0.1,0.4c0.5-0.3,0.9-0.8,1.4-1.2c0.6-0.5,1.2-1.1,1.8-1.8c1.2-1.3,2.7-2.8,4.4-4.6
			c1.1-0.1,2.2-0.3,3.3-0.5c1.1-0.2,2.2-0.5,3.4-0.7c-1.1,1.1-2.1,2.2-2.9,3.2c-0.8,1-1.5,2-2.1,3s-1,2-1.3,2.9c-0.3,1-0.4,2-0.4,3
			c0,0.8,0.1,1.5,0.3,2.1c0.2,0.6,0.5,1.2,0.9,1.6c0.4,0.5,0.8,0.8,1.3,1s1,0.4,1.6,0.4c1.4,0,3.2-1,5.5-2.9
			c2.2-1.8,4.8-4.4,7.9-7.8c0.1-0.1,0.2-0.2,0.4-0.4c0,0,0,0,0,0c0.3-0.2,0.7-0.5,1-0.7c-0.8,1.5-1.4,3-1.8,4.3
			c-0.4,1.3-0.6,2.5-0.6,3.5c0,1.3,0.4,2.4,1,3.1c0.7,0.7,1.7,1.1,3,1.1c1.8,0,4-1,6.9-2.9c2.8-1.9,6-4.9,9.7-8.8l-0.1-2.8
			c-3.1,2.8-5.7,4.9-7.6,6.3c-2,1.4-3.4,2.1-4.4,2.1c-0.6,0-1-0.2-1.3-0.5s-0.5-0.8-0.5-1.5c0-0.8,0.1-1.7,0.3-2.7s0.6-2.1,1.1-3.3
			s1.1-2.4,1.9-3.7s1.7-2.6,2.7-4c0.2,0,0.5,0.1,0.9,0.1h1.1c0.4,0,0.8,0,1.2-0.1c0.3,0,0.6-0.1,1-0.2c0.3-0.1,0.6-0.3,0.9-0.5
			c0.3-0.2,0.6-0.4,0.9-0.7c0.7-0.6,1.3-1.3,1.8-1.9c0.5-0.6,0.9-1.2,1.3-1.7c0.3-0.5,0.6-0.9,0.8-1.3c0.2-0.3,0.3-0.5,0.3-0.6
			C408.8,428.1,408.5,427.9,407.9,427.6z M349.5,438.7c1.1-1.2,2.1-2.1,3.1-2.8c1-0.7,2-1.3,2.8-1.6c0.9-0.3,1.5-0.5,1.9-0.5
			c0.3,0,0.5,0.2,0.5,0.7c0,1-0.9,2.2-2.8,3.6c-1.9,1.5-4.7,3-8.4,4.8C347.5,441.3,348.5,439.9,349.5,438.7z M325.8,449.7
			c-0.8-1.3-1.6-2.3-2.3-2.9c-0.8-0.7-1.6-1-2.6-1h-0.6c1.6-1.5,3.2-3,4.7-4.4c1.5-1.4,3-2.8,4.4-4.3c0.2,1,0.5,2,0.6,2.8
			c0.1,0.8,0.2,1.7,0.2,2.4c0,0.8-0.1,1.6-0.2,2.2c-0.2,0.7-0.4,1.3-0.8,1.9c-0.4,0.6-0.8,1.1-1.4,1.7
			C327.2,448.6,326.6,449.2,325.8,449.7z"/>
		<path class="st3" d="M463,446.8c-1.4,1-2.7,1.6-3.8,1.6c2.4-3.8,3.6-7.3,3.6-10.4c0-1.1-0.1-1.9-0.4-2.4c-0.3-0.5-0.8-0.7-1.6-0.7
			h-0.1c0.3-0.5,0.6-0.8,0.9-1c0.2-0.2,0.3-0.4,0.3-0.6s-0.1-0.5-0.3-0.7c-0.2-0.3-0.6-0.5-1-0.8c-0.4-0.2-0.9-0.4-1.4-0.6
			s-1.2-0.2-1.8-0.2c-0.7,0-1.4,0.1-2.2,0.3s-1.6,0.5-2.5,0.9c-0.9,0.4-1.8,0.9-2.6,1.5c-0.9,0.6-1.7,1.3-2.6,2
			c-0.9,0.9-1.8,1.8-2.5,2.8s-1.3,2-1.8,3s-0.9,2-1.1,3c0,0.1,0,0.1,0,0.2c-0.2,0.1-0.3,0.3-0.5,0.4c-2,1.7-3.7,3.1-5.1,4.1
			c-2,1.4-3.4,2.1-4.4,2.1c-0.6,0-1-0.2-1.3-0.5s-0.5-0.8-0.5-1.5c0-0.8,0.1-1.7,0.3-2.7c0.2-1,0.6-2.1,1.1-3.3s1.1-2.4,1.9-3.7
			c0.8-1.3,1.7-2.6,2.7-4c0.2,0,0.5,0.1,0.9,0.1h1.1c0.4,0,0.8,0,1.1-0.1c0.3,0,0.7-0.1,1-0.2c0.3-0.1,0.6-0.3,0.9-0.5
			c0.3-0.2,0.6-0.4,0.9-0.7c0.7-0.6,1.3-1.3,1.8-1.9c0.5-0.6,0.9-1.2,1.3-1.7c0.3-0.5,0.6-0.9,0.8-1.3c0.2-0.3,0.3-0.5,0.3-0.6
			c0.1-0.6-0.2-0.8-0.8-1.1c-0.6-0.2-1.4-0.3-2.6-0.4l2.8-3.3c0.5-0.6,0.8-1.1,0.8-1.7c0-0.3-0.1-0.5-0.4-0.7s-0.6-0.3-1-0.3
			c-1,0-1.9,0.1-2.6,0.4c-0.7,0.2-1.3,0.6-1.9,1.1c-0.6,0.5-1.1,1.1-1.7,1.8s-1.2,1.6-1.9,2.6c-1.7,0-3,0.1-4.2,0.3
			c-1.1,0.2-2,0.5-2.6,0.9c-0.4,0.3-0.9,0.7-1.4,1.3c-0.5,0.6-0.9,1.1-1.3,1.8c-0.4,0.6-0.7,1.1-1,1.7c-0.3,0.5-0.4,0.8-0.4,1
			c0,0.3,0.2,0.4,0.7,0.4h1.3c0.5,0,1,0,1.6,0.1c0.6,0,1.2,0.1,1.8,0.2c-1.2,1.6-2.4,3.1-3.7,4.6c-1.3,1.5-2.7,3-4.2,4.6l0.1,2.8
			c0.3-0.2,0.7-0.5,1-0.7c0.3-0.2,0.7-0.5,1.1-0.7c-0.8,1.5-1.4,3-1.8,4.3c-0.4,1.3-0.6,2.5-0.6,3.5c0,1.3,0.3,2.4,1,3.1
			s1.7,1.1,3,1.1c1.8,0,4-1,6.9-2.9c2.1-1.4,4.3-3.4,6.9-5.9c0.1-0.1,0.3-0.3,0.4-0.4v0.2c0.1,1,0.2,1.9,0.5,2.8
			c0.4,1.1,0.9,2.1,1.5,2.9c0.6,0.8,1.4,1.4,2.2,1.8c0.8,0.4,1.7,0.6,2.6,0.6c2.8,0,5.7-1.6,8.6-4.7c0.3,0,0.5,0.1,0.8,0.1h0.6
			c1.3,0,2.8-0.5,4.4-1.6c1.5-1.1,3.4-2.6,5.4-4.7l0.1-3.3C466.1,444.3,464.4,445.8,463,446.8z M454.3,442.7c-0.5,1.6-0.8,3-0.8,4.2
			v0.9c0,0.3,0,0.7,0.1,1.1c-0.8,0.8-1.6,1.4-2.5,1.8c-0.8,0.4-1.6,0.6-2.3,0.6c-1.7,0-2.6-0.9-2.6-2.6c0-0.8,0.2-1.7,0.7-2.7
			s1.1-2.1,2-3.1c0.9-1.1,2-2.1,3.3-3.1s2.8-1.8,4.6-2.5C455.7,439.3,454.8,441.1,454.3,442.7z"/>
		<path class="st3" d="M534,417.6c-0.9-1.9-2.1-3.4-3.8-4.7s-3.7-2.2-6.2-2.8c-2.5-0.6-5.2-1-8.4-1c-1.5,0-3,0.1-4.6,0.2
			c-1.6,0.2-3.1,0.4-4.7,0.6c-1.5,0.3-3.1,0.6-4.5,0.9c-1.5,0.4-2.8,0.8-4.1,1.2c-0.5,0.2-0.9,0.3-1.2,0.5c-0.3,0.2-0.6,0.4-0.8,0.6
			c-0.2,0.2-0.4,0.4-0.6,0.6s-0.4,0.5-0.6,0.8c-1.6,2.4-2.8,4.2-3.6,5.7s-1.1,2.3-1.1,2.4c0,0.6,0.1,0.9,0.3,0.9
			c0.3,0,1.1-0.2,2.2-0.6s2.7-0.9,4.6-1.5c1.9-0.5,4.2-1.1,6.9-1.6c2.7-0.5,5.8-0.9,9.2-1.1c-2.7,3.1-5,5.8-6.9,8.3
			c-1.9,2.4-3.5,4.5-4.7,6.3c-1.5,0.2-2.8,0.5-4,1c-1.2,0.4-2.2,0.9-3,1.5s-1.4,1.2-1.8,2c-0.4,0.7-0.6,1.5-0.6,2.2
			c0,0.8,0.2,1.4,0.7,2s1.1,1.2,2,1.9c-1.2,1.8-2.1,3.5-3,5c-0.8,1.5-1.5,2.9-2,4.1s-0.9,2.2-1.1,3s-0.3,1.4-0.3,1.7
			c0,0.7,0.1,1.3,0.4,1.7c0.3,0.4,0.7,0.6,1.2,0.6c0.8,0,1.5-0.4,2.1-1.1c0.7-0.7,1.4-1.7,2.3-3.1c0.6-1,1.1-1.8,1.5-2.5
			s0.5-1.2,0.5-1.6c0-0.2,0-0.3-0.1-0.4s-0.2-0.2-0.4-0.4l3.3-5.5c2.2,0.5,4.3,0.8,6.4,0.8c2,0,3.9-0.1,5.9-0.4
			c2-0.3,3.8-0.7,5.6-1.2s3.5-1.2,5.2-1.9c1.6-0.8,3.1-1.6,4.5-2.5c2.7-1.8,4.7-4.1,6.1-6.8s2.1-5.8,2.1-9.2
			C535.3,421.5,534.9,419.4,534,417.6z M530.7,426.3c-0.3,0.7-0.7,1.5-1.3,2.3s-1.2,1.6-2.1,2.5c-0.8,0.8-1.8,1.6-2.8,2.4
			c-1.9,1.4-4.1,2.5-6.5,3.2c-2.4,0.8-4.9,1.1-7.5,1.1c-0.9,0-1.8,0-2.8-0.1c-0.9-0.1-1.9-0.2-3-0.4l1.7-2.5
			c1.7-0.2,3.2-0.4,4.4-0.7c1.2-0.3,2.1-0.6,2.7-0.9c-0.5-0.2-1.1-0.4-1.8-0.5s-1.5-0.1-2.4-0.1c-0.2,0-0.5,0-0.8,0
			s-0.6,0.1-0.9,0.1l6.5-9.2c0.6-0.9,1.1-1.7,1.5-2.5s0.6-1.5,0.7-2.3c9.7,0.6,14.6,2.4,14.6,5.5C531.1,424.9,531,425.6,530.7,426.3
			z"/>
		<path class="st3" d="M600.3,450c-2.5,2.4-5.2,4.6-8,6.8c1.8-3.1,3.4-5.8,4.9-8c1.5-2.3,2.8-4.2,3.9-5.8c1.1-1.6,2-3,2.6-4.1
			c0.6-1.1,0.9-2,0.9-2.8c0-1-0.2-1.7-0.5-2.1c-0.3-0.5-0.9-0.8-1.6-0.9c-2.9,3-5.5,5.5-7.9,7.6c-2.4,2.1-4.5,3.8-6.2,5.1
			c-1.8,1.3-3.2,2.3-4.2,2.9c-1,0.6-1.7,0.9-1.9,0.9c-0.1,0-0.2-0.1-0.3-0.2v-0.5c0-0.7,0.2-1.4,0.6-2.1c0.4-0.7,1-1.5,1.8-2.4
			c3-2.5,5.2-4.6,6.5-6.3c1.4-1.8,2-3,2-3.7c0-0.2-0.1-0.5-0.3-0.8c-0.2-0.3-0.4-0.6-0.7-0.9c-0.3-0.3-0.6-0.5-1-0.7
			c-0.4-0.2-0.7-0.3-1-0.3c-0.1,0-0.4,0.2-0.9,0.4c-0.5,0.3-1.1,0.7-1.9,1.3c-0.8,0.6-1.6,1.2-2.5,2.1c-0.9,0.8-1.8,1.8-2.8,2.8
			c-1.5,1.7-2.6,3.3-3.3,4.9c-0.3,0.6-0.5,1.2-0.7,1.8c0,0,0,0.1,0,0.1h0c-1,0.9-1.9,1.7-2.8,2.3c-1.5,1.1-2.8,1.7-3.9,1.7
			c-0.6,0-1.1-0.1-1.4-0.4c-0.3-0.2-0.5-0.6-0.5-1.2c0-0.9,0.3-1.8,0.8-2.8s1.1-1.9,1.8-2.9c0.6-0.9,1.2-1.8,1.7-2.5
			c0.5-0.8,0.8-1.4,0.8-1.9c0-0.3-0.1-0.7-0.4-1.3l-1.1-2.3l1.2-0.7c0.4-0.2,0.7-0.4,0.9-0.6c0.2-0.2,0.3-0.4,0.3-0.6
			c0-0.3-0.1-0.6-0.3-1c-0.2-0.4-0.4-0.8-0.7-1.1c-0.3-0.4-0.6-0.6-1-0.9c-0.4-0.2-0.8-0.4-1.2-0.4c-0.3,0-1,0.1-2.2,0.4
			c-1.2,0.3-2.8,0.8-4.7,1.5c-2.1,0.8-4,1.6-5.7,2.6c-1.7,1-3.4,2.1-4.9,3.4c-2.1,1.8-3.7,3.5-4.8,5.2c-0.8,1.2-1.3,2.3-1.5,3.3
			c-0.1,0.1-0.2,0.2-0.2,0.2c-1.6,1.4-2.9,2.6-4,3.5c-1.7,1.4-3,2.1-3.9,2.1c-2.2,0-3.3-2-3.3-6.1v-1.3c2.7-2.3,5.3-4.5,7.5-6.9
			c2.2-2.3,4-4.7,5.5-7.1c1.5-2.4,2.5-4.7,3.3-7c0.7-2.3,1.1-4.6,1.1-6.7c0-0.8-0.1-1.3-0.4-1.7c-0.2-0.4-0.6-0.6-0.9-0.6
			c-0.4,0-1,0.2-1.7,0.6c-0.7,0.4-1.5,1-2.5,1.7c-1,0.8-2,1.7-3.1,2.9c-1.1,1.1-2.3,2.5-3.6,4c-2,2.4-3.7,4.8-5.2,7.1
			c-1.5,2.4-2.7,4.6-3.7,6.8c-1,2.2-1.7,4.2-2.2,6c-0.5,1.8-0.7,3.4-0.7,4.7c0,1.3,0.2,2.6,0.5,3.8c0.3,1.2,0.8,2.2,1.3,3.1
			c0.6,0.9,1.2,1.6,2,2.1s1.6,0.8,2.6,0.8c0.9,0,1.8-0.2,2.8-0.8c0.9-0.5,2-1.3,3.1-2.2c1.1-1,2.3-2.2,3.7-3.6
			c0.6-0.7,1.3-1.4,2-2.1l0.2-0.2c0,0,0,0,0,0.1c0.1,0.4,0.2,0.8,0.4,1.2c0.4,1.1,0.9,2.1,1.5,3.1c0.6,0.9,1.2,1.7,1.7,2.3
			c0.6,0.6,1.1,0.9,1.4,0.9c1,0,2.4-0.8,4.3-2.3c1.9-1.5,4.3-3.8,7.2-6.9c-0.5,1.5-0.8,2.8-1.1,3.8s-0.5,2-0.5,2.8
			c0,0.6,0.1,1.1,0.3,1.6c0.2,0.5,0.5,0.9,0.8,1.2c0.3,0.3,0.7,0.6,1.1,0.8c0.4,0.2,0.9,0.3,1.4,0.3c0.8,0,1.7-0.2,2.6-0.8
			c0.9-0.5,2-1.3,3.1-2.3c1.1-1,2.4-2.2,3.7-3.6c0.4-0.4,0.7-0.8,1.1-1.2c0,0.6,0.2,1.2,0.4,1.8c0.3,1,0.7,1.9,1.1,2.7
			c0.4,0.8,0.9,1.5,1.4,2s0.9,0.8,1.3,0.8c0.3,0,0.7-0.2,1.4-0.5s1.5-0.8,2.4-1.4c1-0.7,2.1-1.5,3.4-2.5s2.7-2.3,4.2-3.7
			c-2,2.9-3.7,5.5-5.2,7.8c-1.4,2.3-2.6,4.4-3.5,6.1c-0.9,1.7-1.6,3.1-2,4.2c-0.4,1.1-0.7,1.8-0.7,2.1c0,0.6,0.1,1.1,0.2,1.7
			c0.1,0.6,0.3,1.1,0.5,1.6s0.4,0.9,0.6,1.2c0.2,0.3,0.4,0.5,0.5,0.5c0.2,0,0.8-0.6,1.9-1.8c1-1.2,2.5-2.9,4.4-5.3
			c1.9-2.3,4.4-5.2,7.3-8.6c2.9-3.4,6.4-7.4,10.5-11.9v-3C605.3,445.2,602.9,447.7,600.3,450z M542.7,428.5c2-3.2,4.5-6.3,7.3-9.4
			c-1.2,4.1-2.8,7.7-4.7,10.8c-2,3.1-4.4,5.9-7.3,8.2C539.1,434.9,540.7,431.7,542.7,428.5z M564.3,441.5c-1.7,1.8-3.3,3.4-4.7,4.6
			c-1.4,1.2-2.6,2.1-3.5,2.7c-1,0.6-1.6,0.9-2,0.9c-0.3,0-0.6-0.2-0.8-0.5s-0.3-0.8-0.3-1.3c0-1.3,0.4-2.5,1.1-3.5
			c0.7-1.1,1.8-2.1,3.2-3.1c1.4-1,3.2-2,5.3-3c2.1-1,4.5-2.1,7.3-3.3C567.9,437.5,566.1,439.7,564.3,441.5z"/>
	</g>
	<g>
		<g>
			<g>
				<path class="st4" d="M377.8,221.2c-0.9-3.3-2.1-6.1-3.7-8.2c-1.2-1.8-3-2.9-5.4-3.3c-2.3-0.5-5.4-0.7-9.3-0.7
					c-7.8,0-14.7,0.9-20.9,2.7c-6.2,1.8-11.3,4.4-15.6,7.6c-4.3,3.2-7.5,7-9.8,11.5c-2.3,4.4-3.4,9.2-3.4,14.4
					c0,1.1,0.1,1.9,0.4,2.5s0.6,1.1,1,1.4c0.4,0.3,0.9,0.5,1.4,0.6s1.1,0.1,1.6,0.1h1.8c0.6,0,1.5-0.2,2.5-0.4
					c1.1-0.3,2.3-0.6,3.7-1c1.4-0.4,3-0.7,4.7-1s3.5-0.4,5.3-0.4h1.2c1.1,0,2-0.2,2.5-0.5s0.8-0.9,0.8-1.6c0-1.1-1.2-2.1-3.6-3.2
					c-2.4-1.1-6-1.8-10.6-2c3.4-2.2,6.9-4.2,10.6-5.9s7.3-3,10.8-4.1s6.8-1.9,10-2.4c3.1-0.5,5.9-0.8,8.2-0.8c2.5,0,4.4,0.3,5.7,0.9
					c1.3,0.6,1.9,1.4,1.9,2.5c0,2.9-1,5.5-3.2,7.7c-2.1,2.2-5,4.3-8.7,6.5c-3.7,2.1-8.1,4.4-13.1,6.8c-5,2.4-10.5,5.3-16.3,8.6
					c-12.3,7-21.4,13.5-27.5,19.7c-6,6.1-9.1,11.7-9.1,16.5c0,1,0.1,2.3,0.4,3.6c0.3,1.4,0.6,2.7,1.1,4.1s0.9,2.6,1.5,3.7
					c0.5,1.1,1,2,1.5,2.5c1.5,1.8,3.4,3.1,5.6,3.7c2.2,0.7,5,1,8.3,1c8.9,0,16.4-0.4,22.5-1.3c6.2-0.9,10.9-2,14.2-3.4
					c2.1-0.9,4-2.2,5.7-3.8c1.7-1.6,3.2-3.4,4.4-5.3c1.2-1.9,2.1-3.8,2.8-5.8c0.7-1.9,1-3.6,1-5.2c0-1-0.2-1.7-0.5-2
					c-0.4-0.3-1-0.5-1.8-0.5c-0.7,0-2.3,0.2-4.9,0.8c-2.6,0.5-6.2,1.1-10.7,1.9s-10,1.7-16.5,2.6c-6.5,1-13.9,1.9-22.3,2.9
					c4.5-3.4,9-6.6,13.4-9.5s8.6-5.6,12.8-8.1c4.1-2.5,8.1-4.9,11.9-7.1s7.5-4.4,11-6.5c4.6-2.7,8.5-5.2,11.8-7.5
					c3.3-2.3,6-4.6,8-6.9s3.6-4.8,4.5-7.5c1-2.7,1.4-5.7,1.4-9.2C379,228.4,378.6,224.5,377.8,221.2z"/>
				<path class="st4" d="M464.5,208.9c-3.3,0.2-6.5,0.2-9.6,0.2c-5.2,0-9.3-0.1-12.4-0.2c-3.1-0.2-5.2-0.2-6.3-0.2
					c-1.6,0-3,0.2-4.3,0.5c-1.2,0.3-2.5,0.9-3.8,1.8c-1.3,0.9-2.8,2.1-4.4,3.6s-3.6,3.5-6,5.9c-3,3-5.6,5.9-7.8,8.6
					c-2.2,2.7-4.1,5.2-5.6,7.3c-1.5,2.2-2.6,4.1-3.4,5.6c-0.8,1.6-1.1,2.7-1.1,3.5c0,2,0.2,4.1,0.8,6.3c0.5,2.2,1.1,4.3,2,6.2
					c0.8,1.9,1.7,3.5,2.7,4.7c1,1.3,2,1.9,2.9,1.9s2.3-0.3,4.1-0.8c1.8-0.5,4-1.2,6.5-1.8c2.5-0.7,5.4-1.3,8.5-1.8s6.5-0.8,10-0.8
					c7.9,0,11.9,2,11.9,6c0,0.9-0.4,2.1-1.1,3.6c-0.8,1.4-1.9,3-3.5,4.7s-3.5,3.5-5.8,5.4s-5,3.7-8.2,5.5c-3.1,1.8-6.1,3.3-9,4.5
					s-5.7,2.3-8.2,3.1c-2.6,0.8-4.9,1.4-7,1.8s-3.8,0.5-5.1,0.5c-0.9,0-1.9-0.1-3-0.3c-1-0.2-2.1-0.5-3.3-0.9l14-8.3
					c-1.7-0.3-3.1-0.5-4.4-0.5c-2.8,0-5.7,0.4-8.5,1.2c-2.9,0.8-5.5,2-7.8,3.5s-4.3,3.4-5.8,5.6s-2.2,4.6-2.2,7.3
					c0,2.7,0.3,4.9,0.8,6.6c0.5,1.8,1.4,3.2,2.6,4.2s2.7,1.8,4.5,2.2c1.8,0.4,4,0.6,6.6,0.6c4.1,0,8.3-0.4,12.6-1.1
					c4.3-0.8,8.6-1.8,12.8-3.2c4.2-1.4,8.2-3,11.9-4.9c3.8-1.9,7.2-4,10.2-6.3c2.5-2,4.9-4.4,7-7s3.9-5.4,5.3-8.4
					c1.5-3,2.6-6.1,3.4-9.3c0.8-3.2,1.2-6.5,1.2-9.7c0-3.5-0.6-6.8-1.7-9.6c-1.1-2.9-2.7-5.3-4.7-7.3s-4.4-3.6-7.2-4.7
					c-2.8-1.1-5.9-1.6-9.3-1.6c-3.1,0-6.4,0.3-10.1,0.9c-3.7,0.6-7.6,1.6-11.8,2.9c2.2-3.3,4.4-6.3,6.6-8.9c2.2-2.7,4.3-5.1,6.5-7.4
					h19.2c4.8,0,8.7-0.1,11.5-0.3s4.8-0.9,6-2.2c1.1-1.2,2.2-2.5,3.2-4c1.1-1.5,2.1-3,3-4.7c1-1.6,1.8-3.3,2.7-5.1
					c0.8-1.8,1.5-3.6,2.1-5.4C471.3,208.5,467.8,208.7,464.5,208.9z"/>
			</g>
			<g>
				<path class="st4" d="M572.5,238.8c3.4-3.4,5.1-8,5.1-14c0-5.2-1.2-8.8-3.7-10.9c-2.5-2.1-7-3.1-13.5-3.1h-5l7.8-15
					c0.9-1.8,1.7-3.3,2.2-4.5s0.8-2.1,0.8-2.7c0-1.6-1.7-2.4-5.2-2.4s-6.4,0.5-8.7,1.4s-4.4,2.5-6.3,4.7c-1.9,2.2-3.7,5-5.4,8.6
					c-1.7,3.5-3.7,7.9-6,13c-8.7,1.7-16.6,4.6-23.7,8.8c-7.1,4.2-13.1,9.1-18.1,14.8s-8.8,12.1-11.5,19.1c-2.7,7-4,14.2-4,21.5
					c0,9.6,2.4,17,7.2,22c4.8,5,11.8,7.8,21,8.1c-0.8,3.6-1.4,6.7-1.9,9.2s-0.8,4.7-0.8,6.4c0,2.5,0.6,4.8,1.8,7.1
					c1.2,2.3,2.7,4.2,4.5,5.9c1.8,1.7,3.7,3.1,5.7,4c2,1,3.9,1.5,5.6,1.5c2.6,0,3.8-2,3.8-6.1c0-1.7,0-3.5-0.1-5.5s-0.1-4.2-0.1-6.7
					c0-1.7,0-3.9,0.1-6.6s0.4-5.8,1-9.3c7.3-2.5,13.6-5,18.9-7.3c5.3-2.3,9.7-4.8,13.2-7.3s6-5.4,7.7-8.4s2.5-6.6,2.5-10.7
					c0-5.4-1.4-8.1-4.1-8.1c-1,0-2.5,0.4-4.2,1.3c-1.8,0.9-4,1.9-6.7,3.2c-2.7,1.3-5.9,2.7-9.5,4.3c-3.6,1.6-7.8,3.1-12.5,4.5
					l14.7-41.5c3.2-0.6,6-0.9,8.5-0.9c0.8,0,1.6,0.1,2.6,0.3s2.2,0.4,3.8,0.6l-3.8,7.2C563.8,244.4,569.1,242.2,572.5,238.8z
					 M511.2,282.8c-1.5,0-2.7,0.1-3.5,0.1c-0.9,0.1-1.4,0.2-1.7,0.2c-3.8,0-6.6-0.7-8.4-2.2s-2.7-3.5-2.7-6.2c0-1.4,0.6-3.4,1.8-6
					c1.2-2.5,3-5.3,5.5-8.3c2.4-3,5.5-6,9.1-8.9c3.7-3,8-5.6,12.9-7.9L511.2,282.8z"/>
			</g>
		</g>
		<line class="st5" x1="282" y1="157.4" x2="587.5" y2="157.4"/>
		<line class="st5" x1="282" y1="172.5" x2="587.5" y2="172.5"/>
		<line class="st5" x1="282" y1="354" x2="587.5" y2="354"/>
		<line class="st5" x1="282" y1="369.2" x2="587.5" y2="369.2"/>
	</g>
</g>
</svg>
