<?xml version="1.0" encoding="utf-8"?>
<!-- Generator: Adobe Illustrator 25.2.3, SVG Export Plug-In . SVG Version: 6.00 Build 0)  -->
<svg version="1.1" id="Layer_1" xmlns="http://www.w3.org/2000/svg" xmlns:xlink="http://www.w3.org/1999/xlink" x="0px" y="0px"
	 viewBox="0 0 709 613" style="enable-background:new 0 0 709 613;" xml:space="preserve">
<style type="text/css">
	.st0{fill:#606060;}
	.st1{fill:#494949;}
</style>
<g>
	<g>
		<g>
			<path class="st0" d="M57.7,608C28.6,608,5,584.4,5,555.3V57.7C5,28.6,28.6,5,57.7,5h594c14.1,0,27.4,5.5,37.4,15.5
				c9.9,9.9,15.3,23.1,15.3,37.2v497.6c0,29.1-23.6,52.7-52.7,52.7H57.7z"/>
			<path class="st1" d="M651.7,10c12.8,0,24.8,5,33.9,14c9,9,13.9,20.9,13.8,33.7v497.6c0,26.3-21.4,47.7-47.7,47.7h-594
				C31.4,603,10,581.6,10,555.3V57.7C10,31.4,31.4,10,57.7,10H651.7 M651.7,0h-594C25.9,0,0,25.8,0,57.7v497.6
				C0,587.1,25.9,613,57.7,613h594c31.9,0,57.7-25.8,57.7-57.7V57.7C709.5,25.8,683.6,0,651.7,0L651.7,0z"/>
		</g>
	</g>
	<g>
		<path d="M89.9,62.2h43.4c4.4,0,7.9,3.5,7.9,7.9v471.8c0,4.4-3.5,7.9-7.9,7.9H89.9c-4.4,0-7.9-3.5-7.9-7.9V70.1
			C82,65.7,85.5,62.2,89.9,62.2z"/>
	</g>
</g>
</svg>
