<?xml version="1.0" encoding="utf-8"?>
<!-- Generator: Adobe Illustrator 25.2.3, SVG Export Plug-In . SVG Version: 6.00 Build 0)  -->
<svg version="1.1" id="Layer_1" xmlns="http://www.w3.org/2000/svg" xmlns:xlink="http://www.w3.org/1999/xlink" x="0px" y="0px"
	 viewBox="0 0 709 613" style="enable-background:new 0 0 709 613;" xml:space="preserve">
<style type="text/css">
	.st0{fill:#606060;}
	.st1{fill:#BA2D2D;}
	.st2{stroke:#BA2D2D;stroke-width:6;stroke-linecap:round;stroke-miterlimit:10;}
</style>
<g>
	<g>
		<path class="st0" d="M651.7,0h-594C25.9,0,0,25.8,0,57.7v497.6C0,587.1,25.9,613,57.7,613h594c31.9,0,57.7-25.8,57.7-57.7V57.7
			C709.5,25.8,683.6,0,651.7,0z"/>
	</g>
	<g>
		<path d="M267.1,509.4c-19.3,0-35.1-15.7-35.1-35.1V139.1c0-19.3,15.7-35.1,35.1-35.1h335.3c19.3,0,35.1,15.7,35.1,35.1v335.3
			c0,19.3-15.7,35.1-35.1,35.1H267.1z"/>
		<path class="st1" d="M602.4,110c16,0,29.1,13,29.1,29.1v335.3c0,16-13,29.1-29.1,29.1H267.1c-16,0-29.1-13-29.1-29.1V139.1
			c0-16,13-29.1,29.1-29.1H602.4 M602.4,98H267.1c-22.7,0-41.1,18.4-41.1,41.1v335.3c0,22.7,18.4,41.1,41.1,41.1h335.3
			c22.7,0,41.1-18.4,41.1-41.1V139.1C643.5,116.4,625.1,98,602.4,98L602.4,98z"/>
	</g>
	<g>
		<path d="M89.9,62.2h43.4c4.4,0,7.9,3.5,7.9,7.9v471.8c0,4.4-3.5,7.9-7.9,7.9H89.9c-4.4,0-7.9-3.5-7.9-7.9V70.1
			C82,65.7,85.5,62.2,89.9,62.2z"/>
	</g>
	<g>
		<path class="st1" d="M281.4,450.9c0.1,0.2,0.1,0.5,0.1,0.6c0,0.2,0,0.4,0,0.6c0,0.5-0.2,1-0.5,1.7c-0.4,0.7-0.8,1.3-1.3,1.9
			c-0.5,0.6-1,1.2-1.5,1.6c-0.5,0.4-1,0.7-1.4,0.7c-0.3,0-0.6-0.1-1-0.4c-0.4-0.2-0.7-0.5-1.1-0.9c-0.3-0.3-0.6-0.7-0.9-1.1
			c-0.2-0.4-0.4-0.7-0.4-1c0-0.5,0.3-1.2,0.9-2.2s1.4-2.2,2.4-3.7c1-1.5,2.2-3.2,3.5-5.3c1.4-2,2.8-4.4,4.4-7c1.1-1.8,2.1-3.6,3-5.2
			s1.7-3.2,2.4-4.8c0.7-1.5,1.3-3,1.7-4.5c0.4-1.4,0.7-2.9,0.8-4.3c-2,0.5-3.9,1.2-5.7,2c-1.8,0.9-3.5,1.8-5,3
			c-1.5,1.1-2.9,2.4-4.1,3.8c-1.2,1.4-2.2,2.9-3,4.4c1.4-0.5,2.4-0.8,3-0.8c0.8,0,1.2,0.3,1.2,0.8c0,0.4-0.3,0.8-0.9,1.2
			c-0.6,0.4-1.4,1-2.4,1.7c-0.9,0.7-1.7,1.3-2.2,1.7s-1,0.7-1.4,0.7c-0.5,0-1-0.2-1.6-0.6c-0.6-0.4-1.2-0.9-1.8-1.5
			c-0.6-0.6-1.1-1.2-1.5-1.8s-0.6-1.2-0.6-1.7c0-0.3,0.1-0.9,0.4-1.6c0.2-0.8,0.6-1.6,1.1-2.6c0.5-1,1.1-2,1.8-3
			c0.7-1.1,1.5-2.1,2.5-3.1c1.6-1.6,3.3-3.1,5.1-4.3c1.8-1.3,3.6-2.3,5.4-3.2c1.8-0.9,3.4-1.5,5-1.9c1.5-0.4,2.8-0.6,3.8-0.6
			c1.9,0,3.4,0.5,4.5,1.6c1.1,1.1,1.7,2.6,1.7,4.7c0,3.7-1.3,8.5-4,14.2S287,443.3,281.4,450.9z"/>
		<path class="st1" d="M291.1,445.2c1.7-3.8,3.3-6.7,4.9-8.5c1.6-1.9,3.1-2.8,4.5-2.8c0.9,0,1.7,0.2,2.3,0.5c0.6,0.3,1,0.6,1,1
			c0,0.9-1.9,3.4-5.7,7.7c-0.6,0.6-1,1.3-1.3,2c-0.3,0.7-0.4,1.3-0.4,1.9v0.2c2.4-2.7,4.6-5,6.6-7s3.9-3.6,5.5-4.8
			c1.6-1.3,3-2.2,4.1-2.8s1.9-0.9,2.4-0.9c0.2,0,0.5,0.1,0.7,0.4s0.5,0.5,0.7,0.9c0.2,0.4,0.4,0.8,0.5,1.3s0.2,1,0.2,1.5
			c0,0.6-0.1,1.1-0.3,1.6c-0.2,0.5-0.5,0.9-0.9,1.3s-0.8,0.9-1.2,1.4c-0.5,0.5-0.9,1-1.4,1.6c-0.6,0.8-1.1,1.6-1.6,2.3
			c-0.4,0.7-0.8,1.4-1.1,2c-0.3,0.6-0.5,1.1-0.6,1.5c-0.1,0.4-0.2,0.7-0.2,0.9c0,0.4,0.1,0.8,0.3,1c0.2,0.2,0.6,0.4,1,0.4
			c0.6,0,1.7-0.6,3.2-1.8s3.6-3,6.2-5.4l0.1,3c-1.7,1.8-3.2,3.4-4.6,4.9c-1.4,1.4-2.6,2.6-3.7,3.6c-1.1,1-2.2,1.7-3.1,2.3
			c-1,0.5-1.9,0.8-2.8,0.8c-1,0-1.9-0.4-2.5-1.2s-1-1.9-1-3.3c0-1.4,0.5-3,1.5-5s2.4-4.3,4.4-6.9c-2.3,2.1-4.2,4.1-5.7,5.9
			s-2.9,3.4-3.9,4.7c-1.1,1.3-1.9,2.4-2.6,3.1c-0.7,0.8-1.3,1.1-1.8,1.1c-0.5,0-1-0.2-1.4-0.6c-0.4-0.4-0.8-0.9-1.1-1.7
			s-0.6-1.6-0.7-2.7c-0.2-1-0.3-2.2-0.3-3.5c0-0.2,0-0.4,0-0.7C291,446,291.1,445.7,291.1,445.2z"/>
		<path class="st1" d="M343.3,445.6c-7.2,7.6-12.9,11.4-17,11.4c-1.1,0-2.2-0.2-3.3-0.7s-2.1-1.1-2.9-1.8c-0.9-0.7-1.5-1.6-2.1-2.5
			s-0.8-1.8-0.8-2.7c0-1.5,0.8-2.5,2.3-3.2v-2.5c2.5-2.5,4.6-4.6,6.3-6.4s2.9-3.1,3.7-4.2c0.2-0.8,0.3-1.4,0.6-2s0.6-1,0.9-1.3
			s0.8-0.6,1.3-0.7s1.2-0.2,1.9-0.2c0.4,0,0.7,0.1,0.9,0.2c0.2,0.2,0.3,0.4,0.3,0.8c0,0.3,0,0.5-0.1,0.7c0,0.2-0.1,0.4-0.1,0.5
			c0,0.3,0.1,0.8,0.2,1.3s0.3,1.1,0.4,1.7c0.2,0.6,0.3,1.3,0.4,2.1c0.1,0.8,0.2,1.6,0.2,2.5c0,1.4-0.2,2.7-0.7,4.1
			c-0.5,1.3-1.1,2.6-1.9,3.7s-1.8,2.1-2.8,3c-1.1,0.8-2.2,1.4-3.4,1.8c0.4,0.1,0.7,0.2,1.1,0.2c0.3,0.1,0.7,0.1,1,0.1
			c1.4,0,3.3-0.7,5.5-2.1c2.2-1.4,4.9-3.6,8-6.5L343.3,445.6z M320.3,445.9c0.1,0,0.2,0,0.3,0c0.1,0,0.2,0,0.3,0c1,0,1.8,0.3,2.6,1
			c0.8,0.7,1.5,1.6,2.3,2.9c0.8-0.5,1.4-1.1,2-1.6s1-1.1,1.4-1.6s0.6-1.2,0.8-1.9c0.2-0.7,0.2-1.4,0.2-2.2c0-0.8-0.1-1.6-0.2-2.4
			c-0.2-0.9-0.4-1.8-0.6-2.8c-1.4,1.5-2.8,2.9-4.3,4.3C323.4,442.9,321.9,444.3,320.3,445.9z"/>
		<path class="st1" d="M346.4,446.1c0,1.5,0.4,2.7,1.2,3.6c0.8,0.9,1.8,1.3,3.1,1.3c1.5,0,3.5-0.7,5.9-2c2.4-1.3,5-3.4,8-6.3v2.9
			c-3.3,3.6-6.3,6.4-9,8.2s-5.4,2.8-8,2.8c-2.4,0-4.2-0.7-5.5-2.2c-1.3-1.5-1.9-3.7-1.9-6.7c0-4.3,2-8.3,5.9-11.9
			c2-1.9,4-3.3,6.1-4.2c2.1-0.9,4.1-1.4,6.2-1.4c1.6,0,2.8,0.2,3.6,0.7s1.1,1.2,1.1,2.2c0,0.9-0.4,2-1.1,3.2
			c-0.7,1.2-1.8,2.4-3.2,3.6c-1.4,1.2-3.1,2.3-5.2,3.4c-2.1,1.1-4.4,1.9-7.1,2.5V446.1z M346.7,442.9c3.7-1.7,6.6-3.3,8.4-4.7
			s2.8-2.7,2.8-3.6c0-0.5-0.2-0.7-0.5-0.7c-0.4,0-1.1,0.2-1.9,0.5s-1.8,0.9-2.8,1.6c-1,0.7-2.1,1.7-3.1,2.8S347.5,441.3,346.7,442.9
			z"/>
		<path class="st1" d="M360.7,446.2l4.5-4.4c-1.1-0.6-1.6-1.4-1.6-2.3c0-0.6,0.1-1.3,0.4-2c0.3-0.7,0.7-1.4,1.2-2.1
			c0.5-0.7,1-1.4,1.6-2c0.6-0.6,1.2-1.2,1.8-1.7c0.6-0.5,1.2-0.9,1.8-1.1c0.6-0.3,1.1-0.4,1.5-0.4c0.2,0,0.4,0.1,0.6,0.2
			c0.2,0.2,0.2,0.4,0.2,0.6c0,0.3-0.3,0.9-0.8,1.9l5.5-0.4c0.5,0,0.9-0.1,1.2-0.1c0.4,0,0.7,0,1,0c1.1,0,1.9,0.3,2.5,1
			c0.6,0.7,0.9,1.8,0.9,3.3c0,0.3-0.1,0.6-0.3,0.9s-0.4,0.5-0.7,0.8c-0.3,0.3-0.7,0.6-1,1c-0.4,0.3-0.8,0.7-1.2,1.2
			c-0.7,0.8-1.4,1.5-1.9,2.3c-0.5,0.8-1,1.5-1.3,2.2c-0.4,0.7-0.6,1.3-0.8,1.8c-0.2,0.5-0.3,1-0.3,1.3c0,1.3,0.6,2,1.7,2
			c0.8,0,2-0.7,3.6-2c1.7-1.3,3.9-3.2,6.6-5.7v2.9c-3.4,3.7-6.3,6.6-8.6,8.5c-2.3,1.9-4.2,2.9-5.6,2.9c-0.6,0-1.1-0.1-1.6-0.4
			c-0.5-0.2-1-0.6-1.3-1c-0.4-0.5-0.7-1-0.9-1.6c-0.2-0.6-0.4-1.3-0.4-2.1c0-1,0.1-2,0.4-3c0.3-1,0.7-1.9,1.3-2.9c0.6-1,1.3-2,2.1-3
			c0.8-1,1.8-2.1,2.9-3.2c-1.2,0.3-2.3,0.5-3.4,0.7s-2.2,0.4-3.3,0.5c-1.7,1.8-3.2,3.4-4.4,4.6c-1.2,1.3-2.3,2.3-3.3,3L360.7,446.2z
			"/>
		<path class="st1" d="M388.3,445.2c-0.4,0.3-0.7,0.5-1,0.7s-0.7,0.5-1,0.7l-0.1-2.8c1.5-1.5,2.9-3.1,4.2-4.6s2.6-3,3.7-4.6
			c-0.6-0.1-1.2-0.2-1.8-0.2c-0.6-0.1-1.1-0.1-1.6-0.1h-1.3c-0.5,0-0.7-0.1-0.7-0.4c0-0.2,0.1-0.5,0.4-1c0.3-0.5,0.6-1.1,1-1.7
			c0.4-0.6,0.8-1.2,1.3-1.7c0.5-0.6,0.9-1,1.4-1.3c0.6-0.4,1.5-0.7,2.6-0.9c1.1-0.2,2.5-0.3,4.2-0.3c0.7-1,1.4-1.9,1.9-2.6
			c0.5-0.7,1.1-1.4,1.7-1.8c0.6-0.5,1.2-0.8,1.9-1.1s1.6-0.4,2.6-0.4c0.4,0,0.7,0.1,1,0.3c0.3,0.2,0.4,0.4,0.4,0.7
			c0,0.6-0.3,1.2-0.8,1.7l-2.8,3.3c1.2,0.1,2,0.2,2.6,0.4c0.6,0.2,0.9,0.5,0.9,0.8c0,0.1-0.1,0.3-0.3,0.6c-0.2,0.3-0.4,0.8-0.8,1.3
			c-0.3,0.5-0.8,1.1-1.3,1.7c-0.5,0.6-1.1,1.3-1.8,1.9c-0.3,0.3-0.6,0.5-0.9,0.7c-0.3,0.2-0.6,0.3-0.9,0.5c-0.3,0.1-0.6,0.2-1,0.2
			s-0.7,0.1-1.1,0.1s-0.8,0-1.1,0s-0.6,0-0.9-0.1c-1.1,1.3-2,2.7-2.7,4s-1.4,2.6-1.9,3.7s-0.8,2.3-1.1,3.3c-0.2,1-0.3,1.9-0.3,2.7
			c0,0.7,0.2,1.2,0.5,1.5s0.7,0.5,1.3,0.5c0.9,0,2.4-0.7,4.4-2.1s4.5-3.5,7.6-6.3l0.1,2.8c-3.7,3.9-6.9,6.9-9.7,8.8
			c-2.8,1.9-5.1,2.9-6.9,2.9c-1.3,0-2.3-0.4-3-1.1c-0.7-0.7-1-1.7-1-3.1c0-1,0.2-2.2,0.6-3.5C386.9,448.2,387.5,446.8,388.3,445.2z"
			/>
		<path class="st1" d="M426,445.2c-0.4,0.3-0.7,0.5-1,0.7c-0.3,0.2-0.7,0.5-1,0.7l-0.1-2.8c1.5-1.5,2.9-3.1,4.2-4.6s2.6-3,3.7-4.6
			c-0.6-0.1-1.2-0.2-1.8-0.2c-0.6-0.1-1.1-0.1-1.6-0.1H427c-0.5,0-0.7-0.1-0.7-0.4c0-0.2,0.1-0.5,0.4-1c0.3-0.5,0.6-1.1,1-1.7
			c0.4-0.6,0.8-1.2,1.3-1.7c0.5-0.6,0.9-1,1.4-1.3c0.6-0.4,1.5-0.7,2.6-0.9c1.1-0.2,2.5-0.3,4.2-0.3c0.7-1,1.4-1.9,1.9-2.6
			c0.5-0.7,1.1-1.4,1.7-1.8s1.2-0.8,1.9-1.1s1.6-0.4,2.6-0.4c0.4,0,0.7,0.1,1,0.3s0.4,0.4,0.4,0.7c0,0.6-0.3,1.2-0.8,1.7l-2.8,3.3
			c1.2,0.1,2,0.2,2.6,0.4s0.9,0.5,0.9,0.8c0,0.1-0.1,0.3-0.3,0.6c-0.2,0.3-0.4,0.8-0.8,1.3c-0.3,0.5-0.8,1.1-1.3,1.7
			c-0.5,0.6-1.1,1.3-1.8,1.9c-0.3,0.3-0.6,0.5-0.9,0.7c-0.3,0.2-0.6,0.3-0.9,0.5c-0.3,0.1-0.6,0.2-1,0.2s-0.7,0.1-1.1,0.1
			s-0.8,0-1.1,0s-0.6,0-0.9-0.1c-1.1,1.3-2,2.7-2.7,4s-1.4,2.6-1.9,3.7s-0.8,2.3-1.1,3.3s-0.3,1.9-0.3,2.7c0,0.7,0.2,1.2,0.5,1.5
			c0.3,0.3,0.7,0.5,1.3,0.5c0.9,0,2.4-0.7,4.4-2.1c2-1.4,4.5-3.5,7.6-6.3l0.1,2.8c-3.7,3.9-6.9,6.9-9.7,8.8
			c-2.8,1.9-5.1,2.9-6.9,2.9c-1.3,0-2.3-0.4-3-1.1c-0.7-0.7-1-1.7-1-3.1c0-1,0.2-2.2,0.6-3.5C424.6,448.2,425.2,446.8,426,445.2z"/>
		<path class="st1" d="M456.9,451.9c-2.9,3.1-5.7,4.7-8.6,4.7c-0.9,0-1.8-0.2-2.6-0.6c-0.8-0.4-1.6-1-2.2-1.8s-1.2-1.7-1.5-2.9
			c-0.4-1.1-0.6-2.4-0.6-3.8c0-0.9,0.1-1.8,0.4-2.8c0.3-1,0.6-2,1.1-3s1.1-2,1.8-3s1.6-1.9,2.5-2.8c0.8-0.8,1.7-1.5,2.6-2
			s1.8-1.1,2.6-1.5c0.9-0.4,1.7-0.7,2.5-0.9c0.8-0.2,1.6-0.3,2.2-0.3c0.7,0,1.3,0.1,1.8,0.2c0.6,0.2,1,0.4,1.5,0.6
			c0.4,0.2,0.7,0.5,1,0.8c0.2,0.3,0.4,0.5,0.4,0.7c0,0.2-0.1,0.4-0.3,0.6c-0.2,0.2-0.5,0.5-0.9,1h0.1c0.8,0,1.3,0.2,1.6,0.7
			c0.3,0.5,0.4,1.3,0.4,2.4c0,3.1-1.2,6.6-3.6,10.4c1.1,0,2.4-0.6,3.8-1.6c1.4-1,3.2-2.6,5.2-4.6l-0.1,3.3c-2.1,2.1-3.9,3.6-5.4,4.7
			s-3,1.6-4.4,1.6c-0.2,0-0.4,0-0.6,0S457.2,451.9,456.9,451.9z M453.6,448.9c0-0.4-0.1-0.7-0.1-1.1s0-0.7,0-1
			c0-1.2,0.3-2.5,0.8-4.1c0.5-1.6,1.4-3.4,2.5-5.4c-1.7,0.7-3.3,1.6-4.6,2.6c-1.3,1-2.4,2-3.3,3.1s-1.5,2.1-2,3.1
			c-0.5,1-0.7,1.9-0.7,2.7c0,1.7,0.9,2.6,2.6,2.6c0.7,0,1.5-0.2,2.3-0.6C452,450.3,452.8,449.7,453.6,448.9z"/>
		<path class="st1" d="M496.2,450.8c0.2,0.2,0.3,0.3,0.4,0.4c0.1,0.1,0.1,0.2,0.1,0.4c0,0.4-0.2,0.9-0.5,1.6
			c-0.4,0.7-0.8,1.5-1.5,2.5c-0.9,1.4-1.6,2.4-2.3,3.1c-0.7,0.7-1.4,1.1-2.1,1.1c-0.5,0-0.9-0.2-1.2-0.6c-0.3-0.4-0.5-0.9-0.5-1.7
			c0-0.3,0.1-0.9,0.3-1.7s0.6-1.8,1.1-3c0.5-1.2,1.2-2.5,2-4.1c0.8-1.5,1.8-3.2,3-5c-0.9-0.7-1.6-1.3-2-1.9c-0.5-0.6-0.7-1.2-0.7-2
			c0-0.8,0.2-1.5,0.6-2.2c0.4-0.7,1-1.4,1.8-2c0.8-0.6,1.8-1.1,3-1.5s2.5-0.8,4-1c1.2-1.8,2.8-3.9,4.6-6.3s4.2-5.2,6.9-8.3
			c-3.5,0.2-6.5,0.6-9.2,1.1c-2.7,0.5-5,1.1-6.9,1.6s-3.5,1-4.6,1.5c-1.2,0.4-1.9,0.6-2.2,0.6c-0.2,0-0.3-0.3-0.3-0.9
			c0-0.2,0.4-1,1.1-2.4c0.8-1.5,1.9-3.4,3.6-5.7c0.2-0.3,0.4-0.6,0.6-0.8s0.4-0.5,0.6-0.6c0.2-0.2,0.5-0.4,0.8-0.5
			c0.3-0.2,0.7-0.3,1.2-0.5c1.2-0.4,2.6-0.8,4.1-1.2s3-0.7,4.5-0.9s3.1-0.5,4.7-0.6s3.1-0.2,4.6-0.2c3.2,0,6,0.3,8.4,1
			c2.4,0.6,4.5,1.6,6.2,2.8s3,2.8,3.8,4.6c0.9,1.9,1.3,4,1.3,6.4c0,3.5-0.7,6.5-2.1,9.2c-1.4,2.7-3.4,5-6.1,6.8
			c-1.4,0.9-2.9,1.8-4.6,2.6s-3.4,1.4-5.2,1.9c-1.8,0.5-3.7,0.9-5.6,1.2c-1.9,0.3-3.9,0.4-5.9,0.4c-2.1,0-4.2-0.3-6.4-0.8
			L496.2,450.8z M504.8,437.4c1,0.2,2,0.3,3,0.4c0.9,0.1,1.9,0.1,2.8,0.1c2.6,0,5.1-0.4,7.5-1.1c2.4-0.8,4.6-1.8,6.5-3.2
			c1-0.8,2-1.5,2.8-2.4c0.8-0.8,1.5-1.7,2.1-2.5s1-1.6,1.3-2.3s0.4-1.4,0.4-1.9c0-3-4.9-4.9-14.6-5.5c-0.1,0.8-0.3,1.5-0.7,2.3
			c-0.4,0.8-0.9,1.6-1.5,2.5l-6.5,9.2c0.3,0,0.6-0.1,0.9-0.1s0.5,0,0.8,0c0.9,0,1.7,0,2.4,0.1s1.3,0.2,1.7,0.5
			c-0.6,0.3-1.5,0.6-2.7,0.9s-2.7,0.5-4.4,0.7L504.8,437.4z"/>
		<path class="st1" d="M550.6,445.5c-1.7,1.8-3.2,3.4-4.5,4.8s-2.6,2.6-3.7,3.6c-1.1,1-2.1,1.7-3.1,2.2c-0.9,0.5-1.9,0.8-2.8,0.8
			c-0.9,0-1.8-0.3-2.6-0.8c-0.8-0.5-1.5-1.2-2-2.1s-1-1.9-1.3-3.1c-0.3-1.2-0.5-2.4-0.5-3.8c0-1.3,0.2-2.9,0.7-4.7
			c0.5-1.8,1.2-3.8,2.2-6c1-2.2,2.2-4.4,3.6-6.8c1.5-2.4,3.2-4.7,5.2-7.1c1.3-1.5,2.5-2.9,3.6-4c1.1-1.2,2.2-2.1,3.1-2.9
			c0.9-0.8,1.8-1.3,2.5-1.7s1.3-0.6,1.7-0.6c0.4,0,0.7,0.2,1,0.6c0.2,0.4,0.4,1,0.4,1.7c0,2.2-0.4,4.4-1.1,6.7
			c-0.7,2.3-1.8,4.7-3.3,7s-3.3,4.7-5.5,7.1c-2.2,2.3-4.7,4.6-7.6,6.8v1.3c0,4,1.1,6.1,3.3,6.1c0.9,0,2.2-0.7,3.9-2.1
			c1.7-1.4,3.9-3.4,6.7-5.9L550.6,445.5z M538,438.1c2.9-2.3,5.4-5.1,7.3-8.2c1.9-3.2,3.5-6.8,4.7-10.8c-2.9,3.1-5.3,6.3-7.3,9.4
			C540.7,431.7,539.1,434.9,538,438.1z"/>
		<path class="st1" d="M564.5,446.5c-2.9,3.1-5.3,5.4-7.2,6.9c-1.9,1.5-3.3,2.3-4.3,2.3c-0.4,0-0.8-0.3-1.4-0.9s-1.2-1.3-1.7-2.3
			s-1.1-1.9-1.5-3.1c-0.4-1.1-0.6-2.2-0.6-3.3c0-1.3,0.5-2.9,1.6-4.6s2.7-3.4,4.8-5.2c1.5-1.3,3.2-2.4,4.9-3.4
			c1.7-1,3.6-1.8,5.7-2.6c1.9-0.7,3.5-1.2,4.7-1.5c1.2-0.3,1.9-0.4,2.2-0.4c0.4,0,0.8,0.1,1.2,0.4c0.4,0.2,0.7,0.5,1,0.9
			c0.3,0.4,0.5,0.7,0.7,1.1c0.2,0.4,0.3,0.7,0.3,1c0,0.2-0.1,0.4-0.3,0.6c-0.2,0.2-0.5,0.4-0.9,0.6l-1.2,0.7l1.1,2.3
			c0.3,0.5,0.4,0.9,0.4,1.3c0,0.5-0.3,1.1-0.8,1.9c-0.5,0.8-1.1,1.6-1.7,2.5s-1.2,1.9-1.7,2.9c-0.5,1-0.8,1.9-0.8,2.8
			c0,0.5,0.2,0.9,0.5,1.2c0.3,0.3,0.8,0.4,1.4,0.4c1.1,0,2.4-0.6,3.9-1.7c1.5-1.1,3.4-2.7,5.6-4.8l0.1,2.8c-1.7,1.8-3.2,3.5-4.6,4.9
			s-2.6,2.6-3.7,3.6c-1.1,1-2.2,1.7-3.1,2.3s-1.8,0.8-2.6,0.8c-0.5,0-0.9-0.1-1.4-0.3c-0.4-0.2-0.8-0.5-1.1-0.8s-0.6-0.8-0.8-1.2
			s-0.3-1-0.3-1.6c0-0.8,0.2-1.7,0.5-2.8S564.1,447.9,564.5,446.5z M569.8,435c-2.8,1.2-5.2,2.3-7.3,3.3c-2.1,1-3.9,2-5.3,3
			c-1.4,1-2.5,2-3.2,3.1c-0.7,1.1-1.1,2.2-1.1,3.5c0,0.5,0.1,1,0.3,1.3c0.2,0.3,0.5,0.5,0.8,0.5c0.4,0,1.1-0.3,2-0.9
			c1-0.6,2.1-1.5,3.5-2.7c1.4-1.2,2.9-2.7,4.7-4.6S567.9,437.5,569.8,435z"/>
		<path class="st1" d="M593.1,448c-1.5,1.4-2.9,2.7-4.2,3.7c-1.3,1-2.4,1.9-3.4,2.5c-1,0.7-1.8,1.1-2.4,1.5
			c-0.7,0.3-1.1,0.5-1.4,0.5c-0.4,0-0.8-0.2-1.3-0.7c-0.5-0.5-1-1.1-1.4-2c-0.4-0.8-0.8-1.7-1.1-2.7s-0.5-2-0.5-3.1
			c0-1.5,0.4-3.1,1.1-4.7c0.8-1.6,1.9-3.2,3.4-4.9c0.9-1.1,1.8-2,2.8-2.8c0.9-0.8,1.7-1.5,2.5-2.1c0.8-0.6,1.4-1,1.9-1.3
			c0.5-0.3,0.8-0.4,0.9-0.4c0.3,0,0.7,0.1,1,0.3c0.3,0.2,0.7,0.4,1,0.7c0.3,0.3,0.5,0.6,0.7,0.9c0.2,0.3,0.3,0.6,0.3,0.8
			c0,0.7-0.7,1.9-2.1,3.7c-1.4,1.8-3.5,3.9-6.5,6.3c-0.8,0.9-1.3,1.7-1.8,2.4c-0.4,0.7-0.6,1.4-0.6,2.1c0,0.2,0,0.4,0,0.5
			s0.1,0.2,0.3,0.2c0.2,0,0.8-0.3,1.9-0.9s2.5-1.6,4.2-2.9c1.8-1.3,3.9-3,6.2-5.1c2.4-2.1,5-4.6,7.9-7.6c0.7,0.1,1.3,0.4,1.6,0.9
			c0.3,0.5,0.5,1.2,0.5,2.1c0,0.8-0.3,1.7-0.9,2.8c-0.6,1.1-1.5,2.5-2.6,4.1c-1.1,1.6-2.4,3.6-3.9,5.8c-1.5,2.3-3.2,4.9-4.9,8
			c2.8-2.1,5.5-4.4,8-6.7c2.5-2.4,5-4.9,7.3-7.5v3c-4.1,4.5-7.6,8.5-10.5,11.9c-2.9,3.4-5.4,6.3-7.3,8.6c-1.9,2.3-3.4,4.1-4.4,5.3
			c-1,1.2-1.6,1.8-1.9,1.8c-0.1,0-0.3-0.2-0.5-0.5c-0.2-0.3-0.4-0.7-0.6-1.2c-0.2-0.5-0.3-1-0.5-1.6c-0.1-0.6-0.2-1.1-0.2-1.7
			c0-0.3,0.2-1,0.6-2.1s1.1-2.5,2-4.2c0.9-1.7,2.1-3.7,3.5-6.1S591.1,450.9,593.1,448z"/>
	</g>
	<g>
		<g>
			<g>
				<path class="st1" d="M304.2,295.2c8.4-0.9,15.8-1.9,22.3-2.9c6.5-1,12-1.8,16.5-2.6c4.5-0.8,8.1-1.4,10.7-1.9
					c2.6-0.5,4.3-0.7,4.9-0.7c0.9,0,1.5,0.2,1.8,0.5c0.3,0.3,0.5,1,0.5,2c0,1.5-0.3,3.2-1,5.2c-0.7,1.9-1.6,3.8-2.8,5.7
					c-1.2,1.9-2.7,3.7-4.4,5.3c-1.7,1.6-3.6,2.9-5.7,3.8c-3.3,1.4-8,2.5-14.2,3.4c-6.2,0.9-13.7,1.3-22.5,1.3c-3.3,0-6.1-0.3-8.3-1
					c-2.2-0.7-4.1-1.9-5.6-3.7c-0.5-0.5-1-1.4-1.5-2.5c-0.5-1.1-1-2.4-1.4-3.7c-0.4-1.3-0.8-2.7-1.1-4.1c-0.3-1.4-0.4-2.6-0.4-3.6
					c0-4.9,3-10.4,9.1-16.5c6-6.1,15.2-12.7,27.5-19.7c5.8-3.3,11.3-6.2,16.3-8.6c5-2.4,9.4-4.7,13.1-6.8c3.7-2.1,6.6-4.3,8.7-6.5
					s3.2-4.7,3.2-7.7c0-1.1-0.7-1.9-2-2.5c-1.3-0.6-3.2-0.9-5.7-0.9c-2.3,0-5.1,0.3-8.2,0.8c-3.1,0.5-6.5,1.3-10,2.4
					c-3.5,1.1-7.1,2.4-10.8,4.1c-3.7,1.7-7.2,3.6-10.6,5.9c4.6,0.2,8.2,0.9,10.6,2c2.4,1.1,3.6,2.2,3.6,3.2c0,0.8-0.3,1.3-0.8,1.6
					c-0.5,0.3-1.4,0.5-2.5,0.5h-1.3c-1.8,0-3.6,0.1-5.3,0.4c-1.7,0.3-3.2,0.6-4.7,1c-1.4,0.4-2.6,0.7-3.7,1
					c-1.1,0.3-1.9,0.4-2.5,0.4h-1.8c-0.6,0-1.1,0-1.6-0.1c-0.5-0.1-1-0.3-1.4-0.6c-0.4-0.3-0.8-0.8-1-1.4c-0.3-0.6-0.4-1.4-0.4-2.5
					c0-5.2,1.1-10,3.4-14.4c2.3-4.4,5.5-8.2,9.8-11.5c4.3-3.2,9.5-5.8,15.6-7.6c6.2-1.8,13.1-2.7,20.9-2.7c3.9,0,7,0.2,9.3,0.7
					c2.3,0.4,4.1,1.6,5.4,3.3c1.6,2.2,2.9,4.9,3.7,8.3c0.9,3.3,1.3,7.2,1.3,11.6c0,3.5-0.5,6.6-1.4,9.2c-1,2.7-2.5,5.2-4.5,7.5
					c-2.1,2.3-4.7,4.6-8,6.9c-3.3,2.3-7.2,4.8-11.8,7.5c-3.5,2.1-7.2,4.2-11,6.5c-3.8,2.2-7.8,4.6-11.9,7.1
					c-4.1,2.5-8.4,5.2-12.8,8.1C313.2,288.6,308.7,291.7,304.2,295.2z"/>
				<path class="st1" d="M395,293.2c1.1,0.4,2.2,0.7,3.3,0.9c1,0.2,2,0.3,3,0.3c1.3,0,3-0.2,5.1-0.5c2.1-0.4,4.4-1,7-1.8
					c2.6-0.8,5.3-1.8,8.3-3.1c2.9-1.3,6-2.8,9-4.5c3.1-1.8,5.9-3.6,8.2-5.5c2.3-1.9,4.3-3.7,5.8-5.4c1.6-1.7,2.7-3.3,3.5-4.7
					c0.8-1.4,1.1-2.6,1.1-3.6c0-4-4-5.9-11.9-5.9c-3.5,0-6.9,0.3-10,0.8s-6,1.2-8.5,1.8c-2.5,0.7-4.7,1.3-6.5,1.8
					c-1.8,0.5-3.2,0.8-4.1,0.8s-1.9-0.6-2.9-1.9c-1-1.3-1.9-2.8-2.7-4.7c-0.8-1.9-1.5-4-2-6.2c-0.5-2.2-0.7-4.3-0.7-6.3
					c0-0.8,0.4-2,1.1-3.5c0.8-1.6,1.9-3.4,3.4-5.6c1.5-2.2,3.4-4.6,5.6-7.4c2.2-2.7,4.9-5.6,7.8-8.6c2.4-2.4,4.4-4.4,6-5.9
					c1.6-1.5,3.1-2.7,4.4-3.6c1.3-0.9,2.6-1.4,3.8-1.8c1.2-0.3,2.6-0.5,4.3-0.5c1.1,0,3.2,0.1,6.3,0.2c3.1,0.2,7.2,0.2,12.4,0.2
					c3.1,0,6.3-0.1,9.6-0.2c3.3-0.2,6.8-0.4,10.6-0.7c-0.6,1.8-1.3,3.6-2.1,5.4c-0.8,1.8-1.7,3.5-2.7,5.1c-1,1.6-2,3.2-3.1,4.7
					c-1.1,1.5-2.2,2.8-3.2,4c-1.1,1.3-3.1,2-5.9,2.2c-2.8,0.2-6.6,0.3-11.5,0.3h-19.2c-2.2,2.3-4.4,4.8-6.5,7.4
					c-2.2,2.7-4.4,5.6-6.6,8.9c4.2-1.4,8.2-2.3,11.9-2.9c3.7-0.6,7.1-0.9,10.1-0.9c3.4,0,6.5,0.5,9.3,1.6c2.8,1.1,5.2,2.6,7.2,4.7
					c2,2,3.6,4.4,4.7,7.3c1.1,2.9,1.7,6.1,1.7,9.6c0,3.2-0.4,6.5-1.2,9.7c-0.8,3.2-1.9,6.3-3.4,9.3c-1.5,3-3.2,5.8-5.3,8.4
					c-2.1,2.6-4.4,5-7,7c-3,2.3-6.4,4.4-10.2,6.3c-3.8,1.9-7.8,3.5-11.9,4.9c-4.2,1.4-8.4,2.4-12.8,3.2c-4.3,0.8-8.5,1.1-12.6,1.1
					c-2.6,0-4.8-0.2-6.6-0.6c-1.9-0.4-3.4-1.1-4.5-2.2c-1.2-1-2-2.4-2.6-4.2c-0.5-1.7-0.8-4-0.8-6.6s0.7-5.1,2.2-7.3s3.4-4,5.7-5.6
					c2.3-1.5,5-2.7,7.8-3.5c2.9-0.8,5.7-1.3,8.5-1.3c1.3,0,2.7,0.2,4.4,0.5L395,293.2z"/>
			</g>
			<g>
				<path class="st1" d="M525.3,308.2c-0.6,3.5-0.9,6.6-1,9.3c-0.1,2.7-0.1,4.9-0.1,6.6c0,2.5,0,4.7,0.1,6.7c0.1,2,0.1,3.8,0.1,5.5
					c0,4.1-1.3,6.1-3.8,6.1c-1.7,0-3.6-0.5-5.6-1.5c-2-1-3.9-2.3-5.7-4c-1.8-1.7-3.3-3.7-4.5-6c-1.2-2.3-1.8-4.6-1.8-7.1
					c0-1.7,0.3-3.8,0.8-6.4c0.5-2.6,1.2-5.6,1.9-9.2c-9.2-0.4-16.2-3.1-21-8.2c-4.8-5.1-7.2-12.4-7.2-22c0-7.4,1.3-14.6,4-21.5
					c2.7-7,6.5-13.3,11.5-19.1c5-5.7,11-10.7,18.1-14.8c7.1-4.2,15-7.1,23.7-8.8c2.3-5.1,4.3-9.4,6-13c1.7-3.5,3.5-6.4,5.4-8.6
					c1.9-2.2,4-3.7,6.3-4.7c2.3-0.9,5.2-1.4,8.7-1.4s5.2,0.8,5.2,2.4c0,0.6-0.3,1.5-0.8,2.7c-0.5,1.2-1.3,2.7-2.2,4.5l-7.8,15h5
					c6.5,0,11,1,13.5,3.1c2.5,2.1,3.7,5.7,3.7,10.9c0,6-1.7,10.6-5.1,14c-3.4,3.4-8.8,5.6-16.2,6.6l3.8-7.2
					c-1.5-0.2-2.8-0.4-3.8-0.6c-1-0.2-1.9-0.3-2.6-0.3c-2.5,0-5.3,0.3-8.5,0.9l-14.7,41.5c4.7-1.4,8.9-2.9,12.5-4.5
					c3.6-1.6,6.8-3,9.5-4.3c2.7-1.3,4.9-2.3,6.7-3.2c1.8-0.9,3.2-1.3,4.3-1.3c2.7,0,4.1,2.7,4.1,8.1c0,4.1-0.9,7.6-2.6,10.7
					c-1.7,3.1-4.3,5.9-7.7,8.4c-3.4,2.6-7.8,5-13.2,7.3C538.9,303.2,532.6,305.7,525.3,308.2z M524.2,243.7
					c-4.9,2.3-9.2,4.9-12.9,7.9c-3.7,3-6.7,6-9.1,8.9s-4.2,5.7-5.5,8.3c-1.2,2.6-1.8,4.5-1.8,6c0,2.6,0.9,4.7,2.7,6.2
					c1.8,1.5,4.6,2.2,8.4,2.2c0.3,0,0.9,0,1.7-0.1c0.9-0.1,2-0.1,3.5-0.1L524.2,243.7z"/>
			</g>
		</g>
		<line class="st2" x1="282" y1="157.4" x2="587.5" y2="157.4"/>
		<line class="st2" x1="282" y1="172.5" x2="587.5" y2="172.5"/>
		<line class="st2" x1="282" y1="354" x2="587.5" y2="354"/>
		<line class="st2" x1="282" y1="369.2" x2="587.5" y2="369.2"/>
	</g>
</g>
</svg>
