<?xml version="1.0" encoding="utf-8"?>
<!-- Generator: Adobe Illustrator 25.2.3, SVG Export Plug-In . SVG Version: 6.00 Build 0)  -->
<svg version="1.1" xmlns="http://www.w3.org/2000/svg" xmlns:xlink="http://www.w3.org/1999/xlink" x="0px" y="0px"
	 viewBox="0 0 709 613" style="enable-background:new 0 0 709 613;" xml:space="preserve">
<style type="text/css">
	.st0{fill:#F9D023;}
	.st1{fill:#FCB439;}
	.st2{opacity:0.5;fill:#FFFFFF;enable-background:new    ;}
	.st3{opacity:0.25;fill:#FFFFFF;enable-background:new    ;}
	.st4{fill:#FA921D;}
</style>
<g id="Layer_1">
	<g>
		<circle class="st0" cx="354.5" cy="306.5" r="224"/>
		<path class="st1" d="M223,170.7c75-72.6,194.6-70.7,267.3,4.3c14.1,14.5,25.2,30.7,33.7,47.8c13.7,27.7,20.1,57.9,19.4,88.1
			c-0.4,14-2.1,28-5.6,41.6c-3.9,15.6-9.8,31-17.8,45.4c-8.8,16.1-20.2,31.1-34,44.5c-72.6,70.3-187.2,70.7-260.3,2.6
			c-2.4-2.2-4.7-4.5-7-6.9c-9.3-9.6-17.3-19.9-24.2-30.7c-7.6-12-13.7-24.6-18.3-37.8c-10.1-28.9-13.2-59.8-8.9-89.7
			C173.1,239.6,191.6,201.1,223,170.7z"/>
		<circle class="st0" cx="354.5" cy="306.5" r="178"/>
		<path class="st2" d="M157.4,413.2l37.1-6c6.8,10.8,14.9,21.1,24.2,30.7c2.3,2.4,4.6,4.6,7,6.9l-41.9,6.6
			C173.5,439.5,164.7,426.6,157.4,413.2z"/>
		<path class="st2" d="M537.8,352.4l37-5.9c-2.7,15.2-7,30.2-13,44.6l-42,6.7C528,383.4,534,368.1,537.8,352.4z"/>
		<path class="st2" d="M131.5,285.5l35.9-5.7c-4.2,30-1.3,60.9,8.9,89.7l-35.1,5.6C131.8,346.1,128.7,315.5,131.5,285.5z"/>
		<path class="st2" d="M524,222.8l35.9-5.7c12.2,28.1,18.4,58.1,18.6,88.2l-35.2,5.5C544.1,280.7,537.7,250.5,524,222.8z"/>
		<path class="st3" d="M226.6,430.3l288-46c-8.4,17.3-19.8,33.6-34.2,48L274,465.3C256.8,456.6,240.8,445,226.6,430.3z"/>
		<path class="st3" d="M177,320.7l350.5-56c7.2,30.2,6.5,61.8-2.2,91.5l-317.8,50.9C189.6,380.9,179.5,351.1,177,320.7z"/>
	</g>
	<g id="g4151">
		<polygon id="polygon15" class="st4" points="326.8,407.1 243.2,408.7 239.6,208.4 		"/>
		<polygon id="polygon17" class="st4" points="385.8,406.1 469.4,404.6 465.8,204.3 		"/>
		<polygon id="polygon19" class="st4" points="390,246 354.9,332.8 299.4,207.4 334.3,206.7 350.9,246.7 		"/>
	</g>
</g>
<g id="Layer_2">
</g>
</svg>
