<?xml version="1.0" encoding="utf-8"?>
<!-- Generator: Adobe Illustrator 25.2.3, SVG Export Plug-In . SVG Version: 6.00 Build 0)  -->
<svg version="1.1" id="Layer_1" xmlns="http://www.w3.org/2000/svg" xmlns:xlink="http://www.w3.org/1999/xlink" x="0px" y="0px"
	 viewBox="0 0 709 613" style="enable-background:new 0 0 709 613;" xml:space="preserve">
<style type="text/css">
	.st0{fill:#F9D023;}
	.st1{fill:#FCB439;}
	.st2{opacity:0.5;fill:#FFFFFF;}
	.st3{opacity:0.25;fill:#FFFFFF;}
</style>
<g>
	<circle class="st0" cx="354.5" cy="306.5" r="224"/>
	<path class="st1" d="M165.5,306.5c0-104.4,84.6-189,189-189c20.2,0,39.6,3.2,57.8,9c29.4,9.4,55.6,25.8,76.8,47.3
		c9.8,10,18.6,21,26,32.9c8.5,13.7,15.4,28.6,20.2,44.4c5.4,17.5,8.3,36.1,8.3,55.4c0,101.1-79.4,183.7-179.2,188.8
		c-3.2,0.2-6.5,0.2-9.8,0.2c-13.3,0-26.3-1.4-38.9-4c-13.9-2.9-27.2-7.3-39.9-13.1c-27.8-12.8-52.1-32.1-70.6-56
		C180.3,390.3,165.5,350.2,165.5,306.5z"/>
	<circle class="st0" cx="354.5" cy="306.5" r="178"/>
	<path class="st2" d="M294.1,522.3l21.5-30.8c12.5,2.6,25.5,4,38.9,4c3.3,0,6.5-0.1,9.8-0.2L339.9,530
		C324.2,529,308.8,526.4,294.1,522.3z"/>
	<path class="st2" d="M515,206.7l21.5-30.7c9,12.5,16.8,26,23,40.3l-24.4,34.8C530.4,235.3,523.6,220.4,515,206.7z"/>
	<path class="st2" d="M184.3,452.1l20.9-29.8c18.6,23.9,42.8,43.3,70.6,56l-20.4,29.1C228.1,494,203.9,475,184.3,452.1z"/>
	<path class="st2" d="M412.3,126.5l20.9-29.8c28.7,10.8,54.6,27.2,76.3,48L489,173.8C467.9,152.3,441.7,135.9,412.3,126.5z"/>
	<path class="st3" d="M354.5,484.5l167.3-238.9c6.6,18.1,10.3,37.6,10.7,58L412.6,474.8C394.4,481.1,374.9,484.5,354.5,484.5z"/>
	<path class="st3" d="M241.3,443.9l203.6-290.8c26.7,15.8,48.9,38.3,64.2,65.2L324.6,482C293.3,476.7,264.8,463.2,241.3,443.9z"/>
</g>
</svg>
