<?xml version="1.0" encoding="utf-8"?>
<!-- Generator: Adobe Illustrator 27.0.0, SVG Export Plug-In . SVG Version: 6.00 Build 0)  -->
<svg version="1.1" id="Layer_1" xmlns="http://www.w3.org/2000/svg" xmlns:xlink="http://www.w3.org/1999/xlink" x="0px" y="0px"
	 viewBox="0 0 6056 3229" style="enable-background:new 0 0 6056 3229;" xml:space="preserve">
<style type="text/css">
	.st0{fill:#5AC3EF;}
	.st1{fill:#2E2E3A;}
	.st2{fill:#EE4423;}
	.st3{fill:#D0D2D3;}
	.st4{fill:#F1F2F3;}
</style>
<g>
	<path class="st0" d="M3202,1571.3l-1.6,1.8c-3.3,3.3-8.4,3.3-11.6,0c-3.3-3.1-3.3-8.3,0-11.6l1.6-1.8l6.8-6.8
		c-2.2-2.2-2.4-5.9-0.6-8.4c-0.9-1-1.5-2.2-1.9-3.4l-9.2,9.3l-1.8,1.6c-3.3,3.3-8.3,3.3-11.6,0c-3.3-3.1-3.3-8.3,0-11.6l1.8-1.6
		l5.8-5.9l0.1-0.1c-0.3,0-0.4-0.1-0.6-0.3c-2.1-2.1-2.1-5.5,0-7.7l1.2-1l22.2-22.4l1.2-1.2c2.1-2.1,5.5-2.1,7.6,0
		c0.1,0.1,0.3,0.3,0.4,0.6l7.6-7.4c-5.6-17.6-13.8-34.5-24.4-50.2c-6.7-9.8-14.4-19.1-23-27.7c-11.3-11.3-23.7-20.9-36.7-28.9
		c-73.9-44.6-171.4-35-235.4,28.9c-40.7,40.7-59.4,95.3-55.9,148.6c2.8-0.7,6.1,0,8.3,2.2c0.1,0.3,0.4,0.6,0.6,0.9l20.9-20.7
		l2.7-2.8c5.2-5.2,13.5-5.2,18.7,0c1.8,1.6,2.8,3.7,3.4,5.9l15.1-15l2.7-2.8c5.2-5.2,13.5-5.2,18.7,0c5.2,5.2,5.2,13.5,0,18.7
		l-2.8,2.7l-16.9,16.9c0.6,1.3,1,2.8,1,4.1c2.1,0.6,3.9,1.8,5.5,3.3c5.2,5.2,5.2,13.5,0,18.7l-2.8,2.8l-49.3,49.3
		c8.1,14.1,18.2,27.3,30.2,39.3c21.8,21.8,47.4,37.2,74.7,46.4l30.2-30.4l3.1-3c5.6-5.6,14.7-5.6,20.3,0c0.4,0.4,0.9,0.9,1.3,1.3
		l34.2-34.4l4.7-4.6c8.4-8.4,22.2-8.4,30.8,0c2.8,2.8,4.7,6.2,5.6,9.8l24.9-24.7l4.6-4.6c8.4-8.6,22.2-8.6,30.8,0
		c8.4,8.4,8.4,22.2,0,30.8l-32.6,32.4c1,2.2,1.6,4.6,1.8,6.8c1,0.4,2.2,0.9,3.3,1.3c12.1-7.6,23.7-16.6,34.4-27.3
		c2.2-2.2,4.4-4.6,6.7-7c11-12.1,20.1-25.3,27.6-39.3c15.7-29.9,23.1-63.1,21.9-96.1L3202,1571.3z M2987.8,1417.9l1-0.9l3.3-3.3
		c-0.1,0-0.3,0-0.4-0.1c-1-1.2-1-3.1,0-4.1l0.6-0.7l12.3-12.1l0.6-0.6c1.2-1.2,3-1.2,4.1,0c0.1,0.1,0.3,0.3,0.1,0.4l7.1-7.1l0.9-1
		c1.8-1.6,4.6-1.6,6.4,0c0.6,0.6,1,1.3,1.2,2.1l5-5l0.9-1c1.8-1.8,4.6-1.8,6.4,0s1.8,4.6,0,6.4l-1,0.9l-5.8,5.8
		c0.3,0.4,0.4,0.9,0.4,1.3v0.1c0.7,0,1.3,0.4,1.9,0.9c1.6,1.8,1.6,4.6,0,6.4l-1,0.9l-27.7,27.9l-0.9,0.9c-1.8,1.8-4.6,1.8-6.4,0
		c-1.8-1.8-1.8-4.6,0-6.2l4.7-4.7c-1.3-1.2-1.5-3.1-0.3-4.4c-0.6-0.6-1-1.3-1.2-2.1l-5,5l-0.9,1c-1.8,1.8-4.6,1.8-6.4,0
		S2986,1419.7,2987.8,1417.9z"/>
	<path class="st1" d="M3141.8,1556.3c33.4-33.4-12.2-78.9-45.5-45.5c-33.4,33.3-50.2,70.6-37.7,83.2
		C3071.2,1606.5,3108.4,1589.6,3141.8,1556.3z"/>
	<path class="st1" d="M3069.7,1484.2c33.4-33.4-12.1-78.9-45.5-45.5c-33.4,33.3-50.2,70.6-37.6,83.2
		C2999.1,1534.4,3036.3,1517.5,3069.7,1484.2z"/>
	<path class="st2" d="M2929.8,1650.1c3.9-1.6,56.3-5.2,70.8-19.8c13.8-13.8,4.5-33.9,19.6-31.8c14.3,2,6.7,21.7,5.7,25.7
		c29.3-18.5,38.8-35.5,38.8-58.8c0-49.1-59.7-62.4-83.1-39.1c-10.1,10.1-11.2,20.1-11.2,20.1s25.1-13,27.6,4.3
		c2.4,17.3-19.3,5.8-34.3,20.8c-15,15-16.2,31.7-16.2,31.7s28.3-15,30.8,2.3c2.4,17.3-24.5,9.8-32.5,17.8
		C2939,1630.1,2929.8,1650.1,2929.8,1650.1z"/>
	<g>
		<path class="st3" d="M3271.6,1308.9c-6.6-6.6-97.9,8.4-163.4,74c-45.8,45.8-75.7,95.2-81.2,129.3c19.5,3.7,37.9,17.6,41.2,41.4
			c34.2-5.5,83.6-35.4,129.4-81.2C3263.2,1406.7,3278.2,1315.5,3271.6,1308.9z"/>
	</g>
	<path class="st1" d="M3251.5,1393.5c19.8-43.3,24.1-80.5,20-84.7c-4.1-4.1-41.1,0.2-84.3,19.9
		C3161.2,1340.6,3239.7,1419.5,3251.5,1393.5z"/>
	<path class="st4" d="M3176.3,1444c11-11.1,11-29,0-40c-11.1-11-29-11-40,0c-11.1,11-11.1,29,0,40
		C3147.3,1455,3165.2,1455,3176.3,1444z"/>
	<path class="st1" d="M3108.5,1472c-19.1-19.1-101.7,74.4-88.1,88C3034,1573.6,3127.6,1491.1,3108.5,1472z"/>
	<g>
		<path class="st4" d="M2935.1,1550.5l-2.8,2.7l-16.9,16.9c0.6,1.3,1,2.8,1,4.1c2.1,0.6,3.9,1.8,5.5,3.3c5.2,5.2,5.2,13.5,0,18.7
			l-2.8,2.8l-49.3,49.3c-2.8-4.9-5.3-9.8-7.7-14.8c-1.2-2.2-2.2-4.6-3.1-6.8c-0.4-1.2-0.9-2.2-1.3-3.4c-1.5-3.6-2.8-7.1-4-10.7
			c-0.7-2.2-1.5-4.4-2.1-6.5c-0.7-2.5-1.3-4.9-1.9-7.3c-1.2-4.7-2.2-9.5-3.1-14.4c-0.4-3-0.9-6.1-1.3-9.3c-0.4-3.6-0.7-7.3-1-11
			c2.8-0.7,6.1,0,8.3,2.2c0.1,0.3,0.4,0.6,0.6,0.9l20.9-20.7l2.7-2.8c5.2-5.2,13.5-5.2,18.7,0c1.8,1.6,2.8,3.7,3.4,5.9l15.1-15
			l2.7-2.8c5.2-5.2,13.5-5.2,18.7,0C2940.2,1537,2940.2,1545.3,2935.1,1550.5z"/>
	</g>
	<g>
		<path class="st4" d="M3228.2,1545.1l-26.2,26.2l-1.6,1.8c-3.3,3.3-8.4,3.3-11.6,0c-3.3-3.1-3.3-8.3,0-11.6l1.6-1.8l6.8-6.8
			c-2.2-2.2-2.4-5.9-0.6-8.4c-0.9-1-1.5-2.2-1.9-3.4l-9.2,9.3l-1.8,1.6c-3.3,3.3-8.3,3.3-11.6,0c-3.3-3.1-3.3-8.3,0-11.6l1.8-1.6
			l5.8-5.9l0.1-0.1c-0.3,0-0.4-0.1-0.6-0.3c-2.1-2.1-2.1-5.5,0-7.7l1.2-1l22.2-22.4l1.2-1.2c2.1-2.1,5.5-2.1,7.6,0
			c0.1,0.1,0.3,0.3,0.4,0.6l7.6-7.4c1.3,4.4,2.7,9,3.7,13.5c0.4,1.6,0.7,3.3,1,4.7c0.3,1.5,0.6,3,0.9,4.4c0.4,2.7,0.9,5.2,1.3,7.9
			c0.1,0.9,0.1,1.6,0.3,2.5c0.3,1.9,0.4,3.7,0.6,5.6C3227.9,1536.4,3228.1,1540.8,3228.2,1545.1z"/>
	</g>
	<g>
		<path class="st4" d="M3037.3,1390.6l-1,0.9l-5.8,5.8c0.3,0.4,0.4,0.9,0.4,1.3v0.1c0.7,0,1.3,0.4,1.9,0.9c1.6,1.8,1.6,4.6,0,6.4
			l-1,0.9l-27.7,27.9l-0.9,0.9c-1.8,1.8-4.6,1.8-6.4,0c-1.8-1.8-1.8-4.6,0-6.2l4.7-4.7c-1.3-1.2-1.5-3.1-0.3-4.4
			c-0.6-0.6-1-1.3-1.2-2.1l-5,5l-0.9,1c-1.8,1.8-4.6,1.8-6.4,0s-1.8-4.6,0-6.4l1-0.9l3.3-3.3c-0.1,0-0.3,0-0.4-0.1
			c-1-1.2-1-3.1,0-4.1l0.6-0.7l12.3-12.1l0.6-0.6c1.2-1.2,3-1.2,4.1,0c0.1,0.1,0.3,0.3,0.1,0.4l7.1-7.1l0.9-1c1.8-1.6,4.6-1.6,6.4,0
			c0.6,0.6,1,1.3,1.2,2.1l5-5l0.9-1c1.8-1.8,4.6-1.8,6.4,0S3039,1388.8,3037.3,1390.6z"/>
	</g>
	<g>
		<path class="st4" d="M3165.3,1674.2l-32.6,32.4c1,2.2,1.6,4.6,1.8,6.8c1,0.4,2.2,0.9,3.3,1.3c-1.2,0.7-2.4,1.5-3.6,2.2
			c-5.3,3.3-11,6.2-16.7,8.9c-2.2,1-4.7,2.1-7.1,3.1c-3.3,1.3-6.5,2.7-9.8,3.9c-0.9,0.3-1.8,0.6-2.7,0.9c-4.3,1.5-8.6,2.7-13,3.9
			c-6.4,1.6-12.7,3-19.3,4c-2.1,0.3-4.3,0.6-6.4,0.9c-2.7,0.3-5.3,0.6-7.9,0.7c-0.6,0.1-1.2,0.1-1.6,0.1c-1.2,0.1-2.4,0.1-3.6,0.3
			c-4.1,0.1-8.3,0.3-12.3,0.1c-8.9,0-17.6-0.7-26.5-2.1c-4.9-0.7-9.9-1.6-14.8-2.8c-6.1-1.5-12-3.1-17.9-5l30.2-30.4l3.1-3
			c5.6-5.6,14.7-5.6,20.3,0c0.4,0.4,0.9,0.9,1.3,1.3l34.2-34.4l4.7-4.6c8.4-8.4,22.2-8.4,30.8,0c2.8,2.8,4.7,6.2,5.6,9.8l24.9-24.7
			l4.6-4.6c8.4-8.6,22.2-8.6,30.8,0C3173.7,1651.8,3173.7,1665.6,3165.3,1674.2z"/>
	</g>
</g>
</svg>
