<?xml version="1.0" encoding="utf-8"?>
<!-- Generator: Adobe Illustrator 27.0.0, SVG Export Plug-In . SVG Version: 6.00 Build 0)  -->
<svg version="1.1" id="Layer_1" xmlns="http://www.w3.org/2000/svg" xmlns:xlink="http://www.w3.org/1999/xlink" x="0px" y="0px"
	 viewBox="0 0 30 30" style="enable-background:new 0 0 30 30;" xml:space="preserve">
<style type="text/css">
	.st0{fill:#41BEEE;}
	.st1{fill:#D1D2D4;}
	.st2{fill:#414098;}
	.st3{fill:#808284;}
</style>
<g>
	<g>
		<g>
			<path class="st0" d="M27.8,12.6c0,0.1,0,0.1,0,0.2C27.8,12.7,27.8,12.7,27.8,12.6C27.8,12.6,27.8,12.6,27.8,12.6z M27.6,19.5
				c0,0.1-0.1,0.3-0.1,0.4C27.5,19.8,27.5,19.7,27.6,19.5z M27.2,20.6c0,0.1-0.1,0.2-0.1,0.3C27.1,20.8,27.2,20.7,27.2,20.6z
				 M26.7,21.7C26.7,21.7,26.7,21.7,26.7,21.7c0,0,0,0.1-0.1,0.1C26.7,21.7,26.7,21.7,26.7,21.7z M26.6,21.9
				c-0.1,0.1-0.1,0.3-0.2,0.4C26.4,22.2,26.5,22,26.6,21.9z M26,22.9c0,0.1-0.1,0.1-0.1,0.2C25.9,23,25.9,22.9,26,22.9z M22.4,4.9
				c0,0,0.1,0.1,0.1,0.1C22.5,4.9,22.5,4.9,22.4,4.9C22.4,4.9,22.4,4.9,22.4,4.9z M22.2,4.7c0,0,0.1,0.1,0.1,0.1
				C22.3,4.8,22.3,4.8,22.2,4.7C22.2,4.7,22.2,4.7,22.2,4.7z M18.8,15.8c0,0,0-0.1,0-0.1C18.8,15.7,18.8,15.7,18.8,15.8
				C18.8,15.8,18.8,15.8,18.8,15.8z M18.8,16.1C18.8,16.1,18.8,16.1,18.8,16.1C18.8,16.1,18.8,16.1,18.8,16.1
				C18.8,16.1,18.8,16.1,18.8,16.1z M18.7,16.4C18.7,16.4,18.7,16.3,18.7,16.4C18.7,16.4,18.7,16.4,18.7,16.4
				C18.7,16.4,18.7,16.4,18.7,16.4z M18.7,16.6c0,0,0-0.1,0-0.1c0,0,0,0,0-0.1c0,0,0,0,0,0.1C18.7,16.5,18.7,16.5,18.7,16.6z
				 M18.4,14C18.4,14,18.4,14,18.4,14C18.4,14,18.4,14,18.4,14C18.4,14,18.4,14,18.4,14z M17.8,18.1L17.8,18.1
				C17.7,18.2,17.7,18.2,17.8,18.1C17.7,18.2,17.7,18.2,17.8,18.1z M16.4,12.3C16.5,12.3,16.5,12.3,16.4,12.3
				C16.5,12.3,16.5,12.3,16.4,12.3C16.4,12.3,16.4,12.3,16.4,12.3z M14.1,19c-0.1,0-0.1,0-0.2-0.1C14,18.9,14,19,14.1,19z
				 M13.4,18.7C13.4,18.7,13.4,18.7,13.4,18.7C13.4,18.7,13.4,18.7,13.4,18.7C13.4,18.7,13.4,18.7,13.4,18.7z M12.7,18.1
				C12.8,18.2,12.8,18.2,12.7,18.1C12.8,18.2,12.8,18.2,12.7,18.1L12.7,18.1z M12.6,18c-0.1-0.1-0.1-0.1-0.1-0.2
				C12.5,17.9,12.5,17.9,12.6,18z M12.4,17.8c0-0.1-0.1-0.1-0.1-0.2C12.3,17.7,12.4,17.7,12.4,17.8z M11.7,15.2
				C11.7,15.2,11.7,15.2,11.7,15.2C11.7,15.2,11.7,15.2,11.7,15.2C11.7,15.2,11.7,15.2,11.7,15.2z M11.7,15.4
				C11.7,15.4,11.7,15.4,11.7,15.4C11.7,15.4,11.7,15.4,11.7,15.4C11.7,15.4,11.7,15.4,11.7,15.4z M8.4,26.6
				c-0.1-0.1-0.2-0.1-0.3-0.2C8.2,26.5,8.3,26.6,8.4,26.6z M3.3,10.7C3.3,10.6,3.3,10.6,3.3,10.7c0-0.1,0.1-0.2,0.1-0.2
				C3.4,10.5,3.4,10.6,3.3,10.7C3.3,10.6,3.3,10.7,3.3,10.7z M2.9,12c0-0.1,0-0.1,0.1-0.2c0,0.1-0.1,0.3-0.1,0.4
				C2.8,12.1,2.8,12.1,2.9,12z"/>
		</g>
	</g>
	<g>
		<path class="st0" d="M28.2,15.5C28.2,15.5,28.2,15.4,28.2,15.5c0-0.1,0-0.1,0-0.2c0,0,0-0.1,0-0.1c0,0,0-0.1,0-0.1
			c0,0,0-0.1,0-0.1c0-0.1,0-0.2,0-0.2c0,0,0-0.1,0-0.1c0,0,0-0.1,0-0.1c0-0.1,0-0.1,0-0.2c0,0,0-0.1,0-0.1c0,0,0-0.1,0-0.1
			c0,0,0-0.1,0-0.1c0,0,0-0.1,0-0.1c0-0.1,0-0.1,0-0.2c0-0.1,0-0.2,0-0.3c0,0,0-0.1,0-0.1c0,0,0-0.1,0-0.1c0-0.1,0-0.2-0.1-0.3
			c0,0,0-0.1,0-0.1c0,0,0-0.1,0-0.1c0,0,0,0,0,0c0-0.1,0-0.1,0-0.2c0,0,0,0,0,0c0-0.1,0-0.1,0-0.2c0,0,0,0,0,0c0,0,0-0.1,0-0.1
			c0,0,0-0.1,0-0.1c0,0,0-0.1,0-0.1c0,0,0,0,0-0.1c0-0.1,0-0.2-0.1-0.2c0-0.1-0.1-0.3-0.1-0.4c0,0,0-0.1,0-0.1c0-0.1,0-0.1-0.1-0.2
			c0,0,0-0.1,0-0.1c0,0,0-0.1-0.1-0.1c0,0,0-0.1-0.1-0.1c0-0.1-0.1-0.2-0.1-0.3c0,0,0-0.1-0.1-0.1c0,0,0-0.1-0.1-0.1
			c0-0.1-0.1-0.2-0.1-0.3c0,0,0-0.1-0.1-0.1c0,0,0-0.1-0.1-0.1c0,0,0-0.1-0.1-0.1c0,0,0,0,0,0c0,0,0-0.1-0.1-0.1
			c-0.1-0.1-0.1-0.3-0.2-0.4c0-0.1-0.1-0.1-0.1-0.2c0-0.1-0.1-0.1-0.1-0.2c0-0.1-0.1-0.1-0.1-0.2c0-0.1-0.1-0.1-0.1-0.2c0,0,0,0,0,0
			c0,0-0.1-0.1-0.1-0.1c0,0,0,0,0,0c0,0-0.1-0.1-0.1-0.1c0-0.1-0.1-0.1-0.1-0.2c0,0-0.1-0.1-0.1-0.1c0,0,0,0-0.1-0.1
			c0,0,0-0.1-0.1-0.1c0,0,0,0,0,0c0,0-0.1-0.1-0.1-0.1c0,0,0,0,0,0c0,0-0.1-0.1-0.1-0.1c0,0,0,0-0.1-0.1c0,0-0.1-0.1-0.1-0.1
			c0,0,0,0,0,0c0,0-0.1-0.1-0.1-0.1c0,0-0.1-0.1-0.1-0.1c0,0-0.1-0.1-0.1-0.1c0,0-0.1-0.1-0.1-0.1c-0.1-0.1-0.1-0.1-0.2-0.2
			c0,0-0.1-0.1-0.1-0.1c0,0-0.1-0.1-0.1-0.1c0,0,0,0-0.1-0.1c0,0-0.1,0-0.1-0.1c-0.1-0.1-0.2-0.2-0.3-0.3c0,0-0.1-0.1-0.1-0.1
			c0,0-0.1-0.1-0.1-0.1c0,0,0,0,0,0c0,0,0,0,0,0c0,0-0.1-0.1-0.1-0.1c0,0-0.1-0.1-0.1-0.1c0,0-0.1-0.1-0.1-0.1c0,0-0.1,0-0.1-0.1
			c0,0-0.1-0.1-0.1-0.1c0,0-0.1-0.1-0.1-0.1c0,0-0.1-0.1-0.1-0.1c0,0-0.1-0.1-0.1-0.1c0,0-0.1-0.1-0.1-0.1c0,0-0.1-0.1-0.1-0.1
			c-2.2-1.4-4.8-2-7.4-1.9c-0.1,0-0.2,0-0.3,0c-1.6,0.1-3.2,0.5-4.7,1.2C9.6,4,9.5,4,9.4,4.1h0c-0.3,0.2-0.7,0.4-1,0.6
			C8.3,4.7,8.2,4.8,8.2,4.8c0,0,0,0,0,0C8.1,4.9,8,4.9,8,5C7.9,5,7.9,5,7.9,5c0,0,0,0-0.1,0C7.7,5.2,7.5,5.3,7.4,5.4
			c0,0-0.1,0.1-0.1,0.1c0,0-0.1,0.1-0.1,0.1C7,5.6,7,5.7,7,5.7c0,0-0.1,0-0.1,0.1C6.8,5.9,6.6,6,6.5,6.1c0,0-0.1,0.1-0.1,0.1
			c0,0,0,0,0,0c0,0-0.1,0.1-0.1,0.1c0,0-0.1,0.1-0.1,0.1c0,0-0.1,0.1-0.1,0.1C5.9,6.7,5.9,6.7,5.8,6.8c0,0.1-0.1,0.1-0.1,0.2
			C5.6,7,5.6,7.1,5.5,7.2c0,0-0.1,0.1-0.1,0.1l0,0C5.3,7.4,5.2,7.5,5.1,7.6C5.1,7.7,5,7.7,5,7.8c0,0,0,0.1-0.1,0.1c0,0,0,0,0,0.1
			c0,0,0,0.1-0.1,0.1c0,0,0,0.1-0.1,0.1c0,0-0.1,0.1-0.1,0.1c0,0,0,0,0,0c0,0.1-0.1,0.1-0.1,0.2c0,0.1-0.1,0.1-0.1,0.2
			c0,0.1-0.1,0.1-0.1,0.2c0,0.1-0.1,0.1-0.1,0.2c0,0.1-0.1,0.1-0.1,0.2c0,0,0,0.1-0.1,0.1c0,0,0,0.1-0.1,0.1c0,0,0,0,0,0
			c0,0,0,0.1-0.1,0.1c0,0.1-0.1,0.1-0.1,0.2c0,0,0,0,0,0.1C3.7,9.9,3.6,10,3.6,10.1c0,0,0,0.1-0.1,0.1c0,0,0,0,0,0c0,0,0,0.1,0,0.1
			c0,0,0,0.1,0,0.1c0,0,0,0.1,0,0.1c0,0,0,0.1,0,0.1c0,0,0,0,0,0c0,0,0,0.1,0,0.1c0,0,0,0,0,0c0,0,0,0.1-0.1,0.2c0,0,0,0,0,0
			c0,0.1,0,0.1-0.1,0.2c0,0.1,0,0.1-0.1,0.2c0,0.1,0,0.1-0.1,0.2c0,0,0,0,0,0c0,0,0,0.1,0,0.1c0,0,0,0.1,0,0.1v0
			c0,0.1,0,0.1-0.1,0.2c0,0.1,0,0.2-0.1,0.2c0,0,0,0,0,0c0,0,0,0.1,0,0.1c0,0,0,0.1,0,0.1c0,0,0,0.1,0,0.1c0,0,0,0.1,0,0.1
			c0,0.1,0,0.2-0.1,0.3c0,0,0,0.1,0,0.1c0,0,0,0.1,0,0.1c0,0,0,0.1,0,0.1c0,0,0,0.1,0,0.1c0,0.2-0.1,0.4-0.1,0.6c0,0.1,0,0.1,0,0.2
			c0,0.1,0,0.1,0,0.2c0,0,0,0.1,0,0.1c0,0,0,0.1,0,0.1c0,0,0,0,0,0c0,0.1,0,0.1,0,0.2c0,0.1,0,0.1,0,0.2c0,0.1,0,0.1,0,0.2v0
			c0,0.1,0,0.1,0,0.2c0,0,0,0,0,0c0,0.1,0,0.1,0,0.2v0c0,0.1,0,0.1,0,0.2c0,0,0,0,0,0c0,0.1,0,0.1,0,0.2v0c0,0.1,0,0.1,0,0.2
			c0,0.1,0,0.1,0,0.2c0,0.1,0,0.1,0,0.2c0,0,0,0,0,0c0,0,0,0.1,0,0.1c0,0,0,0.1,0,0.1c0,0.1,0,0.1,0,0.2c0,0.1,0,0.1,0,0.2
			c0,0.2,0.1,0.5,0.1,0.7c0,0,0,0.1,0,0.1c0,0,0,0.1,0,0.1c0,0,0,0.1,0,0.1c0,0.1,0,0.2,0.1,0.3c0,0,0,0.1,0,0.1c0,0,0,0.1,0,0.1
			c0,0,0,0.1,0,0.1c0,0,0,0.1,0,0.1c0,0,0,0,0,0c0,0.1,0,0.2,0.1,0.2c0,0.1,0,0.1,0.1,0.2v0c0,0,0,0.1,0,0.1c0,0,0,0.1,0,0.1
			c0,0.1,0,0.1,0.1,0.2c0,0.1,0,0.1,0.1,0.2c0,0.1,0,0.1,0.1,0.2c0,0,0,0,0,0c0,0.1,0,0.1,0.1,0.2c0,0,0,0.1,0.1,0.1c0,0,0,0,0,0
			c0,0,0,0.1,0,0.1c0,0,0,0.1,0,0.1c0,0,0,0.1,0,0.1c0,0,0,0.1,0.1,0.1c0,0,0,0.1,0.1,0.1c0.1,0.1,0.1,0.3,0.2,0.4c0,0,0,0,0,0.1
			c0,0.1,0.1,0.1,0.1,0.2c0,0,0,0.1,0.1,0.1c0,0,0,0,0,0C4,21.9,4,22,4,22c0,0,0,0.1,0.1,0.1c0,0.1,0.1,0.1,0.1,0.2
			c0,0.1,0.1,0.1,0.1,0.2c0,0.1,0.1,0.1,0.1,0.2c0,0.1,0.1,0.1,0.1,0.2c0,0.1,0.1,0.1,0.1,0.2c0,0,0,0,0,0c0,0,0.1,0.1,0.1,0.1
			c0,0,0,0.1,0.1,0.1c0,0,0,0.1,0.1,0.1c0,0,0,0,0,0.1c0,0,0,0.1,0.1,0.1c0.1,0.1,0.1,0.1,0.2,0.2c0.1,0.1,0.2,0.2,0.3,0.3
			c0,0,0,0,0,0c0,0,0.1,0.1,0.1,0.1c0.1,0.1,0.1,0.1,0.2,0.2c0,0.1,0.1,0.1,0.1,0.2c0.1,0.1,0.1,0.1,0.2,0.2c0,0,0.1,0.1,0.1,0.1
			c0,0,0.1,0.1,0.1,0.1c0,0,0.1,0.1,0.1,0.1c0,0,0,0,0,0c0,0,0.1,0.1,0.1,0.1c0.1,0.1,0.2,0.2,0.4,0.3c0,0,0.1,0,0.1,0.1
			c0,0,0.1,0.1,0.1,0.1c0,0,0.1,0.1,0.1,0.1c0,0,0.1,0.1,0.1,0.1c0.1,0.1,0.3,0.2,0.4,0.3c0,0,0,0,0.1,0c0,0,0.1,0.1,0.1,0.1
			c0,0,0.1,0.1,0.1,0.1c0,0,0,0,0,0c0.1,0.1,0.2,0.1,0.3,0.2c0-0.4,0-0.6,0-0.6c0-0.6,0-1.1,0.1-1.6c0-0.2,0.1-0.3,0.1-0.5
			C8.8,23.6,8.9,23.3,9,23c0.2-0.4,0.4-0.8,0.7-1.1c0.1-0.1,0.1-0.2,0.2-0.2c0.2-0.2,0.5-0.4,0.7-0.6c0.7-0.5,1.4-0.8,2.2-1
			c0.8-0.2,1.6-0.3,2.4-0.3c0.9,0,1.7,0.1,2.4,0.3c0.3,0.1,0.7,0.2,1,0.4c0.1,0,0.2,0.1,0.2,0.1c0.3,0.2,0.6,0.3,0.9,0.5
			c0.7,0.5,1.2,1.1,1.6,1.9c0.4,0.8,0.6,1.8,0.6,3v0.6c0,0,0.1,0,0.1-0.1c0.1,0,0.2-0.1,0.2-0.2c0,0,0.1-0.1,0.1-0.1
			c0,0,0.1-0.1,0.1-0.1c0,0,0.1-0.1,0.1-0.1c0,0,0.1,0,0.1-0.1c0,0,0.1-0.1,0.1-0.1c0,0,0.1-0.1,0.1-0.1c0,0,0.1-0.1,0.1-0.1
			c0,0,0,0,0,0c0,0,0.1-0.1,0.1-0.1c0,0,0.1-0.1,0.1-0.1c0.1-0.1,0.2-0.2,0.3-0.3c0,0,0.1,0,0.1-0.1c0,0,0,0,0.1-0.1
			c0,0,0.1-0.1,0.1-0.1c0,0,0.1-0.1,0.1-0.1c0.1-0.1,0.1-0.1,0.2-0.2c0,0,0.1-0.1,0.1-0.1c0,0,0.1-0.1,0.1-0.1c0,0,0.1-0.1,0.1-0.1
			c0.1-0.1,0.1-0.1,0.2-0.2c0,0,0.1-0.1,0.1-0.1c0,0,0,0,0.1-0.1c0,0,0.1-0.1,0.1-0.1c0,0,0,0,0,0c0,0,0.1-0.1,0.1-0.1c0,0,0,0,0,0
			c0,0,0-0.1,0.1-0.1c0,0,0,0,0.1-0.1c0,0,0.1-0.1,0.1-0.1c0-0.1,0.1-0.1,0.1-0.2c0,0,0.1-0.1,0.1-0.1c0,0,0,0,0,0
			c0,0,0.1-0.1,0.1-0.1c0,0,0,0,0,0c0-0.1,0.1-0.1,0.1-0.2c0-0.1,0.1-0.1,0.1-0.2c0-0.1,0.1-0.1,0.1-0.2c0-0.1,0.1-0.1,0.1-0.2
			c0.1-0.1,0.1-0.3,0.2-0.4c0,0,0-0.1,0.1-0.1c0,0,0,0,0,0c0,0,0-0.1,0.1-0.1c0,0,0-0.1,0.1-0.1c0,0,0-0.1,0.1-0.1
			c0-0.1,0.1-0.2,0.1-0.3c0,0,0-0.1,0.1-0.1c0,0,0-0.1,0.1-0.1c0-0.1,0.1-0.2,0.1-0.3c0,0,0-0.1,0.1-0.1c0,0,0-0.1,0.1-0.1
			c0,0,0-0.1,0-0.1c0-0.1,0-0.1,0.1-0.2c0,0,0-0.1,0-0.1c0-0.1,0.1-0.3,0.1-0.4c0-0.1,0-0.2,0.1-0.2c0,0,0,0,0-0.1c0,0,0-0.1,0-0.1
			c0,0,0-0.1,0-0.1c0,0,0-0.1,0-0.1c0,0,0,0,0,0c0-0.1,0-0.1,0-0.2c0,0,0,0,0,0c0-0.1,0-0.1,0-0.2c0,0,0,0,0,0c0,0,0-0.1,0-0.1
			c0,0,0-0.1,0-0.1v0c0-0.1,0-0.2,0.1-0.3c0,0,0-0.1,0-0.1c0,0,0-0.1,0-0.1c0-0.1,0-0.2,0-0.3c0,0,0,0,0-0.1c0,0,0-0.1,0-0.1
			c0,0,0,0,0-0.1l0,0c0,0,0,0,0,0c0,0,0-0.1,0-0.1c0,0,0-0.1,0-0.1c0,0,0-0.1,0-0.1c0-0.1,0-0.1,0-0.2c0,0,0-0.1,0-0.1
			c0,0,0-0.1,0-0.1c0-0.1,0-0.2,0-0.2c0,0,0-0.1,0-0.1c0,0,0-0.1,0-0.1c0,0,0-0.1,0-0.1c0,0,0-0.1,0-0.1c0,0,0,0,0-0.1
			c0-0.1,0-0.1,0-0.2v0C28.2,15.6,28.2,15.5,28.2,15.5z M18.8,15.6c0,0,0,0.1,0,0.1c0,0,0,0,0,0c0,0.1,0,0.1,0,0.2c0,0,0,0.1,0,0.1
			c0,0,0,0,0,0c0,0,0,0,0,0c0,0,0,0,0,0c0,0,0,0,0,0c0,0,0,0,0,0c0,0,0,0.1,0,0.1c0,0,0,0,0,0c0,0,0,0,0,0c0,0,0,0,0,0
			c0,0,0,0,0,0.1c0,0,0,0.1,0,0.1c0,0,0,0.1,0,0.1c0,0,0,0,0,0c0,0,0,0,0,0c0,0,0,0,0,0.1c0,0,0,0.1,0,0.1c0,0,0,0.1-0.1,0.1
			c0,0,0,0,0,0.1c0,0,0,0,0,0.1c0,0,0,0,0,0c0,0,0,0,0,0.1c0,0,0,0,0,0c0,0,0,0,0,0c0,0,0,0,0,0c0,0,0,0,0,0c0,0,0,0,0,0
			c0,0,0,0,0,0c0,0,0,0,0,0.1c0,0,0,0,0,0c0,0,0,0.1-0.1,0.1c0,0,0,0,0,0c0,0,0,0.1-0.1,0.1c0,0,0,0.1-0.1,0.1c0,0,0,0.1-0.1,0.1
			c0,0,0,0.1-0.1,0.1c0,0,0,0-0.1,0.1c0,0,0,0-0.1,0.1v0c0,0,0,0-0.1,0.1c0,0,0,0-0.1,0.1c0,0,0,0-0.1,0.1c0,0,0,0-0.1,0l0,0
			c0,0,0,0-0.1,0c0,0,0,0-0.1,0c0,0,0,0,0,0c0,0,0,0-0.1,0c0,0,0,0-0.1,0c0,0,0,0,0,0c0,0,0,0-0.1,0c-0.1,0.1-0.2,0.1-0.3,0.2
			c0,0,0,0-0.1,0c0,0,0,0-0.1,0c0,0,0,0,0,0c0,0,0,0,0,0c0,0,0,0-0.1,0c0,0-0.1,0-0.1,0c0,0,0,0-0.1,0c0,0,0,0,0,0c0,0-0.1,0-0.1,0
			c0,0,0,0-0.1,0c0,0-0.1,0-0.1,0c0,0,0,0-0.1,0c0,0,0,0,0,0c0,0,0,0-0.1,0c0,0,0,0-0.1,0c0,0-0.1,0-0.1,0c0,0-0.1,0-0.1,0
			c0,0,0,0-0.1,0c0,0,0,0-0.1,0c0,0,0,0-0.1,0c0,0,0,0-0.1,0c0,0-0.1,0-0.1,0c0,0-0.1,0-0.1,0c0,0-0.1,0-0.1,0c0,0-0.1,0-0.1,0
			c0,0,0,0-0.1,0c0,0-0.1,0-0.1,0c0,0,0,0-0.1,0c0,0,0,0-0.1,0c-0.1,0-0.1,0-0.2,0c0,0-0.1,0-0.1,0c0,0,0,0,0,0c0,0,0,0-0.1,0
			c0,0-0.1,0-0.1,0c-0.1,0-0.2,0-0.3-0.1c0,0,0,0-0.1,0c0,0-0.1,0-0.1,0c-0.1,0-0.1,0-0.2-0.1c0,0-0.1,0-0.1,0c0,0,0,0-0.1,0
			c0,0,0,0-0.1,0c0,0,0,0,0,0c0,0-0.1,0-0.1,0c0,0-0.1,0-0.1,0c0,0-0.1,0-0.1,0c0,0,0,0,0,0c0,0,0,0,0,0c0,0-0.1,0-0.1-0.1
			c0,0,0,0,0,0c0,0,0,0-0.1,0c-0.1,0-0.1-0.1-0.2-0.1c0,0,0,0-0.1-0.1c0,0,0,0-0.1-0.1c0,0,0,0-0.1-0.1c0,0,0,0-0.1-0.1v0
			c0,0-0.1-0.1-0.1-0.1c0,0,0,0,0,0c0,0-0.1-0.1-0.1-0.1c-0.1-0.1-0.1-0.1-0.1-0.2c0-0.1-0.1-0.1-0.1-0.2c0,0,0-0.1,0-0.1
			c0,0,0,0,0,0c0,0,0-0.1,0-0.1c0,0,0,0,0-0.1c0,0,0,0,0,0c0-0.1-0.1-0.1-0.1-0.2c0,0,0,0,0-0.1c0,0,0-0.1,0-0.1c0,0,0,0,0,0
			c0-0.1-0.1-0.2-0.1-0.3c0,0,0-0.1,0-0.1c0-0.1-0.1-0.3-0.1-0.4c0,0,0,0,0,0c0,0,0,0,0,0c0,0,0,0,0,0c0,0,0,0,0-0.1c0,0,0,0,0,0
			c0,0,0,0,0,0c0,0,0,0,0,0c0,0,0-0.1,0-0.1c0-0.1,0-0.2,0-0.3c0,0,0-0.1,0-0.1c0,0,0,0,0,0c0,0,0,0,0,0c0,0,0,0,0,0c0,0,0,0,0-0.1
			c0,0,0,0,0,0c0,0,0,0,0,0c0,0,0,0,0,0c0-0.1,0-0.1,0-0.2c0-0.1,0-0.2,0.1-0.2c0,0,0,0,0,0c0,0,0,0,0-0.1c0,0,0,0,0-0.1
			c0,0,0-0.1,0-0.1c0,0,0-0.1,0-0.1c0,0,0,0,0,0c0,0,0-0.1,0-0.1c0,0,0,0,0-0.1c0,0,0,0,0-0.1c0-0.1,0-0.1,0.1-0.2c0,0,0,0,0,0
			c0,0,0,0,0-0.1c0,0,0-0.1,0-0.1c0,0,0,0,0,0c0,0,0-0.1,0-0.1c0-0.1,0.1-0.1,0.1-0.2c0-0.1,0.1-0.1,0.1-0.2c0,0,0-0.1,0.1-0.1
			c0,0,0,0,0,0c0,0,0.1-0.1,0.1-0.1l0,0c0,0,0,0,0.1-0.1c0,0,0,0,0.1-0.1c0,0,0,0,0.1-0.1c0,0,0,0,0.1-0.1c0.1-0.1,0.1-0.1,0.2-0.1
			c0,0,0,0,0.1,0c0,0,0,0,0,0c0,0,0.1,0,0.1-0.1c0,0,0,0,0,0c0,0,0,0,0,0c0,0,0.1,0,0.1,0c0,0,0.1,0,0.1,0c0,0,0.1,0,0.1,0
			c0,0,0,0,0,0c0,0,0,0,0.1,0c0,0,0,0,0.1,0c0,0,0.1,0,0.1,0c0.1,0,0.1,0,0.2-0.1c0,0,0.1,0,0.1,0c0,0,0,0,0.1,0
			c0.1,0,0.2,0,0.3-0.1c0,0,0.1,0,0.1,0c0,0,0.1,0,0.1,0c0,0,0,0,0,0c0,0,0.1,0,0.1,0c0.1,0,0.1,0,0.2,0c0,0,0,0,0.1,0
			c0,0,0,0,0.1,0c0,0,0.1,0,0.1,0c0,0,0,0,0.1,0c0,0,0.1,0,0.1,0c0,0,0.1,0,0.1,0c0,0,0.1,0,0.1,0c0,0,0,0,0,0c0,0,0.1,0,0.1,0
			c0,0,0,0,0,0c0,0,0,0,0.1,0c0,0,0,0,0.1,0c0,0,0,0,0,0c0,0,0,0,0.1,0c0,0,0,0,0.1,0c0,0,0.1,0,0.1,0c0,0,0.1,0,0.1,0
			c0,0,0,0,0.1,0c0,0,0,0,0.1,0c0,0,0,0,0,0c0,0,0,0,0,0c0,0,0,0,0,0c0,0,0.1,0,0.1,0c0,0,0,0,0.1,0c0,0,0.1,0,0.1,0c0,0,0,0,0,0
			c0,0,0,0,0.1,0c0,0,0,0,0.1,0c0,0,0,0,0.1,0c0,0,0,0,0,0c0,0,0,0,0,0c0,0,0,0,0.1,0c0,0,0,0,0.1,0c0.1,0,0.2,0.1,0.3,0.2
			c0,0,0,0,0.1,0c0,0,0,0,0,0c0,0,0,0,0.1,0c0,0,0,0,0.1,0c0,0,0,0,0,0c0,0,0,0,0.1,0c0,0,0,0,0.1,0l0,0c0,0,0,0,0.1,0
			c0,0,0.1,0.1,0.1,0.1c0,0,0,0,0.1,0.1l0,0c0,0,0.1,0.1,0.1,0.1c0,0,0.1,0.1,0.1,0.1c0,0,0,0.1,0.1,0.1c0,0,0,0.1,0.1,0.1
			c0,0,0,0.1,0.1,0.1c0,0,0,0,0,0c0,0,0,0.1,0.1,0.1c0,0,0,0,0,0c0,0,0,0,0,0.1c0,0,0,0,0,0c0,0,0,0,0,0c0,0,0,0,0,0c0,0,0,0,0,0
			c0,0,0,0,0,0c0,0,0,0,0,0c0,0,0,0,0,0.1c0,0,0,0,0,0c0,0,0,0,0,0.1c0,0,0,0,0,0.1c0,0,0,0.1,0.1,0.1c0,0,0,0.1,0,0.1
			c0,0,0,0,0,0.1c0,0,0,0,0,0.1c0,0,0,0.1,0,0.1c0,0,0,0.1,0,0.1c0,0,0,0,0,0.1c0,0,0,0,0,0c0,0,0,0,0,0c0,0,0,0.1,0,0.1
			c0,0,0,0.1,0,0.1c0,0,0,0,0,0c0,0,0,0,0,0c0,0,0,0,0,0c0,0,0,0,0,0c0,0,0,0.1,0,0.1c0,0.1,0,0.1,0,0.2c0,0,0,0,0,0
			C18.8,15.6,18.8,15.6,18.8,15.6L18.8,15.6z"/>
	</g>
	<g>
		<path class="st1" d="M18.8,15.6L18.8,15.6c0,0,0,0.1,0,0.1c0,0,0,0,0,0c0,0.1,0,0.1,0,0.2c0,0,0,0.1,0,0.1c0,0,0,0,0,0
			c0,0,0,0,0,0c0,0,0,0,0,0c0,0,0,0,0,0c0,0,0,0,0,0c0,0,0,0.1,0,0.1c0,0,0,0,0,0c0,0,0,0,0,0c0,0,0,0,0,0c0,0,0,0,0,0.1
			c0,0,0,0.1,0,0.1c0,0,0,0.1,0,0.1c0,0,0,0,0,0c0,0,0,0,0,0c0,0,0,0,0,0.1c0,0,0,0.1,0,0.1c0,0,0,0.1-0.1,0.1c0,0,0,0,0,0.1
			c0,0,0,0,0,0.1c0,0,0,0,0,0c0,0,0,0,0,0.1c0,0,0,0,0,0c0,0,0,0,0,0c0,0,0,0,0,0c0,0,0,0,0,0c0,0,0,0,0,0c0,0,0,0,0,0
			c0,0,0,0,0,0.1c0,0,0,0,0,0c0,0,0,0.1-0.1,0.1c0,0,0,0,0,0c0,0,0,0.1-0.1,0.1c0,0,0,0.1-0.1,0.1c0,0,0,0.1-0.1,0.1
			c0,0,0,0.1-0.1,0.1c0,0,0,0-0.1,0.1c0,0,0,0-0.1,0.1v0c0,0,0,0-0.1,0.1c0,0,0,0-0.1,0.1c0,0,0,0-0.1,0.1c0,0,0,0-0.1,0l0,0
			c0,0,0,0-0.1,0c0,0,0,0-0.1,0c0,0,0,0,0,0c0,0,0,0-0.1,0c0,0,0,0-0.1,0c0,0,0,0,0,0c0,0,0,0-0.1,0c-0.1,0.1-0.2,0.1-0.3,0.2
			c0,0,0,0-0.1,0c0,0,0,0-0.1,0c0,0,0,0,0,0c0,0,0,0,0,0c0,0,0,0-0.1,0c0,0-0.1,0-0.1,0c0,0,0,0-0.1,0c0,0,0,0,0,0c0,0-0.1,0-0.1,0
			c0,0,0,0-0.1,0c0,0-0.1,0-0.1,0c0,0,0,0-0.1,0c0,0,0,0,0,0c0,0,0,0-0.1,0c0,0,0,0-0.1,0c0,0-0.1,0-0.1,0c0,0-0.1,0-0.1,0
			c0,0,0,0-0.1,0c0,0,0,0-0.1,0c0,0,0,0-0.1,0c0,0,0,0-0.1,0c0,0-0.1,0-0.1,0c0,0-0.1,0-0.1,0c0,0-0.1,0-0.1,0c0,0-0.1,0-0.1,0
			c0,0,0,0-0.1,0c0,0-0.1,0-0.1,0c0,0,0,0-0.1,0c0,0,0,0-0.1,0c-0.1,0-0.1,0-0.2,0c0,0-0.1,0-0.1,0c0,0,0,0,0,0c0,0,0,0-0.1,0
			c0,0-0.1,0-0.1,0c-0.1,0-0.2,0-0.3-0.1c0,0,0,0-0.1,0c0,0-0.1,0-0.1,0c-0.1,0-0.1,0-0.2-0.1c0,0-0.1,0-0.1,0c0,0,0,0-0.1,0
			c0,0,0,0-0.1,0c0,0,0,0,0,0c0,0-0.1,0-0.1,0c0,0-0.1,0-0.1,0c0,0-0.1,0-0.1,0c0,0,0,0,0,0c0,0,0,0,0,0c0,0-0.1,0-0.1-0.1
			c0,0,0,0,0,0c0,0,0,0-0.1,0c-0.1,0-0.1-0.1-0.2-0.1c0,0,0,0-0.1-0.1c0,0,0,0-0.1-0.1c0,0,0,0-0.1-0.1c0,0,0,0-0.1-0.1v0
			c0,0-0.1-0.1-0.1-0.1c0,0,0,0,0,0c0,0-0.1-0.1-0.1-0.1c-0.1-0.1-0.1-0.1-0.1-0.2c0-0.1-0.1-0.1-0.1-0.2c0,0,0-0.1,0-0.1
			c0,0,0,0,0,0c0,0,0-0.1,0-0.1c0,0,0,0,0-0.1c0,0,0,0,0,0c0-0.1-0.1-0.1-0.1-0.2c0,0,0,0,0-0.1c0,0,0-0.1,0-0.1c0,0,0,0,0,0
			c0-0.1-0.1-0.2-0.1-0.3c0,0,0-0.1,0-0.1c0-0.1-0.1-0.3-0.1-0.4c0,0,0,0,0,0c0,0,0,0,0,0c0,0,0,0,0,0c0,0,0,0,0-0.1c0,0,0,0,0,0
			c0,0,0,0,0,0c0,0,0,0,0,0c0,0,0-0.1,0-0.1c0-0.1,0-0.2,0-0.3c0,0,0-0.1,0-0.1c0,0,0,0,0,0c0,0,0,0,0,0c0,0,0,0,0,0c0,0,0,0,0-0.1
			c0,0,0,0,0,0c0,0,0,0,0,0c0,0,0,0,0,0c0-0.1,0-0.1,0-0.2c0-0.1,0-0.2,0.1-0.2c0,0,0,0,0,0c0,0,0,0,0-0.1c0,0,0,0,0-0.1
			c0,0,0-0.1,0-0.1c0,0,0-0.1,0-0.1c0,0,0,0,0,0c0,0,0-0.1,0-0.1c0,0,0,0,0-0.1c0,0,0,0,0-0.1c0-0.1,0-0.1,0.1-0.2c0,0,0,0,0,0
			c0,0,0,0,0-0.1c0,0,0-0.1,0-0.1c0,0,0,0,0,0c0,0,0-0.1,0-0.1c0-0.1,0.1-0.1,0.1-0.2c0-0.1,0.1-0.1,0.1-0.2c0,0,0-0.1,0.1-0.1
			c0,0,0,0,0,0c0,0,0.1-0.1,0.1-0.1l0,0c0,0,0,0,0.1-0.1c0,0,0,0,0.1-0.1c0,0,0,0,0.1-0.1c0,0,0,0,0.1-0.1c0.1-0.1,0.1-0.1,0.2-0.1
			c0,0,0,0,0.1,0c0,0,0,0,0,0c0,0,0.1,0,0.1-0.1c0,0,0,0,0,0c0,0,0,0,0,0c0,0,0.1,0,0.1,0c0,0,0.1,0,0.1,0c0,0,0.1,0,0.1,0
			c0,0,0,0,0,0c0,0,0,0,0.1,0c0,0,0,0,0.1,0c0,0,0.1,0,0.1,0c0.1,0,0.1,0,0.2-0.1c0,0,0.1,0,0.1,0c0,0,0,0,0.1,0
			c0.1,0,0.2,0,0.3-0.1c0,0,0.1,0,0.1,0c0,0,0.1,0,0.1,0c0,0,0,0,0,0c0,0,0.1,0,0.1,0c0.1,0,0.1,0,0.2,0c0,0,0,0,0.1,0
			c0,0,0,0,0.1,0c0,0,0.1,0,0.1,0c0,0,0,0,0.1,0c0,0,0.1,0,0.1,0c0,0,0.1,0,0.1,0c0,0,0.1,0,0.1,0c0,0,0,0,0,0c0,0,0.1,0,0.1,0
			c0,0,0,0,0,0c0,0,0,0,0.1,0c0,0,0,0,0.1,0c0,0,0,0,0,0c0,0,0,0,0.1,0c0,0,0,0,0.1,0c0,0,0.1,0,0.1,0c0,0,0.1,0,0.1,0
			c0,0,0,0,0.1,0c0,0,0,0,0.1,0c0,0,0,0,0,0c0,0,0,0,0,0c0,0,0,0,0,0c0,0,0.1,0,0.1,0c0,0,0,0,0.1,0c0,0,0.1,0,0.1,0c0,0,0,0,0,0
			c0,0,0,0,0.1,0c0,0,0,0,0.1,0c0,0,0,0,0.1,0c0,0,0,0,0,0c0,0,0,0,0,0c0,0,0,0,0.1,0c0,0,0,0,0.1,0c0.1,0,0.2,0.1,0.3,0.2
			c0,0,0,0,0.1,0c0,0,0,0,0,0c0,0,0,0,0.1,0c0,0,0,0,0.1,0c0,0,0,0,0,0c0,0,0,0,0.1,0c0,0,0,0,0.1,0l0,0c0,0,0,0,0.1,0
			c0,0,0.1,0.1,0.1,0.1c0,0,0,0,0.1,0.1l0,0c0,0,0.1,0.1,0.1,0.1c0,0,0.1,0.1,0.1,0.1c0,0,0,0.1,0.1,0.1c0,0,0,0.1,0.1,0.1
			c0,0,0,0.1,0.1,0.1c0,0,0,0,0,0c0,0,0,0.1,0.1,0.1c0,0,0,0,0,0c0,0,0,0,0,0.1c0,0,0,0,0,0c0,0,0,0,0,0c0,0,0,0,0,0c0,0,0,0,0,0
			c0,0,0,0,0,0c0,0,0,0,0,0c0,0,0,0,0,0.1c0,0,0,0,0,0c0,0,0,0,0,0.1c0,0,0,0,0,0.1c0,0,0,0.1,0.1,0.1c0,0,0,0.1,0,0.1
			c0,0,0,0,0,0.1c0,0,0,0,0,0.1c0,0,0,0.1,0,0.1c0,0,0,0.1,0,0.1c0,0,0,0,0,0.1c0,0,0,0,0,0c0,0,0,0,0,0c0,0,0,0.1,0,0.1
			c0,0,0,0.1,0,0.1c0,0,0,0,0,0c0,0,0,0,0,0c0,0,0,0,0,0c0,0,0,0,0,0c0,0,0,0.1,0,0.1c0,0.1,0,0.1,0,0.2c0,0,0,0,0,0
			C18.8,15.6,18.8,15.6,18.8,15.6z"/>
	</g>
	<g>
		<g>
			<path class="st0" d="M27.8,18.6C27.8,18.6,27.8,18.6,27.8,18.6C27.8,18.6,27.8,18.6,27.8,18.6C27.8,18.7,27.8,18.7,27.8,18.6z
				 M27.6,11.7c0-0.1-0.1-0.3-0.1-0.4C27.5,11.5,27.5,11.6,27.6,11.7z M27.2,10.7c0-0.1-0.1-0.2-0.1-0.3
				C27.1,10.5,27.2,10.6,27.2,10.7z M26.6,9.5c0,0,0,0.1,0.1,0.1c0,0,0,0,0,0C26.7,9.6,26.7,9.5,26.6,9.5z M26.6,9.4
				c-0.1-0.1-0.1-0.3-0.2-0.4C26.4,9.1,26.5,9.2,26.6,9.4z M26,8.4c0-0.1-0.1-0.1-0.1-0.2C25.9,8.3,25.9,8.4,26,8.4z M22.5,26.4
				c0,0,0.1,0,0.1-0.1C22.5,26.3,22.5,26.4,22.5,26.4C22.4,26.4,22.4,26.4,22.5,26.4z M22.2,26.5c0.1,0,0.1-0.1,0.2-0.1
				C22.4,26.4,22.3,26.5,22.2,26.5C22.2,26.5,22.2,26.5,22.2,26.5z M18.8,15.5c0,0,0,0.1,0,0.1C18.8,15.6,18.8,15.6,18.8,15.5
				C18.8,15.5,18.8,15.5,18.8,15.5z M18.8,15.2C18.8,15.2,18.8,15.2,18.8,15.2C18.8,15.2,18.8,15.2,18.8,15.2
				C18.8,15.2,18.8,15.2,18.8,15.2z M18.7,14.9C18.7,14.9,18.7,14.9,18.7,14.9C18.7,14.9,18.7,14.9,18.7,14.9
				C18.7,14.9,18.7,14.9,18.7,14.9z M18.7,14.7c0,0,0,0.1,0,0.1c0,0,0,0,0,0.1c0,0,0,0,0-0.1C18.7,14.8,18.7,14.7,18.7,14.7z
				 M18.4,17.3C18.4,17.3,18.4,17.3,18.4,17.3C18.4,17.3,18.4,17.3,18.4,17.3C18.4,17.3,18.4,17.3,18.4,17.3z M17.8,13.1L17.8,13.1
				C17.7,13.1,17.7,13.1,17.8,13.1C17.7,13.1,17.7,13.1,17.8,13.1z M16.4,19C16.5,19,16.5,19,16.4,19C16.5,19,16.5,19,16.4,19
				C16.4,19,16.4,19,16.4,19z M14.1,12.3c-0.1,0-0.1,0-0.2,0.1C14,12.3,14,12.3,14.1,12.3z M13.4,12.6
				C13.4,12.6,13.4,12.6,13.4,12.6C13.4,12.6,13.4,12.6,13.4,12.6C13.4,12.6,13.4,12.6,13.4,12.6z M12.7,13.1
				C12.8,13.1,12.8,13.1,12.7,13.1C12.8,13.1,12.8,13.1,12.7,13.1L12.7,13.1z M12.6,13.3c-0.1,0.1-0.1,0.1-0.1,0.2
				C12.5,13.4,12.5,13.4,12.6,13.3z M12.4,13.5c0,0.1-0.1,0.1-0.1,0.2C12.3,13.6,12.4,13.5,12.4,13.5z M11.7,16.1
				C11.7,16.1,11.7,16.1,11.7,16.1C11.7,16.1,11.7,16.1,11.7,16.1C11.7,16,11.7,16.1,11.7,16.1z M11.7,15.9
				C11.7,15.9,11.7,15.9,11.7,15.9C11.7,15.9,11.7,15.9,11.7,15.9C11.7,15.9,11.7,15.9,11.7,15.9z M8.4,26.6
				c-0.1-0.1-0.2-0.1-0.3-0.2C8.2,26.5,8.3,26.6,8.4,26.6z M3.3,20.6C3.3,20.6,3.3,20.6,3.3,20.6c0,0.1,0.1,0.1,0.1,0.2
				C3.4,20.8,3.4,20.7,3.3,20.6C3.3,20.7,3.3,20.6,3.3,20.6z M2.8,19.1c0,0.1,0.1,0.3,0.1,0.4c0-0.1,0-0.1-0.1-0.2
				C2.8,19.2,2.8,19.1,2.8,19.1z"/>
		</g>
	</g>
	<g>
		<path class="st1" d="M22.1,26v0.6c-2.2,1.4-4.8,2-7.4,1.9c-0.1,0-0.2,0-0.3,0c-1.6-0.1-3.2-0.5-4.7-1.2c-0.1-0.1-0.2-0.1-0.3-0.2
			h0c-0.3-0.2-0.7-0.4-1-0.6c0-0.4,0-0.6,0-0.6c0-0.6,0-1.1,0.1-1.6c0-0.2,0.1-0.3,0.1-0.5C8.8,23.6,8.9,23.3,9,23
			c0.2-0.4,0.4-0.8,0.7-1.1c0.1-0.1,0.1-0.2,0.2-0.2c0.2-0.2,0.5-0.4,0.7-0.6c0.7-0.5,1.4-0.8,2.2-1c0.8-0.2,1.6-0.3,2.4-0.3
			c0.9,0,1.7,0.1,2.4,0.3c0.3,0.1,0.7,0.2,1,0.4c0.1,0,0.2,0.1,0.2,0.1c0.3,0.2,0.6,0.3,0.9,0.5c0.7,0.5,1.2,1.1,1.6,1.9
			C21.9,23.8,22.1,24.8,22.1,26z"/>
	</g>
	<g>
		<path class="st0" d="M8.4,26.6c-0.1-0.1-0.2-0.1-0.3-0.2C8.2,26.5,8.3,26.6,8.4,26.6z"/>
	</g>
	<path class="st0" d="M11,27.5c-0.1,0-0.2-0.1-0.2-0.2v-2.8c0-0.1,0.1-0.2,0.2-0.2c0.1,0,0.2,0.1,0.2,0.2v2.8
		C11.2,27.4,11.1,27.5,11,27.5z"/>
	<path class="st0" d="M19.8,27.4c-0.1,0-0.2-0.1-0.2-0.2v-2.7c0-0.1,0.1-0.2,0.2-0.2c0.1,0,0.2,0.1,0.2,0.2v2.7
		C20,27.3,19.9,27.4,19.8,27.4z"/>
	<path class="st2" d="M18.1,17.6c-0.6,0.9-1.7,1.6-2.9,1.6c-1.9,0-3.5-1.6-3.5-3.5c0-0.6,0.1-1.1,0.4-1.6L12,14
		c-0.3,0.5-0.4,1.1-0.4,1.7c0,2,1.6,3.6,3.6,3.6c1.3,0,2.4-0.6,3-1.6L18.1,17.6z"/>
	<path class="st2" d="M18.9,15.7c0,0.6-0.2,1.3-0.5,1.8c0,0.1-0.1,0.2-0.1,0.2l-0.1-0.1c0.1-0.1,0.1-0.1,0.1-0.2
		c0.3-0.5,0.5-1.1,0.5-1.7c0-1.9-1.6-3.5-3.5-3.5l0-0.1C17.3,12,18.9,13.7,18.9,15.7z"/>
	<path class="st2" d="M15.3,12.2C15.3,12.2,15.2,12.2,15.3,12.2c-0.1,0-0.2,0-0.3,0c-1.2,0.1-2.2,0.7-2.7,1.7c0,0.1-0.1,0.2-0.1,0.2
		L12,14c0-0.1,0.1-0.2,0.1-0.2c0.6-1,1.6-1.7,2.9-1.7c0.1,0,0.2,0,0.2,0c0,0,0,0,0,0L15.3,12.2z"/>
	<path class="st2" d="M16.6,15.7c0,0.1,0,0.2,0,0.2c-0.1,0.3-0.2,0.6-0.4,0.8c-0.2,0.2-0.5,0.3-0.9,0.3c-0.7,0-1.4-0.6-1.4-1.3
		c0-0.1,0-0.2,0-0.3c0.1-0.3,0.2-0.6,0.5-0.8c0.1-0.1,0.2-0.2,0.4-0.2c0.1-0.1,0.3-0.1,0.5-0.1c0.1,0,0.3,0,0.4,0.1
		C16.2,14.5,16.6,15.1,16.6,15.7z"/>
	<path class="st0" d="M20.9,2c0,0.2-0.1,0.4-0.3,0.4c0,0,0,0-0.1,0c-0.1,0-0.1,0-0.2,0c-0.1-0.1-0.2-0.2-0.2-0.3
		c0-0.2,0.2-0.4,0.4-0.4C20.8,1.6,20.9,1.8,20.9,2z"/>
	<polygon class="st2" points="15,8.4 15,8.4 15,8.4 	"/>
	<path class="st2" d="M15.1,4.5c0,0.2-0.2,0.4-0.4,0.4c0,0,0,0,0,0c0,0,0,0,0,0c-0.1,0-0.1,0-0.2-0.1c0,0,0,0,0,0c0,0,0,0,0,0
		c0,0-0.1-0.1-0.1-0.2c0,0,0-0.1,0-0.1c0-0.2,0.2-0.4,0.4-0.4C15,4.1,15.1,4.3,15.1,4.5z"/>
	<path class="st0" d="M5.3,1.8c0,0.2-0.2,0.4-0.4,0.4c0,0,0,0,0,0c-0.1,0-0.2,0-0.2-0.1C4.5,2.1,4.5,2,4.5,1.8
		c0-0.2,0.2-0.4,0.4-0.4C5.1,1.4,5.3,1.6,5.3,1.8z"/>
	<path class="st0" d="M1.1,7.1c0,0.2-0.2,0.4-0.4,0.4c-0.2,0-0.4-0.2-0.4-0.4c0-0.2,0.2-0.4,0.4-0.4c0.1,0,0.2,0,0.3,0.1
		C1,6.8,1,6.9,1.1,7.1C1,7,1.1,7,1.1,7.1z"/>
	<polygon class="st2" points="6.3,17.2 6.3,17.2 6.3,17.2 	"/>
	<path class="st0" d="M2.5,19.5c0,0.2-0.2,0.4-0.4,0.4c-0.2,0-0.4-0.2-0.4-0.4c0-0.2,0.1-0.3,0.3-0.4c0,0,0.1,0,0.1,0
		c0.1,0,0.1,0,0.1,0c0,0,0.1,0,0.1,0.1C2.4,19.2,2.5,19.3,2.5,19.5C2.5,19.4,2.5,19.4,2.5,19.5z"/>
	<path class="st2" d="M11.4,9.9c0,0.1,0,0.1,0,0.2c0,0,0,0,0,0c0,0.1-0.1,0.1-0.2,0.2c0,0,0,0,0,0c0,0-0.1,0-0.2,0
		c-0.2,0-0.4-0.2-0.4-0.4c0-0.2,0.2-0.4,0.4-0.4c0.1,0,0.2,0,0.2,0.1c0.1,0.1,0.1,0.1,0.2,0.2C11.4,9.8,11.4,9.9,11.4,9.9z"/>
	<path class="st0" d="M29.7,15.1c0,0.2-0.2,0.4-0.4,0.4c-0.1,0-0.3-0.1-0.3-0.2c0-0.1-0.1-0.1-0.1-0.2c0,0,0,0,0-0.1
		c0-0.2,0.2-0.3,0.4-0.3C29.6,14.7,29.7,14.8,29.7,15.1z"/>
	<path class="st2" d="M24.4,9.5c0,0.2-0.2,0.4-0.4,0.4c-0.2,0-0.4-0.2-0.4-0.4c0,0,0,0,0-0.1c0-0.1,0.1-0.2,0.1-0.2
		c0.1-0.1,0.2-0.1,0.3-0.1C24.2,9.1,24.4,9.3,24.4,9.5z"/>
	<path class="st2" d="M22.2,11.9c0,0.1,0,0.2-0.1,0.3c-0.1,0.1-0.1,0.1-0.2,0.1c0,0,0,0-0.1,0c-0.2,0-0.4-0.2-0.4-0.4
		c0-0.2,0.2-0.4,0.4-0.4C22,11.5,22.2,11.7,22.2,11.9z"/>
	<polygon class="st2" points="18.5,23.4 18.5,23.4 18.5,23.4 	"/>
	<path class="st0" d="M15.2,22.2L15.2,22.2c0,0.1,0,0.2-0.1,0.3c-0.1,0.1-0.2,0.1-0.3,0.1c-0.2,0-0.4-0.2-0.4-0.4
		c0-0.2,0.2-0.4,0.4-0.4C15.1,21.8,15.2,21.9,15.2,22.2z"/>
	<path class="st0" d="M16.7,26.4L16.7,26.4c0,0.1,0,0.2-0.1,0.3c-0.1,0.1-0.2,0.1-0.3,0.1c-0.2,0-0.4-0.2-0.4-0.4
		c0-0.2,0.2-0.4,0.4-0.4C16.6,26,16.7,26.2,16.7,26.4z"/>
	<path class="st2" d="M9.3,19.1c0,0.2-0.2,0.4-0.4,0.4c-0.2,0-0.4-0.2-0.4-0.4c0-0.2,0.1-0.3,0.3-0.4c0,0,0.1,0,0.1,0
		c0.1,0,0.1,0,0.2,0C9.3,18.8,9.3,18.9,9.3,19.1z"/>
	<path class="st2" d="M14.5,7.2c-0.1,0-0.2,0.1-0.2,0.1c-0.1,0.1-0.3,0.2-0.3,0.4c0,0.1-0.1,0.2-0.1,0.2l-0.1-0.1
		c0-0.1,0.1-0.2,0.1-0.2c0.1-0.2,0.2-0.3,0.4-0.4c0.1-0.1,0.2-0.1,0.2-0.1L14.5,7.2z"/>
	<path class="st2" d="M16.4,8.4c0,0.7-0.5,1.3-1.2,1.4c-0.1,0-0.1,0-0.2,0c0,0-0.1,0-0.1,0c-0.4,0-0.8-0.2-1-0.6
		c-0.1-0.1-0.1-0.1-0.1-0.2c-0.1-0.2-0.1-0.4-0.1-0.6c0-0.2,0-0.3,0.1-0.5L13.8,8c0,0.1-0.1,0.3-0.1,0.4c0,0.2,0,0.4,0.1,0.6
		c0,0.1,0.1,0.2,0.1,0.2c0.2,0.3,0.6,0.5,0.9,0.5c0,0,0.1,0,0.1,0c0.1,0,0.1,0,0.2,0c0.3,0,0.5-0.2,0.7-0.4c0.2-0.2,0.4-0.6,0.4-0.9
		c0-0.1,0-0.2,0-0.2l0.1,0C16.4,8.2,16.4,8.3,16.4,8.4z"/>
	<path class="st2" d="M16.4,8.2L16.4,8.2l-0.1,0c0-0.1,0-0.2-0.1-0.3C16,7.5,15.6,7.1,15,7.1c-0.2,0-0.4,0-0.5,0.1l-0.1-0.1
		C14.6,7,14.8,7,15,7c0.6,0,1.1,0.4,1.3,0.9C16.4,8,16.4,8.1,16.4,8.2z"/>
	<path class="st2" d="M7.8,10.1c-0.2,0-0.5,0.1-0.6,0.2l0,0c-0.1,0-0.2,0.1-0.2,0.1c-0.3,0.3-0.6,0.7-0.6,1.1c0,0.6,0.4,1.1,0.9,1.3
		c0.1,0,0.2,0.1,0.3,0.1c0.1,0,0.2,0,0.3,0c0.5,0,0.9-0.2,1.2-0.6C9,12.2,9,12.2,9.1,12.1c0.1-0.2,0.1-0.4,0.1-0.6
		C9.2,10.7,8.6,10.1,7.8,10.1z M9,12c0,0.1-0.1,0.2-0.1,0.2c0,0.1-0.1,0.1-0.1,0.2c-0.2,0.2-0.6,0.4-0.9,0.4c-0.1,0-0.2,0-0.2,0
		c-0.1,0-0.2,0-0.3-0.1c-0.5-0.2-0.8-0.7-0.8-1.2c0-0.4,0.2-0.8,0.5-1c0.1-0.1,0.1-0.1,0.2-0.1c0.2-0.1,0.4-0.1,0.6-0.1
		c0.7,0,1.3,0.6,1.3,1.3C9.1,11.7,9,11.9,9,12z"/>
	<path class="st0" d="M4.1,5.9C4,6,3.9,6,3.8,6C3.6,6,3.4,5.9,3.3,5.7L3.1,5.8C3.3,6,3.5,6.1,3.8,6.1c0.1,0,0.2,0,0.3-0.1L4.1,5.9z"
		/>
	<path class="st0" d="M3.9,4.4l0,0.1c0,0-0.1,0-0.1,0c-0.4,0-0.7,0.3-0.7,0.7c0,0.1,0,0.2,0,0.2c0,0.1,0.1,0.2,0.1,0.2L3.1,5.8
		C3.1,5.7,3,5.6,3,5.6c0-0.1-0.1-0.2-0.1-0.3c0-0.5,0.4-0.9,0.9-0.9C3.8,4.4,3.9,4.4,3.9,4.4z"/>
	<path class="st0" d="M4.7,5.3c0,0.2-0.1,0.4-0.2,0.5C4.4,5.9,4.2,6.1,4,6.1c-0.1,0-0.1,0-0.2,0C3.6,6.1,3.4,6,3.2,5.9
		C3.1,5.8,3,5.6,3,5.4c0,0,0-0.1,0-0.2c0-0.5,0.4-0.8,0.8-0.9c0,0,0,0,0,0c0.2,0,0.4,0.1,0.5,0.2C4.5,4.7,4.7,5,4.7,5.3z"/>
	<path class="st2" d="M19.8,6.2l0,0.1c-0.4,0-0.7,0.3-0.7,0.7c0,0,0,0,0,0.1c0,0.1,0,0.2,0.1,0.3l-0.1,0c0-0.1-0.1-0.2-0.1-0.3
		c0,0,0-0.1,0-0.1C18.9,6.6,19.3,6.2,19.8,6.2z"/>
	<path class="st2" d="M20.6,7.4L20.6,7.4c0,0.1-0.1,0.2-0.1,0.2c-0.2,0.2-0.4,0.3-0.7,0.3c-0.3,0-0.6-0.2-0.8-0.5l0.1,0
		c0.1,0.2,0.4,0.4,0.6,0.4c0.2,0,0.4-0.1,0.5-0.3c0.1-0.1,0.1-0.1,0.1-0.2L20.6,7.4z"/>
	<path class="st2" d="M20.6,7.1c0,0.1,0,0.2-0.1,0.3l-0.1-0.1c0-0.1,0-0.2,0-0.2c0-0.3-0.2-0.6-0.5-0.7c-0.1,0-0.2,0-0.2,0
		c0,0,0,0,0,0l0-0.1h0c0.1,0,0.2,0,0.3,0C20.4,6.4,20.6,6.7,20.6,7.1z"/>
	<path class="st2" d="M20.6,7.1c0,0.1,0,0.1,0,0.1c0,0.2-0.1,0.4-0.3,0.5c-0.1,0.1-0.3,0.2-0.5,0.2c-0.3,0-0.5-0.1-0.7-0.4
		c-0.1-0.1-0.2-0.3-0.2-0.5c0,0,0,0,0-0.1c0-0.4,0.3-0.7,0.7-0.8c0.1,0,0.1,0,0.2,0c0.1,0,0.3,0,0.4,0.1C20.4,6.5,20.6,6.7,20.6,7.1
		z"/>
	<path class="st2" d="M25,15.8L25,15.8l-0.1,0c-0.1-0.3-0.4-0.5-0.7-0.5c-0.1,0-0.2,0-0.2,0c-0.1,0-0.2,0.1-0.2,0.1l-0.1-0.1
		c0.1-0.1,0.1-0.1,0.2-0.1c0.1,0,0.2-0.1,0.3-0.1C24.5,15.2,24.8,15.4,25,15.8z"/>
	<path class="st2" d="M25,16c0,0.5-0.4,0.9-0.9,0.9c-0.1,0-0.2,0-0.3-0.1l0.1-0.1c0.1,0,0.2,0.1,0.3,0.1c0.4,0,0.7-0.3,0.7-0.7
		c0-0.1,0-0.2,0-0.3v0l0.1,0C25,15.8,25,15.9,25,16C25,16,25,16,25,16z"/>
	<path class="st2" d="M23.9,16.7l-0.1,0.1c-0.1,0-0.2-0.1-0.2-0.1c-0.2-0.2-0.3-0.4-0.3-0.6c0-0.3,0.1-0.5,0.3-0.7l0.1,0.1
		c-0.2,0.1-0.3,0.3-0.3,0.5c0,0.2,0.1,0.4,0.2,0.5C23.7,16.6,23.8,16.7,23.9,16.7z"/>
	<path class="st2" d="M25,16c0,0,0,0.1,0,0.1c-0.1,0.4-0.4,0.7-0.8,0.7c-0.1,0-0.1,0-0.2,0c-0.2,0-0.4-0.2-0.5-0.3
		c-0.1-0.1-0.2-0.3-0.2-0.5c0-0.2,0.1-0.4,0.2-0.5c0.1-0.1,0.3-0.2,0.5-0.3c0,0,0.1,0,0.1,0c0.3,0,0.6,0.2,0.7,0.4
		C25,15.7,25,15.9,25,16z"/>
	<path class="st0" d="M19.2,22.9L19.1,23c0.1,0.1,0.2,0.3,0.2,0.4c0,0.4-0.3,0.7-0.7,0.7l0,0.1c0.4,0,0.8-0.4,0.8-0.8
		C19.4,23.2,19.3,23,19.2,22.9z"/>
	<path class="st0" d="M18.6,24.2l0,0.1c0,0,0,0,0,0c-0.1,0-0.1,0-0.2,0c-0.4-0.1-0.6-0.4-0.6-0.8c0-0.1,0-0.1,0-0.2l0.1,0
		c0,0,0,0.1,0,0.1c0,0.3,0.2,0.6,0.5,0.7C18.4,24.1,18.4,24.2,18.6,24.2C18.5,24.2,18.6,24.2,18.6,24.2z"/>
	<path class="st0" d="M19.3,23c-0.1-0.2-0.3-0.3-0.4-0.4c-0.1,0-0.2-0.1-0.3-0.1c-0.3,0-0.5,0.1-0.7,0.3c-0.1,0.1-0.2,0.3-0.2,0.5v0
		c0,0.3,0.2,0.6,0.5,0.8c0.1,0.1,0.2,0.1,0.4,0.1c0.1,0,0.1,0,0.2,0c0.4-0.1,0.7-0.4,0.7-0.8C19.4,23.3,19.3,23.1,19.3,23z
		 M18.5,23.4L18.5,23.4L18.5,23.4L18.5,23.4z"/>
	<path class="st2" d="M22.7,18.6l-0.1,0.1c0.3,0.2,0.5,0.6,0.5,1c0,0.7-0.6,1.3-1.3,1.3c-0.3,0-0.5-0.1-0.7-0.2L21,20.9
		c0.2,0.2,0.5,0.3,0.8,0.3c0.8,0,1.4-0.6,1.4-1.4C23.2,19.3,23,18.8,22.7,18.6z"/>
	<path class="st2" d="M21.1,20.8L21,20.9c-0.1-0.1-0.1-0.1-0.2-0.2c-0.2-0.3-0.4-0.6-0.4-1c0-0.2,0.1-0.4,0.2-0.6l0.1,0.1
		c-0.1,0.2-0.1,0.4-0.1,0.6c0,0.3,0.1,0.6,0.3,0.9C20.9,20.7,21,20.7,21.1,20.8z"/>
	<path class="st2" d="M22.7,18.6l-0.1,0.1c-0.1-0.1-0.1-0.1-0.2-0.1c-0.2-0.1-0.4-0.1-0.6-0.1c-0.4,0-0.8,0.2-1,0.5
		c-0.1,0.1-0.1,0.1-0.1,0.2l-0.1-0.1c0-0.1,0.1-0.2,0.1-0.2c0.3-0.3,0.7-0.6,1.1-0.6c0.2,0,0.5,0.1,0.7,0.2
		C22.5,18.5,22.6,18.5,22.7,18.6z"/>
	<path class="st2" d="M23.2,19.7c0,0.8-0.6,1.4-1.4,1.4c-0.2,0-0.4,0-0.5-0.1c-0.3-0.1-0.6-0.4-0.7-0.6c-0.1-0.2-0.2-0.4-0.2-0.7
		c0-0.1,0-0.2,0-0.3c0.1-0.3,0.3-0.6,0.5-0.8c0.2-0.2,0.6-0.3,0.9-0.3c0.1,0,0.2,0,0.3,0c0.3,0.1,0.6,0.3,0.8,0.5
		C23.1,19.1,23.2,19.4,23.2,19.7z"/>
	<polygon class="st2" points="15,8.4 15,8.4 15,8.4 	"/>
	<path class="st2" d="M6.5,16.1C6.4,16,6.4,16,6.3,16c0,0-0.1,0-0.1,0c-0.5,0-0.8,0.4-0.8,0.9c0,0.1,0,0.2,0.1,0.3
		c0,0.1,0.1,0.2,0.1,0.2c0.1,0.1,0.3,0.2,0.5,0.3c0.1,0,0.1,0,0.2,0c0,0,0.1,0,0.1,0c0.1,0,0.2,0,0.3-0.1c0.1,0,0.1-0.1,0.2-0.2
		C6.9,17.3,7,17.1,7,16.8C7,16.5,6.8,16.2,6.5,16.1z M6.7,17.3c-0.1,0.1-0.1,0.1-0.2,0.2c-0.1,0-0.1,0.1-0.2,0.1c0,0-0.1,0-0.1,0
		c-0.1,0-0.1,0-0.2,0c-0.1,0-0.3-0.1-0.4-0.2c-0.1-0.1-0.1-0.1-0.1-0.2l0,0c0-0.1-0.1-0.2-0.1-0.3c0-0.4,0.3-0.7,0.7-0.7
		c0,0,0.1,0,0.1,0c0.1,0,0.2,0,0.3,0.1c0.2,0.1,0.4,0.4,0.4,0.6C6.9,17,6.8,17.2,6.7,17.3z"/>
	<path class="st2" d="M7,16.8c0,0.2,0,0.3-0.1,0.5c-0.1,0.2-0.3,0.3-0.5,0.4l0,0l0,0c-0.1,0-0.2,0-0.3,0c-0.1,0-0.2,0-0.3-0.1
		c-0.1,0-0.1-0.1-0.2-0.1c-0.2-0.1-0.3-0.3-0.3-0.5c0-0.1,0-0.1,0-0.2c0-0.5,0.4-0.8,0.8-0.9c0,0,0,0,0,0c0.2,0,0.4,0.1,0.5,0.2
		C6.9,16.3,7,16.6,7,16.8z"/>
	<path class="st2" d="M9.2,11.5c0,0.1,0,0.2,0,0.2c-0.1,0.3-0.2,0.6-0.5,0.8c-0.2,0.2-0.5,0.3-0.9,0.4c0,0,0,0-0.1,0
		c-0.3,0-0.6-0.1-0.8-0.3c-0.3-0.3-0.6-0.7-0.6-1.1c0-0.3,0.1-0.6,0.3-0.9c0.2-0.3,0.5-0.4,0.8-0.5c0.1,0,0.2,0,0.3,0
		C8.6,10.1,9.2,10.7,9.2,11.5z"/>
	<polygon class="st2" points="15,8.4 15,8.4 15,8.4 	"/>
	<polygon class="st2" points="15,8.4 15,8.4 15,8.4 	"/>
	<path class="st2" d="M12.2,6.7C12.2,6.7,12.2,6.7,12.2,6.7c0,0.3-0.1,0.4-0.2,0.5c0,0,0,0-0.1,0.1c-0.1,0.1-0.3,0.2-0.4,0.2
		c0,0-0.1,0-0.1,0c-0.2,0-0.3-0.1-0.5-0.2c-0.2-0.1-0.3-0.3-0.3-0.5c0-0.1,0-0.1,0-0.2c0-0.1,0-0.2,0.1-0.3c0,0,0,0,0,0
		C10.7,6.1,10.9,6,11,5.9c0,0,0,0,0,0c0.1,0,0.2-0.1,0.3-0.1c0,0,0,0,0,0c0,0,0.1,0,0.1,0c0.1,0,0.3,0.1,0.4,0.2l0,0c0,0,0,0,0,0
		c0,0,0,0,0,0c0,0,0,0,0.1,0.1c0.1,0.1,0.2,0.2,0.2,0.4c0,0,0,0,0,0C12.2,6.6,12.2,6.6,12.2,6.7z"/>
	<path class="st0" d="M4.7,5.3c0,0.3-0.1,0.5-0.3,0.6C4.3,6,4.2,6,4.1,6L4.1,5.9c0.1,0,0.2-0.1,0.2-0.1c0.1-0.1,0.2-0.3,0.2-0.5
		c0-0.3-0.2-0.5-0.4-0.6C4.1,4.6,4,4.6,3.9,4.5l0-0.1c0.1,0,0.2,0,0.3,0.1C4.5,4.6,4.7,4.9,4.7,5.3z"/>
	<path class="st0" d="M19.2,22.9L19.1,23c-0.1-0.1-0.1-0.1-0.2-0.2l0,0c-0.1-0.1-0.2-0.1-0.4-0.1c-0.3,0-0.5,0.1-0.6,0.4
		c0,0.1-0.1,0.2-0.1,0.3l-0.1,0v0c0-0.1,0-0.2,0.1-0.3c0.1-0.3,0.4-0.4,0.8-0.4c0.2,0,0.3,0,0.5,0.1C19,22.8,19.1,22.8,19.2,22.9z"
		/>
	<path class="st2" d="M16.2,7.6c-0.3-0.4-0.7-0.6-1.2-0.6c-0.1,0-0.2,0-0.3,0c-0.3,0-0.6,0.2-0.8,0.4c0,0-0.1,0.1-0.1,0.1
		c-0.2,0.2-0.3,0.5-0.3,0.8c0,0,0,0.1,0,0.2c0,0.1,0,0.2,0,0.3c0.1,0.3,0.3,0.6,0.5,0.9c0.1,0.1,0.3,0.2,0.5,0.2
		c0.1,0,0.3,0.1,0.5,0.1c0.2,0,0.4,0,0.5-0.1c0.5-0.2,0.9-0.7,0.9-1.3c0,0,0-0.1,0-0.1C16.5,8.1,16.4,7.8,16.2,7.6z M15,8.4L15,8.4
		L15,8.4L15,8.4z"/>
	<path class="st2" d="M12.2,6.3C12.2,6.3,12.2,6.3,12.2,6.3c0-0.1-0.1-0.2-0.1-0.2c0,0,0,0,0,0C12,6.1,12,6,11.9,6
		c0,0-0.1,0-0.1-0.1c0,0-0.1-0.1-0.2-0.1c0,0-0.1,0-0.1,0c-0.1,0-0.1,0-0.2,0c-0.2,0-0.3,0.1-0.5,0.2c0,0,0,0,0,0
		c-0.1,0-0.1,0.1-0.2,0.2c0,0,0,0,0,0c-0.1,0.1-0.1,0.3-0.1,0.5c0,0.1,0,0.3,0.1,0.4c0,0.1,0.1,0.2,0.2,0.2c0.2,0.2,0.4,0.3,0.6,0.3
		c0.1,0,0.2,0,0.3-0.1c0.1,0,0.2-0.1,0.2-0.1C12,7.3,12,7.2,12.1,7.2c0-0.1,0.1-0.2,0.1-0.2c0-0.1,0-0.2,0-0.2
		C12.2,6.6,12.2,6.4,12.2,6.3z M12.1,6.9C12.1,6.9,12,7,12,7.1c0,0-0.1,0.1-0.1,0.1c-0.1,0.1-0.1,0.1-0.2,0.1c-0.1,0-0.2,0-0.2,0
		c-0.2,0-0.4-0.1-0.5-0.2C10.8,7.1,10.8,7,10.7,7c0-0.1-0.1-0.2-0.1-0.3c0-0.1,0-0.3,0.1-0.4c0,0,0,0,0,0c0-0.1,0.1-0.1,0.2-0.2
		c0,0,0,0,0,0C11.1,6,11.3,6,11.4,6c0,0,0.1,0,0.1,0c0,0,0.1,0,0.1,0c0.1,0,0.1,0,0.2,0.1c0,0,0,0,0.1,0c0,0,0,0,0.1,0.1
		c0,0,0,0,0,0C12,6.2,12,6.3,12.1,6.4c0,0,0,0,0,0c0,0.1,0,0.2,0,0.3C12.1,6.7,12.1,6.8,12.1,6.9z"/>
	<g>
		<path class="st3" d="M15.3,12C15.3,12,15.2,12,15.3,12c-0.1,0-0.2,0-0.3,0l-0.1-2.2c0,0,0.1,0,0.1,0c0.1,0,0.1,0,0.2,0L15.3,12z"
			/>
		<path class="st3" d="M20.7,18.8c-0.1,0.1-0.1,0.1-0.1,0.2l-2.3-1.4c0.1-0.1,0.1-0.2,0.1-0.2L20.7,18.8z"/>
		<path class="st3" d="M12.1,13.8c0,0.1-0.1,0.2-0.1,0.2L9,12.3C9,12.2,9,12.2,9.1,12.1L12.1,13.8z"/>
		<path class="st3" d="M23.8,16.8l-1.1,1.8c-0.1-0.1-0.1-0.1-0.2-0.1l1.1-1.8C23.7,16.7,23.7,16.8,23.8,16.8z"/>
		<path class="st3" d="M7.5,12.9l-1,3.2C6.4,16,6.4,16,6.3,16l1-3.2C7.3,12.9,7.4,12.9,7.5,12.9z"/>
		<path class="st3" d="M7.1,10.2c-0.1,0-0.2,0.1-0.2,0.1L4.1,6C4.2,6,4.3,6,4.4,5.9L7.1,10.2z"/>
		<path class="st3" d="M19,7.4l-2.6,0.7c0-0.1,0-0.2-0.1-0.3l2.6-0.7C18.9,7.3,19,7.3,19,7.4z"/>
		<path class="st3" d="M21,20.9l-1.8,2c-0.1-0.1-0.1-0.1-0.2-0.2l1.8-2C20.8,20.8,20.9,20.8,21,20.9z"/>
		<path class="st3" d="M13.8,7.7c0,0.1-0.1,0.2-0.1,0.2l-1.6-0.8c0-0.1,0.1-0.2,0.1-0.2L13.8,7.7z"/>
	</g>
</g>
</svg>
