<?xml version="1.0" encoding="utf-8"?>
<!-- Generator: Adobe Illustrator 24.0.0, SVG Export Plug-In . SVG Version: 6.00 Build 0)  -->
<svg version="1.1" xmlns="http://www.w3.org/2000/svg" xmlns:xlink="http://www.w3.org/1999/xlink" x="0px" y="0px"
	 viewBox="0 0 311.3 269.6" style="enable-background:new 0 0 311.3 269.6;" xml:space="preserve">
<style type="text/css">
	.st0{display:none;}
	.st1{display:inline;}
	.st2{fill:#E5B7BA;}
	.st3{fill:#C22528;}
	.st4{fill:#B7CAE5;}
	.st5{fill:#182F59;}
	.st6{display:inline;fill:#182F59;}
	.st7{fill:#B7E5C6;}
	.st8{fill:#1B743A;}
	.st9{fill:#C2B7E5;}
	.st10{fill:#603CA3;}
	.st11{fill:#F1F2F3;}
	.st12{fill:#B7D6E5;}
	.st13{fill:#488DCB;}
	.st14{fill:#B7CFE5;}
	.st15{fill:#4064AD;}
	.st16{fill-rule:evenodd;clip-rule:evenodd;fill:#4064AD;}
	.st17{fill:#ED1E33;}
</style>
<g id="Layer_1" class="st0">
	<g class="st1">
		<polygon class="st2" points="82.7,261.1 9.8,134.8 82.7,8.5 228.6,8.5 301.5,134.8 228.6,261.1 		"/>
		<path class="st3" d="M224,16.5l68.3,118.3L224,253.1H87.3L19.1,134.8L87.3,16.5H224 M233.2,0.5H78.1L0.6,134.8l77.5,134.3h155.1
			l77.5-134.3L233.2,0.5L233.2,0.5z"/>
	</g>
	<g class="st1">
		<polygon class="st3" points="206,59.4 248,101.3 206,143.3 197.6,134.9 231.2,101.3 197.6,67.7 		"/>
		<polygon class="st3" points="105.3,59.4 63.3,101.3 105.3,143.3 113.7,134.9 80.1,101.3 113.7,67.7 		"/>
		
			<rect x="127.4" y="78.8" transform="matrix(0.9713 -0.2378 0.2378 0.9713 -21.054 40.153)" class="st3" width="57.1" height="57.1"/>
		
			<rect x="107.9" y="48.2" transform="matrix(0.7071 -0.7071 0.7071 0.7071 -5.9411 98.7625)" class="st3" width="16.8" height="16.8"/>
		
			<rect x="186.4" y="48.2" transform="matrix(0.7071 -0.7071 0.7071 0.7071 17.0591 154.29)" class="st3" width="16.8" height="16.8"/>
		<g>
			<polygon points="156.3,228 166.8,217.6 156.3,153.6 145.9,217.6 			"/>
			<polygon class="st3" points="207.7,146.9 193.3,132.5 180.5,145.3 164.5,145.3 160.2,152.9 171.3,217.6 156.3,232.5 141.4,217.6 
				152.5,152.9 148.2,145.3 131.1,145.2 118.3,132.5 103.9,146.9 114.2,157.2 114.2,267.5 142.5,267.5 142.8,267.2 153.6,256.4 
				155.9,254.1 158.3,256.4 169.1,267.2 169.4,267.5 197.6,267.5 197.6,157 			"/>
		</g>
	</g>
</g>
<g id="Layer_7_1_" class="st0">
	<g class="st1">
		<polygon class="st4" points="82.7,261.1 9.8,134.8 82.7,8.5 228.6,8.5 301.5,134.8 228.6,261.1 		"/>
		<path class="st5" d="M224,16.5l68.3,118.3L224,253.1H87.3L19.1,134.8L87.3,16.5H224 M233.2,0.5H78.1L0.6,134.8l77.5,134.3h155.1
			l77.5-134.3L233.2,0.5L233.2,0.5z"/>
	</g>
	<path class="st6" d="M212,86l-42-24.2l-14.3-8.3L85,94.3v16.4c0,0,0,0.1,0,0.1v48.5c0,0,0,0.1,0,0.1c0,10.2,5.5,19.6,14.3,24.7l0,0
		l42,24.2c0.1,0,0.1,0.1,0.2,0.1l14.1,8.2l70.7-40.8v-16.6v-48.5C226.4,100.6,220.9,91.1,212,86z M218.8,110.8v60.7L155.7,208v-56.4
		c0-10.2-5.5-19.7-14.3-24.8L92.6,98.6l63.1-36.5l52.6,30.4C214.8,96.3,218.8,103.3,218.8,110.8z"/>
</g>
<g id="Layer_3" class="st0">
	<g class="st1">
		<polygon class="st7" points="82.7,261.1 9.8,134.8 82.7,8.5 228.6,8.5 301.5,134.8 228.6,261.1 		"/>
		<path class="st8" d="M224,16.5l68.3,118.3L224,253.1H87.3L19.1,134.8L87.3,16.5H224 M233.2,0.5H78.1L0.6,134.8l77.5,134.3h155.1
			l77.5-134.3L233.2,0.5L233.2,0.5z"/>
	</g>
	<g class="st1">
		<polygon class="st8" points="203.6,122.6 179.9,174.8 179.9,122.6 133,122.6 133,175.1 109.2,122.6 97.3,148.9 133,227.7 
			133,201.4 144.7,227.7 168.1,227.7 179.9,201.4 179.9,227.7 215.5,148.9 		"/>
		<polygon class="st8" points="115.4,67.3 76.1,67.3 72.8,74.6 90.6,94.6 100.4,94.6 89.1,81.9 92.4,74.6 112.1,74.6 125.1,89.4 
			121.8,96.6 82.6,96.6 89.1,104 138.1,104 141.4,96.7 		"/>
		<polygon class="st8" points="223.4,96.6 207.9,96.6 189.5,96.6 186.2,89.4 199.2,74.6 218.9,74.6 218.9,74.6 238.4,74.6 
			238.5,74.6 235.2,67.3 195.9,67.3 169.9,96.7 173.2,104 222.2,104 228.7,96.6 223.4,96.6 		"/>
	</g>
</g>
<g id="Layer_4" class="st0">
	<g class="st1">
		<polygon class="st9" points="82.7,261.1 9.8,134.8 82.7,8.5 228.6,8.5 301.5,134.8 228.6,261.1 		"/>
		<g>
			<path class="st10" d="M224,16.5l68.3,118.3L224,253.1H87.3L19.1,134.8L87.3,16.5H224 M233.2,0.5H78.1L0.6,134.8l77.5,134.3h155.1
				l77.5-134.3L233.2,0.5L233.2,0.5z"/>
		</g>
	</g>
	<g class="st1">
		<g>
			<g>
				<path class="st11" d="M221.5,164.5c-2.5,1.5-18.7,3.3-18.7,3.3l0,0c-0.2,0.4-0.4,0.8-0.6,1c-1.2,2.3-6,20-12.9,28.3
					c-9,11.2-20.8,13.1-21,13.1c0,0-6-33.7-12.7-71.8c18.9-3.3,33.1-15.8,41-36c3.3-8.5,4.8-16.7,5.6-22.1c5.2,10.6,8.1,22.9,9,35.2
					l0,0c2.5,12.5,13.1,13.7,16.5,18.1C231.5,138.3,224.2,163,221.5,164.5z"/>
			</g>
			<g>
				<g>
					<path class="st10" d="M198.6,73.3c0,0-1.3,53.3-43.5,60.6l-14.8-84.1c4-0.8,8.3-1.2,11.9-1.2c14.4-0.4,25.8,4,34.6,11.2
						c0.8,0.8,1.5,1.3,2.5,2.1c1.2,1,2.3,2.3,3.5,3.5c0.8,0.8,1.3,1.5,2.1,2.5C196.1,69.6,197.4,71.6,198.6,73.3z"/>
				</g>
			</g>
		</g>
		<g>
			<g>
				<path class="st11" d="M82.6,169.3c1.7-5.4,11.4-10,9.4-22.7l0,0c-3.3-11.9-4.8-24.4-3.7-36.2c2.5,5,6.7,12.1,12.7,18.9
					c14.2,16.4,31.9,23.1,50.8,19.6c6.7,37.9,12.7,71.8,12.7,71.8c-0.2,0-11.7,2.1-24.2-5.2c-9.2-5.4-19.8-20.4-21.7-22.1
					c-0.2-0.2-0.6-0.4-0.8-0.8l0,0c0,0-15.8,3.8-18.7,3.3S80.9,174.7,82.6,169.3z"/>
			</g>
			<g>
				<g>
					<path class="st10" d="M91.2,96c0.4-1,0.8-1.9,1.2-3.1c0.6-1.5,1.3-3.1,1.9-4.4c0.6-1,1.2-1.9,1.5-2.9
						c6-9.8,15.2-17.7,28.7-22.3c3.5-1.2,7.5-2.3,11.5-2.9l14.8,84.3c-42.1,7.5-61.6-42.1-61.6-42.1C89.9,100.2,90.7,98.1,91.2,96z"
						/>
				</g>
			</g>
		</g>
	</g>
</g>
<g id="Layer_5">
	<g>
		<polygon class="st12" points="82.7,261.1 9.8,134.8 82.7,8.5 228.6,8.5 301.5,134.8 228.6,261.1 		"/>
		<path class="st13" d="M224,16.5l68.3,118.3L224,253.1H87.3L19.1,134.8L87.3,16.5H224 M233.2,0.5H78.1L0.6,134.8l77.5,134.3h155.1
			l77.5-134.3L233.2,0.5L233.2,0.5z"/>
	</g>
	<g id="Layer_7">
		<path class="st13" d="M147.3,93.5c-32.5,0-58.8,26.3-58.8,58.8c0,32.4,26.3,58.8,58.8,58.8c32.4,0,58.8-26.3,58.8-58.8
			C206.1,119.9,179.8,93.5,147.3,93.5z M178.7,146.7c0-8.1-6.6-14.7-14.7-14.7c8.1,0,14.7-6.6,14.7-14.7c0,8.1,6.6,14.7,14.7,14.7
			C185.2,132,178.7,138.6,178.7,146.7z"/>
		<path class="st13" d="M208,117.3c0-8.1-6.6-14.7-14.7-14.7c8.1,0,14.7-6.6,14.7-14.7c0,8.1,6.6,14.7,14.7,14.7
			C214.6,102.6,208,109.2,208,117.3z"/>
		<path class="st13" d="M178.7,87.9c0-8.1-6.6-14.7-14.7-14.7c8.1,0,14.7-6.6,14.7-14.7c0,8.1,6.6,14.7,14.7,14.7
			C185.2,73.2,178.7,79.8,178.7,87.9z"/>
	</g>
</g>
<g id="Layer_6" class="st0">
	<g class="st1">
		<polygon class="st14" points="82.7,261.1 9.8,134.8 82.7,8.5 228.6,8.5 301.5,134.8 228.6,261.1 		"/>
		<path class="st15" d="M224,16.5l68.3,118.3L224,253.1H87.3L19.1,134.8L87.3,16.5H224 M233.2,0.5H78.1L0.6,134.8l77.5,134.3h155.1
			l77.5-134.3L233.2,0.5L233.2,0.5z"/>
	</g>
	<g class="st1">
		<path class="st16" d="M230,196.4h-27.3l-33.1-26.9v-16.5h8.4c12.1,0,21.9-9.8,21.9-21.9c0-12.1-9.8-21.9-21.9-21.9h-12.8v87.2
			h-16.7v-87.2H95.3L74.8,92.4H178c1.3,0,2.6,0.1,3.9,0.2c0,0,0,0,0,0c0.1,0,0.2,0,0.3,0c0,0,0.1,0,0.1,0c4.5,0.5,8.8,1.8,12.8,3.7
			c0.3,0.1,0.5,0.3,0.8,0.4c0,0,0.1,0,0.1,0.1c0.2,0.1,0.5,0.2,0.7,0.4c0.3,0.1,0.5,0.3,0.8,0.4c0.5,0.3,1,0.6,1.5,0.9
			c0.8,0.5,1.5,1,2.2,1.5c0.3,0.2,0.6,0.4,0.9,0.7c0.2,0.2,0.4,0.3,0.6,0.5c0.1,0.1,0.2,0.1,0.2,0.2h0c0.5,0.5,1.1,0.9,1.6,1.4
			c7.6,7.1,12.3,17.1,12.3,28.3c0,15.9-9.6,29.5-23.2,35.5L230,196.4z"/>
		<polygon class="st17" points="143.9,113.7 143.9,130.4 121.5,130.4 101,113.7 		"/>
		<polygon class="st17" points="143.9,135 143.9,148.6 143.1,147.9 143,147.9 127.2,135 		"/>
	</g>
</g>
</svg>
