<?xml version="1.0" encoding="utf-8"?>
<!-- Generator: Adobe Illustrator 27.0.0, SVG Export Plug-In . SVG Version: 6.00 Build 0)  -->
<svg version="1.1" xmlns="http://www.w3.org/2000/svg" xmlns:xlink="http://www.w3.org/1999/xlink" x="0px" y="0px"
	 viewBox="0 0 500 500" style="enable-background:new 0 0 500 500;" xml:space="preserve">
<style type="text/css">
	.st0{fill:#41BEEE;}
	.st1{fill:#2E2E3A;}
	.st2{fill:#ED4524;}
	.st3{fill:#D0D2D3;}
	.st4{fill:#D1D2D4;}
	.st5{fill:none;stroke:#D1D2D4;stroke-width:6;stroke-miterlimit:10;}
	.st6{fill:none;stroke:#41BEEE;stroke-miterlimit:10;}
	.st7{display:none;opacity:0.16;}
	.st8{display:inline;}
	.st9{fill:#414098;}
	.st10{fill:#808284;}
</style>
<g id="Layer_2">
	<g>
		<path class="st0" d="M253.4,436.5c-32.9,0-65.1-9.1-93-26.3c-25.3-15.6-46.4-37.5-61.1-63.3c-15.2-26.6-23.2-56.9-23.2-87.7
			C76.1,161.5,155.6,82,253.4,82c97.7,0,177.3,79.5,177.3,177.3c0,30.7-8,60.9-23,87.4c-14.6,25.7-35.6,47.6-60.7,63.2
			C318.9,427.3,286.6,436.5,253.4,436.5z"/>
		<path class="st1" d="M253.4,85c46.5,0,90.3,18.1,123.2,51c32.9,32.9,51,76.7,51,123.2c0,30.1-7.8,59.8-22.6,85.9
			c-14.3,25.3-35,46.8-59.7,62.1c-27.6,17.2-59.4,26.2-92,26.2c-32.4,0-64-8.9-91.4-25.9c-24.9-15.3-45.6-36.8-60.1-62.2
			c-14.9-26.1-22.8-55.9-22.8-86.2c0-46.5,18.1-90.3,51-123.2C163.1,103.2,206.8,85,253.4,85 M253.4,79
			c-99.6,0-180.3,80.7-180.3,180.3c0,64.9,34.3,121.8,85.7,153.5c27.5,17,59.9,26.8,94.5,26.8c34.9,0,67.5-9.9,95.2-27.1
			c51.1-31.8,85.1-88.5,85.1-153.1C433.7,159.7,353,79,253.4,79L253.4,79z"/>
	</g>
	<circle class="st0" cx="-49.8" cy="54.6" r="19.6"/>
	<circle class="st2" cx="-53.7" cy="108.6" r="19.6"/>
	<circle class="st1" cx="-53.7" cy="167.2" r="19.6"/>
	<circle class="st3" cx="-53.7" cy="220.7" r="19.6"/>
	<g>
		<path class="st4" d="M253.4,436.5c-32.3,0-63.9-8.8-91.4-25.4c1.6-22.8,11.6-44.1,28.4-60.1c17.2-16.4,39.7-25.5,63.4-25.5
			c24.5,0,47.5,9.6,65,27c15.7,15.7,25.1,36.3,26.8,58.2C317.8,427.7,286,436.5,253.4,436.5z"/>
		<path class="st1" d="M253.7,328.6c23.7,0,46,9.3,62.8,26.1c14.7,14.7,23.8,33.9,25.7,54.4c-26.8,15.9-57.5,24.4-88.9,24.4
			c-31.2,0-61.6-8.3-88.3-24c1.9-21.4,11.5-41.2,27.3-56.3C209.1,337.4,230.8,328.6,253.7,328.6 M253.7,322.6
			c-50.6,0-92.3,40.1-94.9,90.2c27.5,17,59.9,26.8,94.5,26.8c34.9,0,67.5-9.9,95.2-27.1c-1.3-24.1-11.7-45.8-27.8-61.9
			C303.6,333.3,279.8,322.6,253.7,322.6L253.7,322.6z"/>
	</g>
	<polyline class="st5" points="94.1,113.4 149.4,201.1 253.4,259.3 250.3,157.9 316.5,138.9 	"/>
	<line class="st5" x1="149.4" y1="201.1" x2="125.4" y2="276.1"/>
	<line class="st5" x1="250.3" y1="157.9" x2="194" y2="90.1"/>
	<polyline class="st5" points="253.4,259.3 365.8,322.6 394.3,240.8 	"/>
	<line class="st5" x1="365.8" y1="322.6" x2="400.7" y2="396.5"/>
	<path class="st6" d="M365.8,322.6"/>
	<circle class="st2" cx="250.3" cy="157.9" r="19.5"/>
	<circle class="st2" cx="149.4" cy="201.1" r="19.5"/>
	<circle class="st2" cx="125.4" cy="276.1" r="13.2"/>
	<circle class="st2" cx="365.8" cy="322.6" r="19.5"/>
	<circle class="st2" cx="94.1" cy="113.4" r="13.2"/>
	<circle class="st2" cx="400.7" cy="396.5" r="13.2"/>
	<circle class="st2" cx="194" cy="90.1" r="13.2"/>
	<circle class="st2" cx="316.5" cy="138.9" r="13.2"/>
	<circle class="st2" cx="394.3" cy="240.8" r="13.2"/>
	<circle class="st2" cx="144.7" cy="336" r="6.1"/>
	<circle class="st2" cx="165.8" cy="146.5" r="6.1"/>
	<circle class="st2" cx="328.3" cy="217.1" r="6.1"/>
	<circle class="st2" cx="109.1" cy="66.1" r="6.1"/>
	<circle class="st2" cx="47.4" cy="140.4" r="6.1"/>
	<circle class="st2" cx="344.7" cy="84" r="6.1"/>
	<circle class="st2" cx="256.4" cy="42.6" r="6.1"/>
	<circle class="st2" cx="71" cy="272.6" r="6.1"/>
	<circle class="st2" cx="420.1" cy="332.8" r="6.1"/>
	<circle class="st2" cx="371.9" cy="164" r="6.1"/>
	<circle class="st2" cx="459.4" cy="217.1" r="6.1"/>
	<circle class="st2" cx="350.9" cy="428.9" r="6.1"/>
	<g>
		<path class="st3" d="M253.4,306.9c-26.2,0-47.6-21.4-47.6-47.6s21.4-47.6,47.6-47.6c26.2,0,47.6,21.4,47.6,47.6
			S279.6,306.9,253.4,306.9z"/>
		<path class="st1" d="M253.4,214.7c24.6,0,44.6,20,44.6,44.6c0,24.6-20,44.6-44.6,44.6s-44.6-20-44.6-44.6
			C208.8,234.7,228.8,214.7,253.4,214.7 M253.4,208.7c-27.9,0-50.6,22.7-50.6,50.6s22.7,50.6,50.6,50.6s50.6-22.7,50.6-50.6
			S281.3,208.7,253.4,208.7L253.4,208.7z"/>
	</g>
	<g>
		<circle class="st0" cx="253.4" cy="259.3" r="19.5"/>
	</g>
	<circle class="st2" cx="253.4" cy="259.3" r="9.3"/>
</g>
<g id="Layer_1" class="st7">
	<g class="st8">
		<g>
			<g>
				<path class="st0" d="M428.6,215.7c0.2,0.8,0.4,1.5,0.5,2.3c-0.1-0.4-0.2-0.8-0.3-1.3C428.7,216.4,428.6,216,428.6,215.7z
					 M425.3,312.7c-0.6,1.9-1.2,3.8-1.9,5.6C424.1,316.5,424.7,314.6,425.3,312.7z M419.8,327.6c-0.5,1.2-1,2.4-1.6,3.7
					C418.8,330.1,419.3,328.9,419.8,327.6z M412.9,342.3c0-0.1,0.1-0.1,0.1-0.2c-0.3,0.5-0.6,1.1-0.8,1.6
					C412.4,343.3,412.7,342.8,412.9,342.3z M411.1,345.7c-1,1.8-2,3.6-3.1,5.3C409.1,349.2,410.1,347.5,411.1,345.7z M403,358.9
					c-0.5,0.7-1,1.5-1.6,2.2C402,360.4,402.5,359.6,403,358.9z M353.6,108.6c0.5,0.4,1.1,0.7,1.6,1.1c-0.4-0.3-0.9-0.6-1.4-1
					C353.8,108.7,353.7,108.7,353.6,108.6z M350.4,106.5c0.5,0.3,1.1,0.7,1.6,1.1c-0.4-0.3-0.9-0.6-1.3-0.9
					C350.6,106.6,350.5,106.5,350.4,106.5z M303,260c0-0.5,0-1.1,0-1.6c0,0.6,0,1.2,0,1.8C303,260.1,303,260.1,303,260z
					 M302.7,264.8c0-0.2,0-0.4,0.1-0.5c0,0.2-0.1,0.4-0.1,0.7C302.6,264.9,302.6,264.8,302.7,264.8z M302,268.6
					c0.1-0.2,0.1-0.3,0.1-0.5c0,0.3-0.1,0.6-0.2,0.9C301.9,268.8,302,268.7,302,268.6z M301.3,271.3c0.1-0.5,0.3-1,0.4-1.6
					c0.1-0.3,0.1-0.6,0.2-0.8c-0.1,0.3-0.1,0.6-0.2,0.9C301.6,270.4,301.5,270.9,301.3,271.3z M297.1,234.9c0.1,0.2,0.3,0.5,0.4,0.7
					c-0.1-0.1-0.1-0.2-0.2-0.3C297.3,235.1,297.2,235,297.1,234.9z M288.6,293.3L288.6,293.3c-0.3,0.3-0.5,0.5-0.8,0.8
					C288.1,293.8,288.3,293.6,288.6,293.3z M270.1,211.7c0.4,0.1,0.7,0.3,1.1,0.4c-0.3-0.1-0.6-0.2-1-0.4
					C270.2,211.7,270.1,211.7,270.1,211.7z M237.3,305c-0.7-0.3-1.5-0.5-2.2-0.8C235.8,304.5,236.5,304.8,237.3,305z M228.2,300.8
					c0.1,0.1,0.2,0.1,0.3,0.2c-0.2-0.1-0.4-0.2-0.6-0.3C228,300.7,228.1,300.7,228.2,300.8z M218.7,293.3c0.3,0.3,0.6,0.6,0.9,0.9
					C219.3,293.9,219,293.6,218.7,293.3L218.7,293.3z M216.4,290.9c-0.7-0.8-1.4-1.6-2.1-2.5C215,289.3,215.7,290.1,216.4,290.9z
					 M214.4,288.5c-0.6-0.9-1.3-1.7-1.9-2.6C213.1,286.7,213.7,287.6,214.4,288.5z M204.5,252.8c0-0.2,0-0.5,0.1-0.7
					c0,0.1,0,0.2-0.1,0.2C204.5,252.4,204.5,252.6,204.5,252.8z M204.3,255.4c0-0.3,0-0.6,0.1-0.9c0,0.2,0,0.4-0.1,0.7
					C204.3,255.2,204.3,255.3,204.3,255.4z M158.6,411.3c-1.3-0.8-2.6-1.6-3.9-2.5C156,409.7,157.3,410.5,158.6,411.3z M87.4,189.1
					c0.1-0.4,0.3-0.7,0.4-1.1c0.2-0.5,0.4-1.1,0.7-1.6c-0.3,0.7-0.6,1.5-0.9,2.2C87.5,188.8,87.4,189,87.4,189.1z M80.9,207.4
					c0.3-0.9,0.5-1.8,0.8-2.6c-0.6,2-1.2,4-1.8,6C80.3,209.6,80.6,208.5,80.9,207.4z"/>
			</g>
		</g>
		<g>
			<path class="st0" d="M433.6,256.2c0-0.3,0-0.5,0-0.8c0-0.6,0-1.2,0-1.8c0-0.4,0-0.8,0-1.2c0-0.5,0-1-0.1-1.5c0-0.4,0-0.9,0-1.4
				c-0.1-1.1-0.1-2.1-0.2-3.2c0-0.5-0.1-1-0.1-1.5c0-0.5-0.1-1-0.1-1.5c-0.1-1-0.2-2-0.3-3.1c-0.1-0.6-0.1-1.2-0.2-1.8
				c0-0.4-0.1-0.7-0.1-1.1c-0.1-0.6-0.1-1.3-0.2-1.9c0-0.4-0.1-0.9-0.2-1.3c-0.1-0.8-0.2-1.5-0.3-2.3c-0.2-1.2-0.4-2.5-0.6-3.8
				c-0.1-0.5-0.1-0.9-0.2-1.4c-0.1-0.5-0.2-0.9-0.3-1.4c-0.3-1.4-0.5-2.8-0.8-4.2c-0.1-0.5-0.2-0.9-0.3-1.4
				c-0.1-0.6-0.2-1.1-0.4-1.7c0,0,0-0.1,0-0.1c-0.2-0.8-0.4-1.5-0.5-2.3c0-0.1-0.1-0.3-0.1-0.4c-0.2-0.8-0.4-1.6-0.6-2.4
				c0-0.2-0.1-0.3-0.1-0.5c-0.2-0.6-0.3-1.2-0.5-1.7c-0.1-0.4-0.2-0.7-0.3-1.1c-0.1-0.5-0.3-1-0.4-1.5c-0.1-0.3-0.2-0.6-0.3-1
				c-0.3-1-0.6-2.1-1-3.2c-0.6-1.9-1.2-3.8-1.9-5.6c-0.1-0.4-0.3-0.9-0.5-1.4c-0.3-0.9-0.7-1.9-1-2.8c-0.2-0.5-0.4-0.9-0.5-1.4
				c-0.2-0.6-0.5-1.2-0.7-1.8c-0.2-0.6-0.5-1.2-0.7-1.9c-0.5-1.2-1-2.4-1.6-3.6c-0.2-0.6-0.5-1.2-0.8-1.8c-0.2-0.6-0.5-1.2-0.8-1.8
				c-0.6-1.3-1.2-2.6-1.9-3.9c-0.3-0.5-0.5-1-0.8-1.5c-0.3-0.6-0.6-1.2-0.9-1.8c-0.3-0.5-0.6-1.1-0.8-1.6c-0.1-0.1-0.1-0.2-0.1-0.2
				c-0.3-0.6-0.6-1.2-0.9-1.7c-1-1.8-2-3.6-3.1-5.3c-0.5-0.9-1.1-1.8-1.6-2.6c-0.5-0.9-1.1-1.8-1.7-2.6c-0.6-0.9-1.1-1.7-1.7-2.6
				c-0.5-0.7-1-1.5-1.6-2.3c-0.1-0.2-0.3-0.5-0.4-0.7c-0.4-0.6-0.9-1.3-1.4-1.9c-0.1-0.1-0.2-0.3-0.3-0.4c-0.4-0.6-0.9-1.2-1.3-1.8
				c-0.6-0.8-1.3-1.7-1.9-2.5c-0.4-0.5-0.7-0.9-1.1-1.4c-0.3-0.3-0.5-0.7-0.8-1c-0.3-0.4-0.6-0.7-0.9-1.1c-0.2-0.2-0.4-0.4-0.5-0.7
				c-0.4-0.5-0.8-0.9-1.2-1.4c-0.1-0.2-0.3-0.3-0.4-0.5c-0.4-0.5-0.8-1-1.3-1.4c-0.2-0.3-0.5-0.6-0.8-0.9c-0.5-0.5-0.9-1.1-1.4-1.6
				c-0.2-0.2-0.4-0.4-0.6-0.6c-0.5-0.6-1-1.1-1.5-1.7c-0.5-0.6-1-1.1-1.6-1.6c-0.5-0.5-1-1-1.5-1.6c-0.5-0.6-1.1-1.1-1.7-1.7
				c-0.8-0.8-1.5-1.6-2.3-2.3c-0.4-0.4-0.8-0.8-1.2-1.2c-0.5-0.5-1-1-1.6-1.5c-0.3-0.3-0.6-0.6-0.9-0.8c-0.4-0.3-0.7-0.7-1.1-1
				c-1.5-1.3-2.9-2.6-4.4-3.8c-0.7-0.6-1.3-1.1-2-1.7c-0.6-0.5-1.3-1-1.9-1.5c0,0-0.1-0.1-0.1-0.1c0,0-0.1-0.1-0.1-0.1
				c-0.6-0.4-1.2-0.9-1.7-1.3c-0.6-0.5-1.3-1-1.9-1.4c-0.7-0.5-1.3-1-2-1.5c-0.4-0.3-0.8-0.6-1.2-0.9c-0.5-0.4-1.1-0.8-1.6-1.2
				c-0.5-0.4-1.1-0.7-1.6-1.1c-0.5-0.4-1.1-0.7-1.6-1.1c-0.5-0.4-1.1-0.7-1.6-1.1c-0.6-0.4-1.1-0.7-1.6-1.1c-0.5-0.3-1.1-0.7-1.6-1
				c-31.2-19.4-67-28.4-102.5-27c-1.4,0.1-2.9,0.1-4.3,0.2c-22.2,1.4-44.3,7-64.8,16.6c-1.6,0.7-3.2,1.5-4.8,2.3h0
				c-4.7,2.4-9.3,4.9-13.7,7.7c-1.3,0.8-2.6,1.6-3.9,2.5c-0.2,0.2-0.5,0.3-0.7,0.5c-0.6,0.4-1.2,0.8-1.8,1.2
				c-0.5,0.4-1.1,0.8-1.6,1.1c-0.3,0.2-0.5,0.4-0.8,0.6c-2,1.4-3.9,2.8-5.8,4.3c-0.7,0.5-1.4,1.1-2,1.6c-0.7,0.5-1.4,1.1-2,1.6
				c-0.6,0.5-1.1,0.9-1.7,1.4c-0.4,0.3-0.7,0.6-1.1,0.9c-1.7,1.5-3.4,3-5.1,4.5c-0.6,0.5-1.2,1.1-1.7,1.6c-0.2,0.1-0.3,0.3-0.5,0.4
				c-0.5,0.5-1.1,1-1.6,1.5c-0.6,0.6-1.2,1.2-1.9,1.9c-0.6,0.6-1.1,1.1-1.7,1.7c-0.8,0.8-1.6,1.7-2.4,2.5c-0.7,0.7-1.3,1.4-2,2.2
				c-0.8,0.9-1.6,1.8-2.4,2.7c-0.5,0.6-1,1.1-1.4,1.7l-0.1,0c-1.2,1.4-2.4,2.9-3.6,4.4c-0.7,0.9-1.5,1.8-2.2,2.8
				c-0.3,0.5-0.7,0.9-1,1.4c-0.2,0.3-0.4,0.5-0.6,0.7c-0.4,0.5-0.7,0.9-1,1.4c-0.3,0.4-0.5,0.8-0.8,1.1c-0.4,0.6-0.9,1.3-1.3,1.9
				c0,0,0,0.1,0,0.1c-0.5,0.8-1.1,1.6-1.6,2.4c-0.5,0.8-1.1,1.6-1.6,2.4c-0.5,0.8-1,1.6-1.5,2.4c-0.5,0.8-1,1.6-1.5,2.4
				c-0.5,0.8-1,1.6-1.4,2.5c-0.4,0.6-0.7,1.1-1,1.7c-0.3,0.5-0.6,1.1-0.9,1.6c0,0.1-0.1,0.1-0.1,0.2c-0.3,0.5-0.5,0.9-0.7,1.4
				c-0.5,0.8-0.9,1.6-1.3,2.5c-0.2,0.3-0.4,0.7-0.5,1c-0.9,1.8-1.8,3.7-2.7,5.5c-0.3,0.6-0.5,1.1-0.7,1.6c-0.1,0.2-0.2,0.4-0.3,0.6
				c-0.2,0.4-0.4,0.8-0.5,1.1c-0.2,0.5-0.4,1-0.7,1.5c-0.2,0.6-0.5,1.1-0.7,1.6c-0.1,0.4-0.3,0.7-0.4,1.1c-0.1,0.2-0.1,0.3-0.2,0.5
				c-0.2,0.5-0.4,1-0.6,1.6c0,0.1-0.1,0.2-0.1,0.2c-0.3,0.7-0.5,1.4-0.8,2.1c0,0.1-0.1,0.1-0.1,0.2c-0.3,0.8-0.6,1.6-0.9,2.3
				c-0.3,0.8-0.6,1.6-0.9,2.4c-0.3,0.8-0.6,1.7-0.8,2.5c0,0.1-0.1,0.2-0.1,0.3c-0.2,0.5-0.4,1.1-0.5,1.6c-0.2,0.6-0.4,1.2-0.6,1.8v0
				c-0.3,0.9-0.5,1.8-0.8,2.6c-0.3,1.1-0.7,2.2-1,3.4c0,0,0,0.1,0,0.1c-0.1,0.5-0.3,1.1-0.4,1.6c-0.1,0.6-0.3,1.1-0.4,1.7
				c-0.1,0.5-0.3,1.1-0.4,1.6c-0.1,0.5-0.2,1.1-0.4,1.6c-0.3,1.3-0.6,2.6-0.8,3.9c-0.1,0.6-0.2,1.1-0.4,1.7c-0.1,0.5-0.2,1-0.3,1.5
				c-0.1,0.4-0.2,0.9-0.2,1.4c-0.1,0.6-0.2,1.1-0.3,1.7c-0.5,2.9-1,5.8-1.3,8.7c-0.1,0.8-0.2,1.6-0.3,2.4c-0.1,0.7-0.2,1.5-0.2,2.2
				c0,0.4-0.1,0.9-0.1,1.3c-0.1,0.5-0.1,1-0.1,1.5c0,0.2,0,0.4,0,0.6c-0.1,0.8-0.1,1.6-0.2,2.4c-0.1,1-0.1,2-0.2,2.9
				c0,1-0.1,1.9-0.1,2.9v0.1c0,0.9-0.1,1.7-0.1,2.6c0,0.1,0,0.3,0,0.4c0,0.9,0,1.9,0,2.8v0c0,0.9,0,1.9,0,2.8c0,0.1,0,0.3,0,0.4
				c0,0.9,0.1,1.7,0.1,2.6v0.1c0,1,0.1,1.9,0.1,2.9c0.1,1,0.1,2,0.2,2.9c0.1,0.8,0.1,1.6,0.2,2.4c0,0.2,0,0.4,0,0.6
				c0,0.5,0.1,1,0.1,1.5c0,0.4,0.1,0.9,0.1,1.3c0.1,0.7,0.1,1.5,0.2,2.2c0.1,0.8,0.2,1.6,0.3,2.4c0.4,3.5,1,6.9,1.6,10.4
				c0.1,0.5,0.2,0.9,0.2,1.4c0.1,0.5,0.2,1,0.3,1.5c0.1,0.6,0.2,1.1,0.4,1.7c0.3,1.3,0.5,2.6,0.8,3.9c0.1,0.5,0.2,1.1,0.4,1.6
				c0.1,0.5,0.3,1.1,0.4,1.6c0.1,0.6,0.3,1.1,0.4,1.7c0.1,0.5,0.3,1,0.4,1.6c0,0.1,0,0.1,0,0.2c0.3,1.1,0.6,2.2,1,3.4
				c0.3,0.9,0.5,1.8,0.8,2.6v0c0.2,0.6,0.4,1.2,0.6,1.8c0.2,0.5,0.4,1.1,0.5,1.6c0.3,0.9,0.6,1.8,0.9,2.7c0.3,0.8,0.6,1.6,0.9,2.4
				c0.3,0.8,0.6,1.6,0.9,2.3c0,0.1,0,0.1,0.1,0.2c0.3,0.7,0.5,1.4,0.8,2.1c0.2,0.6,0.5,1.2,0.7,1.8c0.1,0.2,0.1,0.3,0.2,0.5
				c0.1,0.4,0.3,0.7,0.4,1.1c0.2,0.5,0.4,1.1,0.7,1.6c0.2,0.5,0.4,1,0.7,1.4c0.3,0.6,0.5,1.2,0.8,1.8c0.2,0.5,0.5,1.1,0.7,1.6
				c0.9,1.8,1.8,3.7,2.7,5.5c0.2,0.3,0.4,0.7,0.5,1c0.4,0.8,0.9,1.7,1.3,2.5c0.2,0.4,0.5,0.9,0.7,1.4c0,0.1,0.1,0.1,0.1,0.2
				c0.3,0.5,0.6,1.1,0.9,1.6c0.3,0.6,0.6,1.1,1,1.7c0.5,0.8,1,1.6,1.4,2.4c0.5,0.8,1,1.6,1.5,2.4c0.5,0.8,1,1.6,1.5,2.4
				c0.5,0.8,1.1,1.6,1.6,2.4c0.5,0.8,1.1,1.6,1.6,2.4c0,0,0,0.1,0,0.1c0.5,0.6,0.9,1.3,1.3,1.9c0.3,0.4,0.5,0.8,0.8,1.1
				c0.4,0.5,0.7,0.9,1,1.4c0.2,0.3,0.4,0.5,0.6,0.7c0.3,0.5,0.7,0.9,1,1.4c0.7,0.9,1.4,1.8,2.2,2.8c1.2,1.5,2.4,2.9,3.6,4.4
				c0,0,0,0,0.1,0c0.5,0.6,1,1.1,1.4,1.7c0.8,0.9,1.6,1.8,2.4,2.7c0.7,0.7,1.3,1.5,2,2.2c0.8,0.9,1.6,1.7,2.4,2.6
				c0.6,0.6,1.1,1.1,1.7,1.7c0.6,0.6,1.3,1.3,1.9,1.9c0.5,0.5,1.1,1,1.6,1.5c0.1,0.1,0.3,0.3,0.5,0.4c0.6,0.6,1.1,1.1,1.7,1.6
				c1.7,1.5,3.4,3,5.1,4.5c0.4,0.3,0.7,0.6,1.1,0.9c0.6,0.5,1.1,0.9,1.7,1.4c0.7,0.6,1.3,1.1,2,1.6c0.7,0.5,1.3,1.1,2,1.6
				c1.9,1.5,3.9,2.9,5.8,4.3c0.3,0.2,0.5,0.4,0.8,0.6c0.5,0.4,1.1,0.8,1.6,1.1c0.6,0.4,1.2,0.8,1.8,1.2c0.2,0.1,0.5,0.3,0.7,0.5
				c1.3,0.8,2.6,1.7,3.9,2.5c0-5.3,0-8.8,0-8.8c0-8,0.7-15.4,2.1-22.3c0.5-2.3,1-4.5,1.6-6.6c1.3-4.4,2.8-8.7,4.7-12.7
				c2.7-5.7,5.9-10.8,9.5-15.2c1-1.2,2-2.3,3-3.4c3.1-3.3,6.4-6.1,10.1-8.5c9.5-6.3,19.6-11,30.3-14c10.7-3,22-4.5,34.1-4.5
				c12,0,23.3,1.5,33.9,4.5c4.8,1.4,9.4,3.1,14,5.1c1.1,0.5,2.3,1,3.4,1.6c4.3,2.1,8.5,4.5,12.7,7.3c9.5,6.3,17,15.3,22.6,27.1
				c5.6,11.7,8.4,25.6,8.4,41.6v8.8c0.5-0.3,1.1-0.7,1.6-1c1.1-0.7,2.2-1.4,3.3-2.1c0.5-0.4,1.1-0.7,1.6-1.1
				c0.5-0.4,1.1-0.7,1.6-1.1c0.5-0.4,1.1-0.8,1.6-1.2c0.4-0.3,0.8-0.6,1.2-0.9c0.7-0.5,1.3-1,2-1.5c0.6-0.5,1.3-0.9,1.9-1.4
				c0.6-0.4,1.1-0.9,1.7-1.3c0.1-0.1,0.2-0.1,0.2-0.2c0.6-0.5,1.3-1,1.9-1.5c0.7-0.5,1.3-1.1,2-1.7c1.5-1.2,2.9-2.5,4.4-3.8
				c0.4-0.3,0.7-0.7,1.1-1c0.3-0.3,0.6-0.6,0.9-0.9c0.5-0.5,1-1,1.6-1.5c0.4-0.4,0.8-0.8,1.2-1.2c0.8-0.7,1.6-1.5,2.3-2.3
				c0.6-0.6,1.1-1.1,1.7-1.7c0.5-0.5,1-1,1.5-1.6c0.5-0.5,1-1.1,1.6-1.6c0.7-0.8,1.4-1.5,2.1-2.3c0.5-0.5,1-1.1,1.4-1.6
				c0.3-0.3,0.5-0.6,0.8-0.9c0.4-0.5,0.9-1,1.3-1.4c0.1-0.2,0.3-0.3,0.4-0.5c0.4-0.5,0.8-0.9,1.2-1.4c0.2-0.2,0.4-0.4,0.5-0.7
				c0.3-0.4,0.6-0.7,0.9-1.1c0.3-0.3,0.6-0.7,0.8-1c0.4-0.5,0.7-0.9,1.1-1.4c0.7-0.8,1.3-1.7,1.9-2.5c0.5-0.6,0.9-1.2,1.3-1.8
				c0.1-0.1,0.2-0.3,0.3-0.4c0.5-0.6,0.9-1.3,1.4-1.9c0.2-0.2,0.3-0.4,0.4-0.7c0.5-0.7,1.1-1.5,1.6-2.2c0.6-0.9,1.2-1.7,1.7-2.6
				c0.5-0.9,1.1-1.7,1.7-2.6c0.5-0.9,1.1-1.7,1.6-2.6c1.1-1.8,2.1-3.5,3.1-5.3c0.3-0.6,0.6-1.1,0.9-1.7c0.1-0.1,0.1-0.2,0.1-0.2
				c0.3-0.5,0.6-1.1,0.8-1.6c0.3-0.6,0.6-1.2,0.9-1.8c0.3-0.5,0.5-1,0.8-1.5c0.6-1.3,1.3-2.6,1.9-3.9c0.3-0.6,0.6-1.2,0.8-1.8
				c0.3-0.6,0.6-1.2,0.8-1.8c0.5-1.2,1.1-2.5,1.6-3.7c0.2-0.6,0.5-1.2,0.7-1.8c0.3-0.6,0.5-1.2,0.7-1.9c0.2-0.5,0.4-0.9,0.5-1.4
				c0.4-0.9,0.7-1.9,1-2.8c0.2-0.5,0.3-0.9,0.5-1.4c0.7-1.9,1.3-3.7,1.9-5.6c0.3-1.1,0.7-2.1,1-3.2c0.1-0.3,0.2-0.6,0.3-0.9
				c0.1-0.5,0.3-1,0.4-1.5c0.1-0.4,0.2-0.7,0.3-1.1c0.2-0.6,0.3-1.2,0.5-1.7c0-0.2,0.1-0.3,0.1-0.5c0.2-0.8,0.4-1.6,0.6-2.3
				c0-0.1,0.1-0.3,0.1-0.4c0.2-0.8,0.4-1.5,0.5-2.2c0,0,0-0.1,0-0.1c0.1-0.6,0.3-1.1,0.4-1.7c0.1-0.4,0.2-0.9,0.3-1.3v0
				c0.3-1.4,0.6-2.8,0.8-4.2c0.1-0.5,0.2-0.9,0.3-1.4c0.1-0.5,0.2-0.9,0.2-1.4c0.2-1.3,0.4-2.5,0.6-3.8c0-0.3,0.1-0.5,0.1-0.8
				c0.1-0.5,0.1-1,0.2-1.5c0-0.3,0.1-0.6,0.1-0.9l0,0c0-0.1,0-0.2,0-0.4c0.1-0.6,0.2-1.3,0.2-1.9c0.1-0.4,0.1-0.7,0.1-1.1
				c0.1-0.6,0.1-1.2,0.2-1.9c0.1-1,0.2-2.1,0.3-3.1c0.1-0.5,0.1-1,0.1-1.5c0-0.5,0.1-1,0.1-1.5c0.1-1.1,0.1-2.1,0.2-3.2
				c0-0.5,0-0.9,0-1.4c0-0.5,0-1,0.1-1.5c0-0.4,0-0.8,0-1.2c0-0.6,0-1.2,0-1.8c0-0.3,0-0.5,0-0.8c0-0.7,0-1.4,0-2.1v-0.1
				C433.6,257.6,433.6,256.9,433.6,256.2z M303.1,258.4c0,0.5,0,1.1,0,1.6c0,0.1,0,0.2,0,0.2c0,0.8-0.1,1.6-0.1,2.4
				c0,0.4-0.1,0.7-0.1,1.1c0,0.2,0,0.4-0.1,0.5c0,0.2,0,0.3-0.1,0.5c0,0,0,0.1,0,0.1s0,0.1,0,0.1c0,0.1,0,0.3-0.1,0.4
				c-0.1,0.7-0.2,1.3-0.3,2c0,0.2-0.1,0.4-0.1,0.6c0,0.2-0.1,0.3-0.1,0.5c0,0.1,0,0.3-0.1,0.4c0,0.3-0.1,0.6-0.2,0.8
				c-0.1,0.5-0.3,1-0.4,1.6c-0.1,0.5-0.3,1-0.4,1.5c0,0.2-0.1,0.3-0.1,0.5c-0.1,0.2-0.1,0.4-0.2,0.5c-0.1,0.2-0.2,0.5-0.2,0.7
				c-0.2,0.6-0.4,1.1-0.6,1.7c-0.2,0.7-0.5,1.3-0.8,2c-0.1,0.3-0.3,0.6-0.4,0.9c-0.1,0.3-0.2,0.5-0.4,0.8c-0.1,0.1-0.1,0.3-0.2,0.4
				c-0.1,0.3-0.3,0.6-0.4,0.8c-0.1,0.1-0.1,0.2-0.2,0.3c-0.1,0.1-0.1,0.3-0.2,0.4c-0.1,0.2-0.2,0.4-0.4,0.6
				c-0.1,0.2-0.2,0.4-0.3,0.5c-0.1,0.2-0.3,0.4-0.4,0.7c-0.1,0.2-0.3,0.5-0.4,0.7c-0.2,0.4-0.4,0.7-0.6,1c0,0,0,0,0,0
				c-0.2,0.4-0.5,0.7-0.7,1c-0.1,0.1-0.2,0.2-0.2,0.3c-0.3,0.4-0.5,0.8-0.8,1.2c-0.3,0.4-0.6,0.8-1,1.2c-0.3,0.4-0.7,0.8-1,1.2
				c-0.3,0.4-0.7,0.8-1,1.2c-0.3,0.3-0.5,0.6-0.8,0.9c-0.3,0.3-0.6,0.6-0.9,0.9v0c-0.3,0.3-0.5,0.5-0.8,0.8c-0.3,0.3-0.6,0.6-1,0.9
				c-0.3,0.3-0.7,0.6-1,0.9c-0.3,0.2-0.5,0.4-0.8,0.7l0,0c-0.3,0.2-0.5,0.4-0.8,0.7c-0.2,0.2-0.5,0.4-0.7,0.5
				c-0.2,0.1-0.3,0.3-0.5,0.4c-0.3,0.2-0.5,0.4-0.7,0.5c-0.2,0.2-0.5,0.3-0.7,0.5c-0.2,0.1-0.3,0.2-0.5,0.3
				c-0.3,0.2-0.6,0.4-0.9,0.6c-1.2,0.8-2.4,1.5-3.7,2.1c-0.3,0.2-0.6,0.3-0.9,0.5c-0.3,0.2-0.6,0.3-1,0.5c-0.2,0.1-0.4,0.2-0.7,0.3
				c-0.2,0.1-0.4,0.2-0.7,0.3c-0.3,0.2-0.7,0.3-1,0.4c-0.4,0.1-0.7,0.3-1.1,0.4c-0.3,0.1-0.6,0.2-1,0.3c0,0-0.1,0-0.1,0
				c-0.5,0.2-0.9,0.3-1.4,0.5c-0.2,0.1-0.5,0.2-0.7,0.2c-0.4,0.1-0.7,0.2-1.1,0.3c-0.3,0.1-0.6,0.2-0.9,0.2
				c-0.2,0.1-0.4,0.1-0.5,0.1c-0.3,0.1-0.6,0.2-1,0.2c-0.3,0.1-0.6,0.1-0.9,0.2c-0.4,0.1-0.7,0.1-1.1,0.2c-0.4,0.1-0.7,0.1-1.1,0.2
				c-0.3,0-0.7,0.1-1,0.2c-0.4,0-0.7,0.1-1,0.1c-0.3,0-0.6,0.1-0.8,0.1c-0.3,0-0.6,0.1-0.9,0.1c-0.5,0-1,0.1-1.5,0.1
				c-0.4,0-0.8,0-1.2,0c-0.4,0-0.8,0-1.3,0c-0.4,0-0.9,0-1.3,0c-0.3,0-0.6,0-0.9,0c-0.4,0-0.7,0-1.1-0.1c-0.3,0-0.5,0-0.8-0.1
				c-0.3,0-0.5,0-0.8-0.1c-0.7-0.1-1.4-0.2-2.1-0.3c-0.4-0.1-0.7-0.1-1.1-0.2c-0.1,0-0.1,0-0.2,0c-0.4-0.1-0.7-0.1-1.1-0.2
				c-0.4-0.1-0.8-0.1-1.2-0.2c-1.3-0.3-2.5-0.6-3.8-1c-0.2-0.1-0.5-0.1-0.7-0.2c-0.4-0.1-0.8-0.3-1.3-0.4c-0.7-0.3-1.5-0.5-2.2-0.8
				c-0.4-0.2-0.8-0.3-1.2-0.5c-0.3-0.1-0.7-0.3-1-0.4c-0.3-0.1-0.6-0.3-0.9-0.4c-0.1,0-0.1-0.1-0.2-0.1c-0.4-0.2-0.7-0.4-1.1-0.6
				c-0.4-0.2-0.7-0.4-1.1-0.6c-0.4-0.2-0.7-0.4-1.1-0.6c-0.1,0-0.2-0.1-0.3-0.2c-0.1,0-0.2-0.1-0.3-0.2c-0.5-0.3-1-0.6-1.5-0.9
				c-0.2-0.1-0.4-0.3-0.6-0.4c-0.3-0.2-0.5-0.4-0.8-0.5c-0.9-0.6-1.8-1.3-2.7-2c-0.3-0.3-0.6-0.5-0.9-0.8c-0.3-0.3-0.7-0.5-1-0.8
				c-0.3-0.3-0.6-0.6-0.9-0.9c-0.3-0.3-0.6-0.6-0.9-0.9v0c-0.4-0.4-0.7-0.8-1.1-1.2c0,0,0,0,0,0c-0.4-0.4-0.7-0.8-1.1-1.2
				c-0.7-0.8-1.4-1.6-2.1-2.5c-0.7-0.9-1.3-1.7-1.9-2.6c-0.2-0.4-0.5-0.7-0.7-1.1c-0.1-0.1-0.2-0.3-0.3-0.5
				c-0.2-0.4-0.4-0.7-0.7-1.1c-0.2-0.3-0.4-0.6-0.5-0.9c-0.1-0.2-0.2-0.4-0.4-0.7c-0.5-1-1.1-2.1-1.5-3.2c-0.1-0.3-0.3-0.5-0.3-0.8
				c-0.2-0.5-0.4-1-0.6-1.6c-0.1-0.2-0.2-0.4-0.2-0.6c-0.5-1.4-0.9-2.7-1.3-4.1c-0.1-0.4-0.2-0.7-0.3-1.1c-0.5-1.8-0.8-3.7-1.1-5.6
				c0-0.1,0-0.1-0.1-0.2c0-0.2,0-0.3,0-0.5c0-0.2,0-0.3,0-0.5c0-0.3-0.1-0.6-0.1-0.9c0-0.1,0-0.2,0-0.3c0-0.2,0-0.4-0.1-0.7
				c0-0.1,0-0.1,0-0.2c0-0.4,0-0.8-0.1-1.1c0-1.3,0-2.5,0-3.7c0-0.4,0.1-0.8,0.1-1.1c0-0.1,0-0.1,0-0.2c0-0.2,0-0.5,0.1-0.7
				c0-0.1,0-0.2,0-0.3c0-0.3,0-0.6,0.1-0.9c0-0.2,0-0.3,0-0.5c0-0.2,0-0.3,0-0.5c0-0.1,0-0.1,0.1-0.2c0.1-0.7,0.2-1.5,0.3-2.2
				c0.2-1.2,0.4-2.3,0.7-3.4c0-0.1,0-0.1,0-0.2c0.1-0.3,0.2-0.6,0.2-0.9c0.1-0.3,0.2-0.6,0.3-1c0.2-0.6,0.3-1.1,0.5-1.7
				c0.2-0.5,0.3-1,0.5-1.4c0.1-0.2,0.1-0.4,0.2-0.6c0.2-0.5,0.4-1,0.6-1.5c0.1-0.3,0.2-0.5,0.3-0.8c0.1-0.3,0.3-0.6,0.4-1
				c0.3-0.7,0.7-1.5,1.1-2.2c0.1-0.2,0.2-0.5,0.4-0.7c0.2-0.3,0.3-0.6,0.5-0.9c0.2-0.4,0.4-0.8,0.7-1.1c0.1-0.2,0.2-0.3,0.3-0.4
				c0.2-0.4,0.5-0.7,0.7-1.1c0.6-0.9,1.2-1.7,1.9-2.6c0.6-0.9,1.3-1.7,2.1-2.5c0.3-0.4,0.7-0.8,1.1-1.2c0,0,0,0,0,0
				c0.4-0.4,0.8-0.8,1.1-1.2l0,0c0.3-0.3,0.6-0.6,0.9-0.9c0.3-0.3,0.6-0.6,0.9-0.9c0.3-0.3,0.6-0.6,1-0.8c0.3-0.3,0.6-0.5,0.9-0.8
				c0.9-0.7,1.8-1.4,2.7-2c0.3-0.2,0.5-0.4,0.8-0.5c0.2-0.1,0.4-0.3,0.6-0.4c0.5-0.3,1-0.6,1.5-0.9c0.1-0.1,0.2-0.1,0.2-0.2
				c0.1-0.1,0.2-0.1,0.3-0.2c0.4-0.2,0.7-0.4,1.1-0.6c0.4-0.2,0.7-0.4,1.1-0.6c0.4-0.2,0.7-0.4,1.1-0.6c0.1,0,0.1-0.1,0.2-0.1
				c0.3-0.1,0.6-0.3,0.9-0.4c0.3-0.2,0.7-0.3,1-0.4c0.4-0.2,0.8-0.3,1.2-0.5c0.7-0.3,1.5-0.6,2.2-0.8c0.4-0.1,0.8-0.3,1.3-0.4
				c0.2-0.1,0.5-0.1,0.7-0.2c1.3-0.4,2.5-0.7,3.8-1c0.4-0.1,0.8-0.2,1.2-0.2c0.4-0.1,0.7-0.1,1.1-0.2c0.1,0,0.2,0,0.2,0
				c0.4-0.1,0.7-0.1,1.1-0.2c0.7-0.1,1.4-0.2,2.1-0.3c0.3,0,0.6-0.1,0.8-0.1c0.3,0,0.5,0,0.8,0c0.4,0,0.7-0.1,1.1-0.1
				c0.3,0,0.6,0,0.9,0c0.4,0,0.9,0,1.3,0c0.4,0,0.9,0,1.3,0c0.4,0,0.8,0,1.2,0c0,0,0,0,0.1,0c0.4,0,0.9,0.1,1.3,0.1c0,0,0.1,0,0.1,0
				c0.3,0,0.6,0.1,0.9,0.1c0.3,0,0.5,0.1,0.8,0.1c0,0,0.1,0,0.2,0c0.3,0,0.5,0.1,0.8,0.1c0.3,0,0.7,0.1,1,0.2
				c0.4,0.1,0.8,0.1,1.1,0.2c0.4,0.1,0.7,0.1,1.1,0.2c0.3,0.1,0.6,0.1,0.9,0.2c0.3,0.1,0.6,0.2,1,0.2c0.2,0,0.4,0.1,0.5,0.1
				c0.1,0,0.1,0,0.2,0c0.2,0.1,0.5,0.1,0.7,0.2c0.4,0.1,0.7,0.2,1.1,0.3c0.2,0.1,0.5,0.2,0.7,0.2c0.5,0.2,0.9,0.3,1.4,0.5
				c0.1,0,0.1,0,0.1,0c0.3,0.1,0.6,0.2,1,0.4c0.4,0.1,0.7,0.3,1.1,0.4c0.3,0.1,0.7,0.3,1,0.4c0.2,0.1,0.4,0.2,0.7,0.3
				c0.2,0.1,0.4,0.2,0.7,0.3c0.3,0.1,0.6,0.3,1,0.5c0.3,0.1,0.6,0.3,0.9,0.5c1.2,0.7,2.5,1.4,3.7,2.1c0.3,0.2,0.6,0.4,0.9,0.6
				c0.2,0.1,0.3,0.2,0.5,0.3c0.2,0.1,0.5,0.3,0.7,0.5c0.2,0.2,0.5,0.3,0.7,0.5c0.2,0.1,0.3,0.3,0.5,0.4c0.2,0.2,0.5,0.3,0.7,0.5
				c0.3,0.2,0.5,0.4,0.8,0.7l0,0c0.3,0.2,0.5,0.4,0.8,0.7c0.7,0.6,1.3,1.2,2,1.8c0.3,0.3,0.5,0.5,0.8,0.8l0,0
				c0.6,0.6,1.2,1.2,1.7,1.8c0.4,0.4,0.7,0.8,1,1.2c0.3,0.4,0.7,0.8,1,1.2c0.4,0.4,0.7,0.8,1,1.2c0.3,0.4,0.6,0.8,0.8,1.2
				c0.1,0.1,0.2,0.2,0.2,0.3c0.2,0.3,0.5,0.7,0.7,1c0,0,0,0,0,0c0.2,0.3,0.4,0.7,0.6,1c0.1,0.2,0.3,0.4,0.4,0.7
				c0.1,0.2,0.3,0.4,0.4,0.7c0.1,0.2,0.2,0.4,0.3,0.5c0.1,0.2,0.2,0.4,0.4,0.6c0.1,0.1,0.2,0.3,0.2,0.4c0,0.1,0.1,0.2,0.2,0.3
				c0.1,0.3,0.3,0.6,0.4,0.8c0.1,0.2,0.1,0.3,0.2,0.4c0.1,0.3,0.3,0.5,0.4,0.8c0.2,0.3,0.3,0.6,0.4,0.9c0.3,0.7,0.6,1.3,0.8,2
				c0.2,0.6,0.4,1.1,0.6,1.7c0.1,0.2,0.1,0.5,0.2,0.7c0.1,0.3,0.2,0.7,0.3,1c0.2,0.5,0.3,1,0.4,1.5c0.1,0.5,0.3,1,0.4,1.6
				c0.1,0.3,0.1,0.6,0.2,0.8c0,0.1,0.1,0.3,0.1,0.4c0.1,0.2,0.1,0.3,0.1,0.5c0.1,0.6,0.2,1.2,0.4,1.9c0.1,0.4,0.1,0.8,0.2,1.2
				c0,0,0,0.1,0,0.1c0,0,0,0.1,0,0.1c0,0.2,0,0.3,0.1,0.5c0,0.2,0.1,0.3,0.1,0.5c0,0.4,0.1,0.7,0.1,1.1c0.1,0.8,0.1,1.6,0.1,2.4
				c0,0.1,0,0.1,0,0.2C303.1,257.3,303.1,257.8,303.1,258.4L303.1,258.4z"/>
		</g>
		<g>
			<path class="st4" d="M303.1,258.3L303.1,258.3c0,0.6,0,1.1,0,1.7c0,0.1,0,0.2,0,0.2c0,0.8-0.1,1.6-0.1,2.4c0,0.4-0.1,0.7-0.1,1.1
				c0,0.2,0,0.4-0.1,0.5c0,0.2,0,0.3-0.1,0.5c0,0,0,0.1,0,0.1s0,0.1,0,0.1c0,0.1,0,0.3-0.1,0.4c-0.1,0.7-0.2,1.3-0.3,2
				c0,0.2-0.1,0.4-0.1,0.6c0,0.2-0.1,0.3-0.1,0.5c0,0.1,0,0.3-0.1,0.4c0,0.3-0.1,0.6-0.2,0.8c-0.1,0.5-0.3,1-0.4,1.6
				c-0.1,0.5-0.3,1-0.4,1.5c0,0.2-0.1,0.3-0.1,0.5c-0.1,0.2-0.1,0.4-0.2,0.5c-0.1,0.2-0.2,0.5-0.2,0.7c-0.2,0.6-0.4,1.1-0.6,1.7
				c-0.2,0.7-0.5,1.3-0.8,2c-0.1,0.3-0.3,0.6-0.4,0.9c-0.1,0.3-0.2,0.5-0.4,0.8c-0.1,0.1-0.1,0.3-0.2,0.4c-0.1,0.3-0.3,0.6-0.4,0.8
				c-0.1,0.1-0.1,0.2-0.2,0.3c-0.1,0.1-0.1,0.3-0.2,0.4c-0.1,0.2-0.2,0.4-0.4,0.6c-0.1,0.2-0.2,0.4-0.3,0.5
				c-0.1,0.2-0.3,0.4-0.4,0.7c-0.1,0.2-0.3,0.5-0.4,0.7c-0.2,0.4-0.4,0.7-0.6,1c0,0,0,0,0,0c-0.2,0.4-0.5,0.7-0.7,1
				c-0.1,0.1-0.2,0.2-0.2,0.3c-0.3,0.4-0.5,0.8-0.8,1.2c-0.3,0.4-0.6,0.8-1,1.2c-0.3,0.4-0.7,0.8-1,1.2c-0.3,0.4-0.7,0.8-1,1.2
				c-0.3,0.3-0.5,0.6-0.8,0.9c-0.3,0.3-0.6,0.6-0.9,0.9v0c-0.3,0.3-0.5,0.5-0.8,0.8c-0.3,0.3-0.6,0.6-1,0.9c-0.3,0.3-0.7,0.6-1,0.9
				c-0.3,0.2-0.5,0.4-0.8,0.7l0,0c-0.3,0.2-0.5,0.4-0.8,0.7c-0.2,0.2-0.5,0.4-0.7,0.5c-0.2,0.1-0.3,0.3-0.5,0.4
				c-0.3,0.2-0.5,0.4-0.7,0.5c-0.2,0.2-0.5,0.3-0.7,0.5c-0.2,0.1-0.3,0.2-0.5,0.3c-0.3,0.2-0.6,0.4-0.9,0.6
				c-1.2,0.8-2.4,1.5-3.7,2.1c-0.3,0.2-0.6,0.3-0.9,0.5c-0.3,0.2-0.6,0.3-1,0.5c-0.2,0.1-0.4,0.2-0.7,0.3c-0.2,0.1-0.4,0.2-0.7,0.3
				c-0.3,0.2-0.7,0.3-1,0.4c-0.4,0.1-0.7,0.3-1.1,0.4c-0.3,0.1-0.6,0.2-1,0.3c0,0-0.1,0-0.1,0c-0.5,0.2-0.9,0.3-1.4,0.5
				c-0.2,0.1-0.5,0.2-0.7,0.2c-0.4,0.1-0.7,0.2-1.1,0.3c-0.3,0.1-0.6,0.2-0.9,0.2c-0.2,0.1-0.4,0.1-0.5,0.1c-0.3,0.1-0.6,0.2-1,0.2
				c-0.3,0.1-0.6,0.1-0.9,0.2c-0.4,0.1-0.7,0.1-1.1,0.2c-0.4,0.1-0.7,0.1-1.1,0.2c-0.3,0-0.7,0.1-1,0.2c-0.4,0-0.7,0.1-1,0.1
				c-0.3,0-0.6,0.1-0.8,0.1c-0.3,0-0.6,0.1-0.9,0.1c-0.5,0-1,0.1-1.5,0.1c-0.4,0-0.8,0-1.2,0c-0.4,0-0.8,0-1.3,0c-0.4,0-0.9,0-1.3,0
				c-0.3,0-0.6,0-0.9,0c-0.4,0-0.7,0-1.1-0.1c-0.3,0-0.5,0-0.8-0.1c-0.3,0-0.5,0-0.8-0.1c-0.7-0.1-1.4-0.2-2.1-0.3
				c-0.4-0.1-0.7-0.1-1.1-0.2c-0.1,0-0.1,0-0.2,0c-0.4-0.1-0.7-0.1-1.1-0.2c-0.4-0.1-0.8-0.1-1.2-0.2c-1.3-0.3-2.5-0.6-3.8-1
				c-0.2-0.1-0.5-0.1-0.7-0.2c-0.4-0.1-0.8-0.3-1.3-0.4c-0.7-0.3-1.5-0.5-2.2-0.8c-0.4-0.2-0.8-0.3-1.2-0.5c-0.3-0.1-0.7-0.3-1-0.4
				c-0.3-0.1-0.6-0.3-0.9-0.4c-0.1,0-0.1-0.1-0.2-0.1c-0.4-0.2-0.7-0.4-1.1-0.6c-0.4-0.2-0.7-0.4-1.1-0.6c-0.4-0.2-0.7-0.4-1.1-0.6
				c-0.1,0-0.2-0.1-0.3-0.2c-0.1,0-0.2-0.1-0.3-0.2c-0.5-0.3-1-0.6-1.5-0.9c-0.2-0.1-0.4-0.3-0.6-0.4c-0.3-0.2-0.5-0.4-0.8-0.5
				c-0.9-0.6-1.8-1.3-2.7-2c-0.3-0.3-0.6-0.5-0.9-0.8c-0.3-0.3-0.7-0.5-1-0.8c-0.3-0.3-0.6-0.6-0.9-0.9c-0.3-0.3-0.6-0.6-0.9-0.9v0
				c-0.4-0.4-0.7-0.8-1.1-1.2c0,0,0,0,0,0c-0.4-0.4-0.7-0.8-1.1-1.2c-0.7-0.8-1.4-1.6-2.1-2.5c-0.7-0.9-1.3-1.7-1.9-2.6
				c-0.2-0.4-0.5-0.7-0.7-1.1c-0.1-0.1-0.2-0.3-0.3-0.5c-0.2-0.4-0.4-0.7-0.7-1.1c-0.2-0.3-0.4-0.6-0.5-0.9
				c-0.1-0.2-0.2-0.4-0.4-0.7c-0.5-1-1.1-2.1-1.5-3.2c-0.1-0.3-0.3-0.5-0.3-0.8c-0.2-0.5-0.4-1-0.6-1.6c-0.1-0.2-0.2-0.4-0.2-0.6
				c-0.5-1.4-0.9-2.7-1.3-4.1c-0.1-0.4-0.2-0.7-0.3-1.1c-0.5-1.8-0.8-3.7-1.1-5.6c0-0.1,0-0.1-0.1-0.2c0-0.2,0-0.3,0-0.5
				c0-0.2,0-0.3,0-0.5c0-0.3-0.1-0.6-0.1-0.9c0-0.1,0-0.2,0-0.3c0-0.2,0-0.4-0.1-0.7c0-0.1,0-0.1,0-0.2c0-0.4,0-0.8-0.1-1.1
				c0-1.3,0-2.5,0-3.7c0-0.4,0.1-0.8,0.1-1.1c0-0.1,0-0.1,0-0.2c0-0.2,0-0.5,0.1-0.7c0-0.1,0-0.2,0-0.3c0-0.3,0-0.6,0.1-0.9
				c0-0.2,0-0.3,0-0.5c0-0.2,0-0.3,0-0.5c0-0.1,0-0.1,0.1-0.2c0.1-0.7,0.2-1.5,0.3-2.2c0.2-1.2,0.4-2.3,0.7-3.4c0-0.1,0-0.1,0-0.2
				c0.1-0.3,0.2-0.6,0.2-0.9c0.1-0.3,0.2-0.6,0.3-1c0.2-0.6,0.3-1.1,0.5-1.7c0.2-0.5,0.3-1,0.5-1.4c0.1-0.2,0.1-0.4,0.2-0.6
				c0.2-0.5,0.4-1,0.6-1.5c0.1-0.3,0.2-0.5,0.3-0.8c0.1-0.3,0.3-0.6,0.4-1c0.3-0.7,0.7-1.5,1.1-2.2c0.1-0.2,0.2-0.5,0.4-0.7
				c0.2-0.3,0.3-0.6,0.5-0.9c0.2-0.4,0.4-0.8,0.7-1.1c0.1-0.2,0.2-0.3,0.3-0.4c0.2-0.4,0.5-0.7,0.7-1.1c0.6-0.9,1.2-1.7,1.9-2.6
				c0.6-0.9,1.3-1.7,2.1-2.5c0.3-0.4,0.7-0.8,1.1-1.2c0,0,0,0,0,0c0.4-0.4,0.8-0.8,1.1-1.2l0,0c0.3-0.3,0.6-0.6,0.9-0.9
				c0.3-0.3,0.6-0.6,0.9-0.9c0.3-0.3,0.6-0.6,1-0.8c0.3-0.3,0.6-0.5,0.9-0.8c0.9-0.7,1.8-1.4,2.7-2c0.3-0.2,0.5-0.4,0.8-0.5
				c0.2-0.1,0.4-0.3,0.6-0.4c0.5-0.3,1-0.6,1.5-0.9c0.1-0.1,0.2-0.1,0.2-0.2c0.1-0.1,0.2-0.1,0.3-0.2c0.4-0.2,0.7-0.4,1.1-0.6
				c0.4-0.2,0.7-0.4,1.1-0.6c0.4-0.2,0.7-0.4,1.1-0.6c0.1,0,0.1-0.1,0.2-0.1c0.3-0.1,0.6-0.3,0.9-0.4c0.3-0.2,0.7-0.3,1-0.4
				c0.4-0.2,0.8-0.3,1.2-0.5c0.7-0.3,1.5-0.6,2.2-0.8c0.4-0.1,0.8-0.3,1.3-0.4c0.2-0.1,0.5-0.1,0.7-0.2c1.3-0.4,2.5-0.7,3.8-1
				c0.4-0.1,0.8-0.2,1.2-0.2c0.4-0.1,0.7-0.1,1.1-0.2c0.1,0,0.2,0,0.2,0c0.4-0.1,0.7-0.1,1.1-0.2c0.7-0.1,1.4-0.2,2.1-0.3
				c0.3,0,0.6-0.1,0.8-0.1c0.3,0,0.5,0,0.8,0c0.4,0,0.7-0.1,1.1-0.1c0.3,0,0.6,0,0.9,0c0.4,0,0.9,0,1.3,0c0.4,0,0.9,0,1.3,0
				c0.4,0,0.8,0,1.2,0c0,0,0,0,0.1,0c0.4,0,0.9,0.1,1.3,0.1c0,0,0.1,0,0.1,0c0.3,0,0.6,0.1,0.9,0.1c0.3,0,0.5,0.1,0.8,0.1
				c0,0,0.1,0,0.2,0c0.3,0,0.5,0.1,0.8,0.1c0.3,0,0.7,0.1,1,0.2c0.4,0.1,0.8,0.1,1.1,0.2c0.4,0.1,0.7,0.1,1.1,0.2
				c0.3,0.1,0.6,0.1,0.9,0.2c0.3,0.1,0.6,0.2,1,0.2c0.2,0,0.4,0.1,0.5,0.1c0.1,0,0.1,0,0.2,0c0.2,0.1,0.5,0.1,0.7,0.2
				c0.4,0.1,0.7,0.2,1.1,0.3c0.2,0.1,0.5,0.2,0.7,0.2c0.5,0.2,0.9,0.3,1.4,0.5c0.1,0,0.1,0,0.1,0c0.3,0.1,0.6,0.2,1,0.4
				c0.4,0.1,0.7,0.3,1.1,0.4c0.3,0.1,0.7,0.3,1,0.4c0.2,0.1,0.4,0.2,0.7,0.3c0.2,0.1,0.4,0.2,0.7,0.3c0.3,0.1,0.6,0.3,1,0.5
				c0.3,0.1,0.6,0.3,0.9,0.5c1.2,0.7,2.5,1.4,3.7,2.1c0.3,0.2,0.6,0.4,0.9,0.6c0.2,0.1,0.3,0.2,0.5,0.3c0.2,0.1,0.5,0.3,0.7,0.5
				c0.2,0.2,0.5,0.3,0.7,0.5c0.2,0.1,0.3,0.3,0.5,0.4c0.2,0.2,0.5,0.3,0.7,0.5c0.3,0.2,0.5,0.4,0.8,0.7l0,0c0.3,0.2,0.5,0.4,0.8,0.7
				c0.7,0.6,1.3,1.2,2,1.8c0.3,0.3,0.5,0.5,0.8,0.8l0,0c0.6,0.6,1.2,1.2,1.7,1.8c0.4,0.4,0.7,0.8,1,1.2c0.3,0.4,0.7,0.8,1,1.2
				c0.4,0.4,0.7,0.8,1,1.2c0.3,0.4,0.6,0.8,0.8,1.2c0.1,0.1,0.2,0.2,0.2,0.3c0.2,0.3,0.5,0.7,0.7,1c0,0,0,0,0,0
				c0.2,0.3,0.4,0.7,0.6,1c0.1,0.2,0.3,0.4,0.4,0.7c0.1,0.2,0.3,0.4,0.4,0.7c0.1,0.2,0.2,0.4,0.3,0.5c0.1,0.2,0.2,0.4,0.4,0.6
				c0.1,0.1,0.2,0.3,0.2,0.4c0,0.1,0.1,0.2,0.2,0.3c0.1,0.3,0.3,0.6,0.4,0.8c0.1,0.2,0.1,0.3,0.2,0.4c0.1,0.3,0.3,0.5,0.4,0.8
				c0.2,0.3,0.3,0.6,0.4,0.9c0.3,0.7,0.6,1.3,0.8,2c0.2,0.6,0.4,1.1,0.6,1.7c0.1,0.2,0.1,0.5,0.2,0.7c0.1,0.3,0.2,0.7,0.3,1
				c0.2,0.5,0.3,1,0.4,1.5c0.1,0.5,0.3,1,0.4,1.6c0.1,0.3,0.1,0.6,0.2,0.8c0,0.1,0.1,0.3,0.1,0.4c0.1,0.2,0.1,0.3,0.1,0.5
				c0.1,0.6,0.2,1.2,0.4,1.9c0.1,0.4,0.1,0.8,0.2,1.2c0,0,0,0.1,0,0.1c0,0,0,0.1,0,0.1c0,0.2,0,0.3,0.1,0.5c0,0.2,0.1,0.3,0.1,0.5
				c0,0.4,0.1,0.7,0.1,1.1c0.1,0.8,0.1,1.6,0.1,2.4c0,0.1,0,0.1,0,0.2C303.1,257.3,303.1,257.8,303.1,258.3z"/>
		</g>
		<g>
			<g>
				<path class="st0" d="M428.8,300c0.1-0.4,0.2-0.8,0.3-1.3c-0.2,0.8-0.4,1.5-0.5,2.2C428.6,300.6,428.7,300.3,428.8,300z
					 M425.3,204c-0.6-1.9-1.2-3.8-1.9-5.6C424.1,200.2,424.7,202.1,425.3,204z M419.8,189c-0.5-1.2-1-2.4-1.6-3.6
					C418.8,186.6,419.3,187.8,419.8,189z M412.2,173c0.3,0.5,0.6,1.1,0.8,1.6c0-0.1-0.1-0.1-0.1-0.2
					C412.7,173.9,412.4,173.4,412.2,173z M411.1,171c-1-1.8-2-3.6-3.1-5.3C409.1,167.5,410.1,169.2,411.1,171z M403,157.8
					c-0.5-0.7-1-1.5-1.6-2.3C402,156.3,402.5,157.1,403,157.8z M353.8,408c0.5-0.3,1-0.6,1.4-1c-0.5,0.4-1.1,0.7-1.6,1.1
					C353.7,408.1,353.8,408,353.8,408z M350.7,410c1-0.6,2-1.3,3-1.9c-1.1,0.7-2.2,1.4-3.3,2.1C350.5,410.2,350.6,410.1,350.7,410z
					 M303,256.5c0,0.6,0,1.2,0,1.8c0-0.5,0-1.1,0-1.6C303,256.6,303,256.6,303,256.5z M302.6,251.8c0,0.2,0.1,0.4,0.1,0.6
					c0-0.2,0-0.4-0.1-0.5C302.6,251.9,302.6,251.8,302.6,251.8z M301.9,247.7c0.1,0.3,0.2,0.6,0.2,0.9c0-0.2-0.1-0.3-0.1-0.5
					C302,248,301.9,247.9,301.9,247.7z M301.3,245.4c0.1,0.5,0.3,1,0.4,1.5c0.1,0.3,0.1,0.6,0.2,0.9c0-0.3-0.1-0.6-0.2-0.8
					C301.6,246.4,301.5,245.9,301.3,245.4z M297.4,281.4c0-0.1,0.1-0.2,0.2-0.3c-0.1,0.2-0.3,0.4-0.4,0.7
					C297.2,281.7,297.3,281.6,297.4,281.4z M288.6,223.4L288.6,223.4c-0.3-0.3-0.5-0.5-0.8-0.8C288.1,222.9,288.3,223.1,288.6,223.4
					z M270.2,304.9c0.3-0.1,0.6-0.2,1-0.3c-0.4,0.1-0.7,0.3-1.1,0.4C270.1,305,270.2,305,270.2,304.9z M237.3,211.7
					c-0.7,0.3-1.5,0.5-2.2,0.8C235.8,212.2,236.5,211.9,237.3,211.7z M228,216.1c0.2-0.1,0.4-0.2,0.5-0.3c-0.1,0-0.2,0.1-0.3,0.2
					C228.1,216,228,216,228,216.1z M218.7,223.4c0.3-0.3,0.6-0.6,0.9-0.9C219.3,222.8,219,223.1,218.7,223.4L218.7,223.4z
					 M216.4,225.8c-0.7,0.8-1.4,1.6-2.1,2.5C215.1,227.4,215.7,226.6,216.4,225.8z M214.4,228.2c-0.7,0.9-1.3,1.7-1.9,2.6
					C213.1,229.9,213.8,229.1,214.4,228.2z M204.5,264.4c0,0.1,0,0.1,0.1,0.2c-0.1-0.2-0.1-0.5-0.1-0.7
					C204.5,264.1,204.5,264.3,204.5,264.4z M204.3,261.6c0,0.2,0,0.5,0.1,0.7c0-0.3-0.1-0.6-0.1-0.9
					C204.3,261.4,204.3,261.5,204.3,261.6z M158.6,411.3c-1.3-0.8-2.6-1.6-3.9-2.5C156,409.7,157.3,410.5,158.6,411.3z M87.4,327.6
					c0.1,0.2,0.1,0.3,0.2,0.5c0.3,0.7,0.6,1.5,0.9,2.2c-0.2-0.5-0.5-1.1-0.7-1.6C87.7,328.3,87.5,327.9,87.4,327.6z M80,306
					c0.5,2,1.1,4,1.8,6c-0.3-0.9-0.5-1.8-0.8-2.6C80.6,308.2,80.3,307.1,80,306z"/>
			</g>
		</g>
		<g>
			<path class="st4" d="M348.7,402.4v8.8c-31.2,19.4-67,28.4-102.5,27c-1.4-0.1-2.9-0.1-4.3-0.2c-22.2-1.4-44.3-7-64.8-16.6
				c-1.6-0.8-3.2-1.5-4.8-2.3h0c-4.7-2.4-9.3-5-13.7-7.7c0-5.3,0-8.8,0-8.8c0-8,0.7-15.4,2.1-22.3c0.5-2.3,1-4.5,1.6-6.6
				c1.3-4.4,2.8-8.7,4.7-12.7c2.7-5.7,5.9-10.8,9.5-15.2c1-1.2,2-2.3,3-3.4c3.1-3.3,6.4-6.1,10.1-8.5c9.5-6.3,19.6-11,30.3-14
				c10.7-3,22-4.5,34.1-4.5c12,0,23.3,1.5,33.9,4.5c4.8,1.4,9.4,3.1,14,5.1c1.1,0.5,2.3,1,3.4,1.6c4.3,2.1,8.5,4.5,12.7,7.3
				c9.5,6.3,17,15.3,22.6,27.1C345.9,372.6,348.7,386.5,348.7,402.4z"/>
		</g>
		<g>
			<path class="st0" d="M158.6,411.3c-1.3-0.8-2.6-1.6-3.9-2.5C156,409.7,157.3,410.5,158.6,411.3z"/>
		</g>
		<path class="st0" d="M194.1,423.3c-1.7,0-3.1-1.4-3.1-3.1v-39.1c0-1.7,1.4-3.1,3.1-3.1c1.7,0,3.1,1.4,3.1,3.1v39.1
			C197.2,421.9,195.8,423.3,194.1,423.3z"/>
		<path class="st0" d="M316.3,422.1c-1.7,0-3.1-1.4-3.1-3.1v-38c0-1.7,1.4-3.1,3.1-3.1c1.7,0,3.1,1.4,3.1,3.1v38
			C319.4,420.7,318.1,422.1,316.3,422.1z"/>
		<path class="st9" d="M293.9,285.7c-8.8,13-23.6,21.6-40.5,21.6c-26.9,0-48.8-21.9-48.8-48.7c0-8,1.9-15.5,5.3-22.1l-1.6-0.9
			c-3.6,6.9-5.6,14.7-5.6,23c0,27.9,22.7,50.6,50.6,50.6c17.5,0,33-8.9,42.1-22.5L293.9,285.7z"/>
		<path class="st9" d="M304,258.6c0,9-2.4,17.6-6.6,24.9c-0.6,1.1-1.3,2.1-2,3.2l-1.6-1c0.7-1,1.4-2.1,2-3.2
			c4-7.1,6.3-15.2,6.3-23.9c0-26.7-21.7-48.5-48.4-48.7l-0.1-1.9C281.5,208.2,304,230.8,304,258.6z"/>
		<path class="st9" d="M253.8,209.8c-0.1,0-0.3,0-0.4,0c-1.1,0-2.2,0-3.3,0.1c-16.2,1.1-30.2,10.1-38.3,23.2
			c-0.7,1.1-1.3,2.2-1.8,3.3l-1.6-0.9c0.6-1.1,1.2-2.2,1.8-3.3c8.3-13.7,23-23.1,39.8-24.2c1.1-0.1,2.2-0.1,3.4-0.1
			c0.1,0,0.2,0,0.3,0L253.8,209.8z"/>
		<path class="st9" d="M272.2,258.6c0,1.1,0,2.2-0.3,3.2c-0.8,4.4-3,8.3-6.3,11.1c-3.3,2.8-7.6,4.5-12.3,4.5
			c-10.4,0-18.8-8.4-18.8-18.8c0-1.3,0.1-2.5,0.4-3.7c0.8-4.4,3.3-8.2,6.6-10.9c1.6-1.2,3.2-2.2,5-2.9c2.1-0.9,4.4-1.3,6.9-1.3
			c2,0,4,0.3,5.8,0.9C266.8,243.2,272.2,250.3,272.2,258.6z"/>
		<path class="st0" d="M332.8,68.7c0,2.7-1.9,4.9-4.5,5.4c-0.3,0.1-0.7,0.1-1.1,0.1c-1,0-1.9-0.2-2.6-0.7c-1.7-0.9-2.9-2.8-2.9-4.8
			c0-3,2.4-5.5,5.5-5.5C330.3,63.2,332.8,65.6,332.8,68.7z"/>
		<polygon class="st9" points="250.3,157.9 250.3,157.9 250.3,157.9 		"/>
		<path class="st9" d="M252.1,103.2c0,3.1-2.4,5.5-5.5,5.5c-0.1,0-0.2,0-0.2,0c-0.2,0-0.4,0-0.6-0.1c-0.9-0.1-1.8-0.5-2.5-1.1
			c-0.1-0.1-0.2-0.2-0.3-0.3c-0.1-0.1-0.3-0.3-0.4-0.5c-0.6-0.7-1-1.5-1.2-2.4c-0.1-0.4-0.2-0.8-0.2-1.3c0-3,2.5-5.5,5.5-5.5
			C249.6,97.7,252.1,100.2,252.1,103.2z"/>
		<path class="st0" d="M114.6,66.1c0,3-2.4,5.4-5.3,5.5c-0.1,0-0.1,0-0.2,0c-1.3,0-2.4-0.4-3.3-1.1c-1.3-1-2.2-2.6-2.2-4.4
			c0-3.1,2.5-5.5,5.5-5.5C112.2,60.6,114.6,63.1,114.6,66.1z"/>
		<path class="st0" d="M55.8,138.9c0,3-2.5,5.5-5.5,5.5c-3,0-5.5-2.5-5.5-5.5c0-3,2.5-5.5,5.5-5.5c1.4,0,2.6,0.5,3.6,1.3
			c1,0.8,1.6,2,1.8,3.2C55.7,138.3,55.8,138.6,55.8,138.9z"/>
		<path class="st9" d="M128.5,280.2C128.5,280.3,128.4,280.3,128.5,280.2L128.5,280.2L128.5,280.2z"/>
		<path class="st0" d="M75.9,311.7c0,3.1-2.5,5.5-5.5,5.5c-3,0-5.5-2.5-5.5-5.5c0-2.4,1.6-4.5,3.8-5.2c0.5-0.2,1.1-0.3,1.7-0.3
			c0.7,0,1.4,0.1,2,0.4c0.5,0.2,0.9,0.4,1.3,0.7c1,0.8,1.7,1.9,2,3.1C75.9,310.9,75.9,311.3,75.9,311.7z"/>
		<path class="st9" d="M199.6,178.2c0,0.8-0.2,1.5-0.5,2.2c0,0.1-0.1,0.2-0.1,0.2c-0.5,1.1-1.4,1.9-2.5,2.5c-0.1,0-0.1,0.1-0.2,0.1
			c-0.7,0.3-1.5,0.5-2.3,0.5c-3,0-5.5-2.5-5.5-5.5c0-3,2.5-5.5,5.5-5.5c1.2,0,2.3,0.4,3.2,1c1,0.7,1.8,1.8,2.1,3.1
			C199.5,177.3,199.6,177.8,199.6,178.2z"/>
		<path class="st0" d="M455.4,250.3c0,3-2.5,5.5-5.5,5.5c-2,0-3.8-1.1-4.8-2.7c-0.5-0.8-0.8-1.8-0.8-2.8c0-0.3,0-0.6,0.1-0.8
			c0.4-2.6,2.7-4.7,5.4-4.7C452.9,244.8,455.4,247.3,455.4,250.3z"/>
		<path class="st9" d="M380.8,172.8c0,3-2.5,5.5-5.5,5.5c-3,0-5.5-2.5-5.5-5.5c0-0.3,0-0.7,0.1-1c0.2-1.3,0.9-2.4,1.8-3.2
			c1-0.8,2.2-1.3,3.6-1.3C378.3,167.2,380.8,169.7,380.8,172.8z"/>
		<path class="st9" d="M350.2,206.4c0,1.4-0.5,2.6-1.3,3.6c-0.8,0.9-2,1.6-3.2,1.8c-0.3,0.1-0.6,0.1-0.9,0.1c-3.1,0-5.5-2.5-5.5-5.5
			c0-3,2.5-5.5,5.5-5.5C347.8,200.9,350.2,203.3,350.2,206.4z"/>
		<polygon class="st9" points="299.1,367 299.1,367 299.1,367 		"/>
		<path class="st0" d="M253.4,349.1L253.4,349.1c0,1.4-0.5,2.6-1.2,3.5c-1,1.3-2.6,2.1-4.3,2.1c-3,0-5.5-2.5-5.5-5.5
			c0-3,2.4-5.5,5.5-5.5C250.9,343.7,253.3,346.1,253.4,349.1z"/>
		<path class="st0" d="M274.3,408.7L274.3,408.7c0,1.4-0.5,2.6-1.2,3.5c-1,1.3-2.6,2.1-4.3,2.1c-3,0-5.5-2.5-5.5-5.5
			c0-3,2.4-5.5,5.5-5.5C271.9,403.3,274.3,405.7,274.3,408.7z"/>
		<path class="st9" d="M171.3,306.2c0,3-2.5,5.5-5.5,5.5c-3,0-5.5-2.5-5.5-5.5c0-2.6,1.8-4.7,4.2-5.3c0.4-0.1,0.9-0.2,1.3-0.2
			c0.8,0,1.6,0.2,2.4,0.5C170,302.2,171.3,304,171.3,306.2z"/>
		<path class="st9" d="M243,141.4c-1.1,0.5-2.2,1.1-3.2,1.9c-1.9,1.4-3.5,3.1-4.8,5.1c-0.6,1.1-1.2,2.2-1.6,3.4l-1.7-0.8
			c0.4-1.2,1-2.3,1.6-3.4c1.4-2.3,3.3-4.4,5.5-5.9c1-0.7,2.1-1.3,3.2-1.9L243,141.4z"/>
		<path class="st9" d="M270.2,157.9c0,10.1-7.6,18.5-17.4,19.7c-0.8,0.1-1.6,0.1-2.5,0.1c-0.4,0-0.9,0-1.3,0
			c-6-0.4-11.2-3.4-14.6-7.9c-0.8-1-1.4-2.1-2-3.2c-1.3-2.6-2-5.6-2-8.7c0-2.4,0.5-4.8,1.3-6.9l1.7,0.8c-0.7,1.9-1.1,4-1.1,6.1
			c0,2.8,0.6,5.4,1.8,7.8c0.5,1.1,1.2,2.2,2,3.2c3,4,7.7,6.6,12.9,7c0.4,0,0.9,0.1,1.3,0.1c0.8,0,1.6-0.1,2.4-0.2
			c4-0.5,7.6-2.4,10.3-5.1c3.3-3.3,5.3-7.7,5.3-12.7c0-1.1-0.1-2.1-0.3-3.1l1.8-0.5C270.1,155.4,270.2,156.6,270.2,157.9z"/>
		<path class="st9" d="M269.9,154.2L269.9,154.2l-1.8,0.5c-0.2-1.3-0.6-2.5-1-3.6c-2.7-6.6-9.2-11.3-16.7-11.3c-2.6,0-5,0.6-7.3,1.5
			l-0.9-1.6c2.5-1.1,5.3-1.8,8.2-1.8c8.4,0,15.6,5.2,18.5,12.6C269.3,151.8,269.6,153,269.9,154.2z"/>
		<path class="st9" d="M149.4,181c-3.2,0-6.3,0.8-9,2.2l0,0c-1.1,0.6-2.2,1.2-3.1,2c-4.7,3.6-7.7,9.3-7.7,15.7
			c0,8.3,5.1,15.4,12.3,18.4c1.1,0.5,2.3,0.8,3.6,1.1c1.3,0.3,2.6,0.4,4,0.4c6.8,0,12.8-3.4,16.4-8.7c0.7-1,1.3-2.1,1.8-3.3
			c1.1-2.4,1.7-5.1,1.7-7.9C169.3,189.9,160.4,181,149.4,181z M166,207.9c-0.5,1.1-1.1,2.2-1.8,3.3c-0.6,0.9-1.3,1.7-2,2.4
			c-3.2,3.3-7.8,5.3-12.7,5.3c-1.2,0-2.3-0.1-3.4-0.3c-1.3-0.2-2.4-0.6-3.6-1.1c-6.5-2.8-11-9.1-11-16.6c0-5.7,2.7-10.8,6.8-14.1
			c1-0.8,2-1.5,3.1-2c2.4-1.2,5.2-1.9,8-1.9c9.9,0,18,8.1,18,18C167.4,203.4,166.9,205.7,166,207.9z"/>
		<path class="st0" d="M97.8,123.1c-1.1,0.4-2.4,0.7-3.7,0.7c-3,0-5.7-1.4-7.6-3.5l-1.6,1c2.2,2.7,5.5,4.4,9.2,4.4
			c1.7,0,3.3-0.4,4.7-1L97.8,123.1z"/>
		<path class="st0" d="M95.8,102.1l-0.6,1.8c-0.4,0-0.8-0.1-1.2-0.1c-5.5,0-10,4.5-10,10c0,1.1,0.2,2.3,0.6,3.3
			c0.4,1.2,1,2.3,1.8,3.2l-1.6,1c-0.8-1-1.4-2.1-1.9-3.2c-0.5-1.3-0.8-2.7-0.8-4.2c0-6.5,5.3-11.8,11.9-11.8
			C94.7,102,95.2,102,95.8,102.1z"/>
		<path class="st0" d="M106,113.8c0,2.8-0.9,5.3-2.5,7.4c-1.7,2.1-4.1,3.7-6.8,4.3c-0.9,0.2-1.7,0.3-2.7,0.3c-3,0-5.7-1-7.7-2.8
			c-2.1-1.8-3.5-4.2-4-7c-0.1-0.7-0.2-1.4-0.2-2.1c0-6.4,5.1-11.7,11.5-12c0.1,0,0.3,0,0.4,0c2.8,0,5.2,0.9,7.3,2.5
			C104.2,106.5,106,110,106,113.8z"/>
		<path class="st9" d="M316.3,127.1l-0.3,1.9c-5.4,0.2-9.7,4.6-9.7,10c0,0.3,0,0.6,0.1,0.9c0.1,1.3,0.5,2.5,1,3.6l-1.8,0.5
			c-0.5-1.1-0.9-2.3-1-3.6c-0.1-0.5-0.1-0.9-0.1-1.4C304.5,132.4,309.8,127.1,316.3,127.1z"/>
		<path class="st9" d="M327.4,143.1L327.4,143.1c-0.4,1.2-1.1,2.3-1.8,3.2c-2.2,2.7-5.5,4.4-9.2,4.4c-4.8,0-8.9-2.8-10.7-6.8
			l1.8-0.5c1.6,3.2,5,5.5,8.9,5.5c3,0,5.8-1.4,7.6-3.5c0.8-0.9,1.4-2,1.8-3.2L327.4,143.1z"/>
		<path class="st9" d="M328.2,138.9c0,1.5-0.3,2.9-0.8,4.2l-1.6-0.9c0.4-1,0.5-2.1,0.5-3.3c0-4.3-2.8-8-6.6-9.4
			c-1-0.4-2.2-0.6-3.3-0.6c-0.1,0-0.2,0-0.3,0l0.3-1.9h0.1c1.3,0,2.5,0.2,3.6,0.6C324.7,129.2,328.2,133.7,328.2,138.9z"/>
		<path class="st9" d="M328.2,138.9c0,0.7-0.1,1.4-0.2,2.1c-0.5,2.7-1.9,5.2-4,6.9c-2,1.8-4.7,2.8-7.6,2.8c-3.9,0-7.5-1.9-9.6-4.9
			c-1.4-1.9-2.2-4.3-2.2-6.9c0-0.2,0-0.5,0.1-0.8c0.3-5.4,4.3-9.8,9.5-10.8c0.8-0.2,1.5-0.2,2.3-0.2c2,0,4,0.5,5.6,1.5
			C325.6,130.6,328.2,134.5,328.2,138.9z"/>
		<path class="st9" d="M388.7,260.1L388.7,260.1l-1.9,0.4c-1.5-3.7-5.1-6.3-9.3-6.3c-1.1,0-2.2,0.2-3.2,0.6c-1.2,0.4-2.3,1-3.3,1.8
			l-0.9-1.6c1-0.8,2.1-1.4,3.2-1.8c1.3-0.5,2.7-0.8,4.2-0.8C382.6,252.2,387,255.5,388.7,260.1z"/>
		<path class="st9" d="M389.4,264.1c0,6.5-5.3,11.9-11.9,11.9c-1.7,0-3.3-0.3-4.8-1l1-1.6c1.1,0.5,2.4,0.7,3.7,0.7
			c5.5,0,10-4.5,10-10c0-1.3-0.2-2.5-0.7-3.7v0l1.9-0.4c0.4,1.1,0.7,2.4,0.7,3.7C389.4,263.9,389.4,264,389.4,264.1z"/>
		<path class="st9" d="M373.8,273.4l-1,1.6c-1.1-0.5-2.2-1.2-3.1-2c-2.4-2.2-4-5.3-4-8.8c0-3.7,1.7-7.1,4.5-9.3l0.9,1.6
			c-2.2,1.8-3.5,4.6-3.5,7.6c0,2.8,1.2,5.4,3.1,7.2C371.5,272.2,372.6,272.9,373.8,273.4z"/>
		<path class="st9" d="M389.3,264.1c0,0.6-0.1,1.2-0.2,1.8c-0.9,5.6-5.7,9.9-11.6,9.9c-0.9,0-1.8-0.1-2.6-0.3
			c-2.7-0.6-5.1-2.1-6.7-4.3c-1.5-2-2.4-4.5-2.4-7.2c0-2.9,1-5.6,2.8-7.6c1.7-2,4.1-3.4,6.9-3.9c0.7-0.1,1.3-0.2,2-0.2
			c4.3,0,8.1,2.3,10.1,5.8C388.6,259.9,389.3,261.9,389.3,264.1z"/>
		<path class="st0" d="M308.2,359.5l-1.3,1.4c1.3,1.7,2.1,3.8,2.1,6.2c0,5.2-4,9.5-9.1,9.9l-0.2,1.9c6.2-0.4,11.2-5.5,11.2-11.8
			C310.9,364.2,309.9,361.5,308.2,359.5z"/>
		<path class="st0" d="M299.9,377l-0.2,1.9c-0.2,0-0.5,0-0.7,0c-1,0-2-0.1-3-0.4c-5.1-1.3-8.8-6-8.8-11.5c0-0.7,0.1-1.4,0.2-2.1
			l1.8,0.6c-0.1,0.5-0.1,1-0.1,1.5c0,4.5,3,8.4,7.2,9.6c0.9,0.3,1.8,0.4,2.8,0.4C299.4,377,299.6,377,299.9,377z"/>
		<path class="st0" d="M309.6,361.2c-1.4-2.4-3.5-4.3-6.1-5.3c-1.4-0.6-2.9-0.9-4.4-0.9c-3.8,0-7.2,1.7-9.3,4.5
			c-1.7,2-2.7,4.6-2.7,7.5v0.1c0,4.7,2.8,8.8,6.9,10.7c1.5,0.8,3.3,1.2,5.1,1.2c1,0,2-0.1,2.9-0.4c5.2-1.3,9.1-6,9.1-11.6
			C311,364.9,310.5,362.9,309.6,361.2z M299.1,367.1L299.1,367.1L299.1,367.1L299.1,367.1z"/>
		<path class="st9" d="M357,299.5l-1,1.6c4.1,3.3,6.7,8.4,6.7,14c0,9.9-8.1,18-18,18c-3.9,0-7.5-1.2-10.4-3.3l-1.3,1.4
			c3.3,2.4,7.3,3.8,11.7,3.8c10.9,0,19.8-8.9,19.8-19.8C364.6,308.8,361.6,303.1,357,299.5z"/>
		<path class="st9" d="M334.3,329.8l-1.3,1.4c-1-0.7-2-1.6-2.8-2.5c-3.3-3.6-5.4-8.3-5.4-13.6c0-3.2,0.8-6.2,2.1-8.8l1.6,1
			c-1.2,2.4-1.8,5-1.8,7.9c0,4.7,1.8,9,4.8,12.2C332.4,328.2,333.3,329,334.3,329.8z"/>
		<path class="st9" d="M357,299.5l-1,1.6c-1-0.8-2-1.5-3.2-2c-2.4-1.2-5.2-1.9-8.1-1.9c-5.8,0-10.9,2.7-14.2,7c-0.8,1-1.4,2-2,3.2
			l-1.6-1c0.5-1.1,1.2-2.2,2-3.2c3.6-4.8,9.4-7.9,15.8-7.9c3.3,0,6.4,0.8,9.1,2.2C355,298,356,298.7,357,299.5z"/>
		<path class="st9" d="M364.8,315.1c0,11.1-8.9,20.1-20,20.1c-2.7,0-5.2-0.5-7.4-1.4c-4.4-1.7-8-4.9-10.3-9
			c-1.6-2.8-2.4-6.1-2.4-9.7c0-1.4,0.1-2.8,0.4-4.2c1-4.7,3.6-8.7,7.2-11.6c3.4-2.7,7.7-4.4,12.5-4.4c1.5,0,3,0.1,4.4,0.5
			c4.6,1.1,8.6,3.7,11.4,7.3C363.3,306.2,364.8,310.5,364.8,315.1z"/>
		<polygon class="st9" points="250.3,157.9 250.3,157.9 250.3,157.9 		"/>
		<path class="st9" d="M132,264.4c-1.1-0.5-2.3-0.9-3.6-1.1c-0.5-0.1-1.1-0.1-1.7-0.1c-6.5,0-11.8,5.3-11.8,11.9
			c0,1.7,0.4,3.4,1,4.8c0.5,1.2,1.2,2.2,2,3.1c1.7,1.9,3.9,3.2,6.5,3.7c0.7,0.1,1.5,0.2,2.3,0.2c0.5,0,1,0,1.5-0.1
			c1.6-0.2,3-0.7,4.3-1.4c1.1-0.6,2.1-1.4,2.9-2.3c2-2.1,3.1-4.9,3.1-8C138.6,270.3,135.9,266.3,132,264.4z M134.3,281.6
			c-0.8,0.9-1.8,1.7-2.9,2.3c-1,0.5-2,0.8-3.1,1c-0.5,0.1-1,0.1-1.6,0.1c-0.7,0-1.5-0.1-2.2-0.3c-2-0.4-3.7-1.4-5-2.8
			c-0.9-0.9-1.6-2-2-3.1l0,0c-0.5-1.2-0.8-2.4-0.8-3.8c0-5.5,4.5-10,10-10c0.4,0,0.7,0,1.1,0.1c1.3,0.1,2.5,0.5,3.6,1.1
			c3.2,1.7,5.3,5,5.3,8.8C136.7,277.5,135.8,279.8,134.3,281.6z"/>
		<path class="st9" d="M138.7,275c0,2.3-0.6,4.5-1.8,6.3c-1.4,2.3-3.7,4.1-6.3,5l-0.1-0.2l0,0.2c-1.2,0.4-2.4,0.6-3.7,0.6
			c-1.5,0-3-0.3-4.4-0.8c-1-0.4-1.9-0.9-2.8-1.6c-2.2-1.7-3.8-4-4.4-6.8c-0.2-0.9-0.3-1.8-0.3-2.8c0-6.4,5-11.6,11.4-11.9
			c0.2,0,0.4,0,0.6,0c2.7,0,5.2,0.9,7.2,2.4C136.8,267.6,138.7,271.1,138.7,275z"/>
		<path class="st9" d="M169.2,200.8c0,1.1-0.1,2.1-0.2,3.1c-0.8,4.6-3.2,8.7-6.5,11.7c-3.3,2.9-7.4,4.7-12.1,4.9c-0.3,0-0.7,0-1,0
			c-4.4,0-8.5-1.4-11.8-3.9c-4.8-3.6-7.9-9.3-7.9-15.9c0-4.5,1.6-8.7,4.1-12.1c2.8-3.6,6.7-6.2,11.3-7.1c1.4-0.3,2.8-0.5,4.3-0.5
			C160.4,181.1,169.2,190,169.2,200.8z"/>
		<polygon class="st9" points="250.3,157.9 250.3,157.9 250.3,157.9 		"/>
		<polygon class="st9" points="250.3,157.9 250.3,157.9 250.3,157.9 		"/>
		<path class="st9" d="M211.6,133.4c0,0.4-0.1,0.8-0.1,1.2c-0.3,2.4-1.3,4.6-2.7,6.3c-0.2,0.3-0.5,0.6-0.8,0.8
			c-1.6,1.6-3.8,2.7-6.2,3.1c-0.7,0.1-1.3,0.2-2,0.2c-2.5,0-4.8-0.8-6.7-2.1c-2.3-1.6-3.9-3.9-4.6-6.5c-0.3-1-0.4-2-0.4-3.1
			c0-1.7,0.3-3.2,1-4.7c0-0.2,0.2-0.4,0.2-0.6c1.2-2.2,3-4.1,5.2-5.2c0.2-0.1,0.4-0.2,0.6-0.3c1.4-0.7,3.1-1,4.7-1
			c0.1,0,0.3,0,0.5,0c0.5,0,0.9,0.1,1.4,0.1c1.9,0.3,3.7,1.1,5.3,2.3l0,0c0.1,0,0.1,0.1,0.2,0.1c0.1,0.1,0.3,0.3,0.5,0.5
			c0.4,0.3,0.7,0.6,1,0.9c1.3,1.4,2.2,3.2,2.6,5.1c0.1,0.1,0.1,0.2,0.1,0.3C211.5,131.8,211.6,132.6,211.6,133.4z"/>
		<path class="st0" d="M105.9,113.8c0,3.5-1.6,6.7-4,8.9c-0.9,0.8-2,1.5-3.1,2l-1-1.6c1.2-0.5,2.2-1.2,3.1-2
			c1.9-1.8,3.1-4.4,3.1-7.3c0-3.8-2.1-7.1-5.3-8.8c-1.1-0.6-2.3-1-3.6-1.1l0.6-1.8c1.3,0.2,2.4,0.6,3.5,1.1
			C103.3,105.2,105.9,109.2,105.9,113.8z"/>
		<path class="st0" d="M308.2,359.5l-1.3,1.4c-0.8-1-1.7-1.8-2.8-2.4l0,0c-1.5-0.9-3.2-1.4-5.1-1.4c-3.7,0-6.9,2-8.7,5
			c-0.6,1.1-1.1,2.2-1.3,3.5l-1.8-0.6v0c0.2-1.2,0.6-2.4,1.2-3.5c2-3.7,5.9-6.2,10.4-6.2c2.3,0,4.5,0.7,6.3,1.8
			C306.4,357.7,307.4,358.5,308.2,359.5z"/>
		<path class="st9" d="M267,145.9c-3.8-5.2-9.8-8.5-16.7-8.5c-1.2,0-2.4,0.1-3.6,0.3c-4.1,0.7-7.9,2.7-10.7,5.5
			c-0.4,0.5-0.9,0.9-1.3,1.3c-2.6,3.1-4.4,7-4.8,11.2c-0.1,0.7-0.1,1.4-0.1,2.1c0,1.4,0.1,2.8,0.4,4.1c1,4.8,3.6,9,7.3,11.9
			c1.9,1.5,4.1,2.7,6.5,3.5c2,0.7,4.1,1,6.3,1c2.7,0,5.1-0.5,7.5-1.4c7.2-2.8,12.4-9.6,12.9-17.7c0.1-0.5,0.1-0.9,0.1-1.4
			C270.9,153.4,269.4,149.3,267,145.9z M250.3,157.9L250.3,157.9L250.3,157.9L250.3,157.9z"/>
		<path class="st9" d="M210.8,128.9c0-0.1-0.1-0.2-0.1-0.2c-0.5-1.1-1.1-2.1-1.8-2.9c-0.1-0.1-0.1-0.1-0.2-0.2c-0.5-0.5-1-1-1.6-1.4
			c-0.4-0.3-0.8-0.6-1.1-0.8c-0.7-0.4-1.4-0.7-2.1-1c-0.4-0.1-0.9-0.3-1.3-0.4c-0.9-0.2-1.7-0.3-2.7-0.3c-2.5,0-4.8,0.8-6.7,2.1
			c-0.2,0.1-0.3,0.2-0.5,0.4c-0.8,0.6-1.6,1.4-2.2,2.2c-0.1,0.2-0.2,0.3-0.3,0.5c-1.3,1.9-2.1,4.2-2.1,6.7c0,1.8,0.4,3.6,1.2,5.2
			c0.6,1.1,1.3,2.2,2.1,3.1c2.1,2.2,5.2,3.6,8.5,3.6c1.5,0,2.9-0.3,4.2-0.8c1.2-0.4,2.3-1.1,3.2-1.9c0.9-0.7,1.6-1.5,2.3-2.4
			c0.7-1,1.3-2.1,1.6-3.4c0.3-1.1,0.5-2.2,0.5-3.4C211.7,131.8,211.4,130.3,210.8,128.9z M209.5,136c-0.3,1.2-0.9,2.4-1.6,3.4
			c-0.5,0.6-1,1.1-1.6,1.6c-0.9,0.8-2,1.5-3.2,1.9c-1,0.4-2.1,0.6-3.3,0.6c-2.7,0-5.2-1.1-7-2.9c-0.9-0.9-1.6-1.9-2.1-3.1
			c-0.6-1.2-0.9-2.6-0.9-4.1c0-2,0.6-3.8,1.6-5.4c0.1-0.1,0.2-0.3,0.3-0.4c0.6-0.9,1.4-1.7,2.3-2.3c0.1-0.1,0.3-0.2,0.4-0.3
			c1.6-1,3.4-1.6,5.4-1.6c0.6,0,1.3,0.1,1.9,0.2c0.4,0.1,0.8,0.2,1.1,0.3c0.8,0.3,1.6,0.6,2.3,1.1c0.3,0.2,0.7,0.4,1,0.7
			c0.3,0.2,0.6,0.5,0.9,0.8c0.1,0.1,0.1,0.1,0.2,0.2c0.8,0.9,1.4,1.9,1.8,3c0.1,0.1,0.1,0.2,0.1,0.2c0.4,1.1,0.7,2.3,0.7,3.5
			C209.8,134.3,209.7,135.2,209.5,136z"/>
		<g>
			<path class="st10" d="M253.7,208c-0.1,0-0.2,0-0.3,0c-1.2,0-2.3,0-3.4,0.1l-0.9-30.4c0.4,0,0.8,0,1.3,0c0.8,0,1.7,0,2.5-0.1
				L253.7,208z"/>
			<path class="st10" d="M328.9,303.1c-0.8,1-1.4,2.1-2,3.2l-31.5-19.6c0.7-1,1.4-2.1,2-3.2L328.9,303.1z"/>
			<path class="st10" d="M210.2,232.3c-0.7,1.1-1.3,2.2-1.8,3.3l-42.5-23.5c0.7-1,1.3-2.1,1.8-3.3L210.2,232.3z"/>
			<path class="st10" d="M372.7,274.9L357,299.5c-1-0.8-2-1.4-3.1-2l15.8-24.5C370.5,273.8,371.6,274.5,372.7,274.9z"/>
			<path class="st10" d="M145.4,220.3L132,264.4c-1.1-0.5-2.3-0.9-3.6-1.1l13.4-44.1C143,219.7,144.2,220.1,145.4,220.3z"/>
			<path class="st10" d="M140.4,183.2c-1.1,0.6-2.2,1.2-3.1,2l-38.5-60.5c1.2-0.5,2.2-1.2,3.1-2L140.4,183.2z"/>
			<path class="st10" d="M305.6,144l-35.7,10.2c-0.2-1.2-0.6-2.4-1-3.6l35.7-10.3C304.7,141.6,305.1,142.8,305.6,144z"/>
			<path class="st10" d="M333.1,331.2l-24.9,28.3c-0.8-1-1.7-1.8-2.8-2.5l24.9-28.3C331.1,329.6,332.1,330.4,333.1,331.2z"/>
			<path class="st10" d="M233.3,147.6c-0.7,1.1-1.2,2.2-1.6,3.4l-22.1-10.7c0.7-1,1.3-2.1,1.6-3.4L233.3,147.6z"/>
		</g>
	</g>
</g>
</svg>
