<?xml version="1.0" encoding="utf-8"?>
<!-- Generator: Adobe Illustrator 24.2.0, SVG Export Plug-In . SVG Version: 6.00 Build 0)  -->
<svg version="1.1" xmlns="http://www.w3.org/2000/svg" xmlns:xlink="http://www.w3.org/1999/xlink" x="0px" y="0px"
	 viewBox="0 0 311.3 269.6" style="enable-background:new 0 0 311.3 269.6;" xml:space="preserve">
<style type="text/css">
	.st0{fill:#E2E2E2;}
	.st1{fill:#C1C1C1;}
	.st2{opacity:0.6;fill:#C1C1C1;}
	.st3{display:none;}
	.st4{display:inline;}
	.st5{fill:#B7CAE5;}
	.st6{fill:#182F59;}
	.st7{display:inline;fill:#182F59;}
	.st8{fill:#B7E5C6;}
	.st9{fill:#1B743A;}
	.st10{fill:#C2B7E5;}
	.st11{fill:#603CA3;}
	.st12{fill:#F1F2F3;}
	.st13{fill:#B7D6E5;}
	.st14{fill:#488DCB;}
	.st15{fill:#B7CFE5;}
	.st16{fill:#4064AD;}
	.st17{fill-rule:evenodd;clip-rule:evenodd;fill:#4064AD;}
	.st18{fill:#ED1E33;}
	.st19{display:inline;opacity:0.8;fill:#F3F158;}
	.st20{display:inline;opacity:0.8;fill:#CCC64C;}
	.st21{display:inline;opacity:0.8;fill:#274664;}
	.st22{display:inline;opacity:0.8;fill:#E8CB79;}
	.st23{display:inline;opacity:0.8;fill:#566D9F;}
	.st24{display:inline;opacity:0.8;fill:#142533;}
	.st25{display:inline;opacity:0.8;fill:#E23D3D;}
	.st26{display:inline;opacity:0.8;fill:#8E651C;}
	.st27{display:inline;opacity:0.8;}
	.st28{fill:#FFFFFF;}
	.st29{opacity:0.5;fill:#ED2020;}
	.st30{opacity:0.5;fill:#F6C049;}
	.st31{opacity:0.5;}
	.st32{fill:#D68BAA;}
	.st33{opacity:0.5;fill:#72400E;}
	.st34{opacity:0.5;fill:#666666;}
	.st35{opacity:0.5;fill:#898989;}
	.st36{opacity:0.5;fill:#EADC2D;}
	.st37{opacity:0.5;fill:#FFFFFF;}
</style>
<g id="Layer_1">
	<g id="Layer_1_1_">
		<g>
			<polygon class="st0" points="19.1,134.8 29.3,152.5 71.3,225.2 73.9,229.7 87.4,253.1 224.1,253.1 226.1,249.5 233.5,236.9 
				233.5,236.9 241.5,222.9 247.6,212.3 253.4,202.3 269.9,173.6 292.3,134.8 289.3,129.5 289.3,129.5 271.5,98.8 224.1,16.5 
				87.4,16.5 81.5,26.7 64.8,55.7 53.8,74.6 46.2,87.9 45.6,88.8 			"/>
			<path class="st1" d="M233.5,236.9L233.5,236.9l8-14L233.5,236.9z M289.3,129.5l3,5.3L289.3,129.5L289.3,129.5z"/>
		</g>
		<path class="st2" d="M285.2,90.6l-14.5-25.1l-5-8.7l-1.6-2.8l-3.4-5.8L233.2,0.5H78.1l-3.4,5.9L32.6,79.3v0L5.3,126.6l-4.7,8.2
			l32.9,57.1l14.4,25l17.9,31.1l12.2,21.2h155.1l4.6-8l11.5-19.9l2.6-4.4l44.2-76.6l14.6-25.3L285.2,90.6z M282.1,152.5l-12.2,21.1
			l-16.6,28.7l-13.2,22.9l-2.6,4.5l-4.1,7.1l-9.4,16.3H87.3l-2-3.6l-7.3-12.7h0l-8-14l-6.1-10.6l-5.7-10l-16.6-28.8l-22.4-38.8
			l5.1-8.8l15.7-27.2l47.4-82.3H224l5.9,10.2l16.8,29l10.9,18.9l7.7,13.3l0.5,0.9l21.5,37.1l2.1,3.6l3,5.3L282.1,152.5z"/>
	</g>
	<g id="Layer_7_1_" class="st3">
		<g class="st4">
			<polygon class="st5" points="82.7,261.1 9.8,134.8 82.7,8.5 228.6,8.5 301.5,134.8 228.6,261.1 			"/>
			<path class="st6" d="M224,16.5l68.3,118.3L224,253.1H87.3L19.1,134.8L87.3,16.5H224 M233.2,0.5H78.1L0.6,134.8l77.5,134.3h155.1
				l77.5-134.3L233.2,0.5L233.2,0.5z"/>
		</g>
		<path class="st7" d="M212,86l-42-24.2l-14.3-8.3L85,94.3v16.4v0.1v48.5v0.1c0,10.2,5.5,19.6,14.3,24.7l0,0l42,24.2
			c0.1,0,0.1,0.1,0.2,0.1l14.1,8.2l70.7-40.8v-16.6v-48.5C226.4,100.6,220.9,91.1,212,86z M218.8,110.8v60.7L155.7,208v-56.4
			c0-10.2-5.5-19.7-14.3-24.8L92.6,98.6l63.1-36.5l52.6,30.4C214.8,96.3,218.8,103.3,218.8,110.8z"/>
	</g>
	<g id="Layer_3" class="st3">
		<g class="st4">
			<polygon class="st8" points="82.7,261.1 9.8,134.8 82.7,8.5 228.6,8.5 301.5,134.8 228.6,261.1 			"/>
			<path class="st9" d="M224,16.5l68.3,118.3L224,253.1H87.3L19.1,134.8L87.3,16.5H224 M233.2,0.5H78.1L0.6,134.8l77.5,134.3h155.1
				l77.5-134.3L233.2,0.5L233.2,0.5z"/>
		</g>
		<g class="st4">
			<polygon class="st9" points="203.6,122.6 179.9,174.8 179.9,122.6 133,122.6 133,175.1 109.2,122.6 97.3,148.9 133,227.7 
				133,201.4 144.7,227.7 168.1,227.7 179.9,201.4 179.9,227.7 215.5,148.9 			"/>
			<polygon class="st9" points="115.4,67.3 76.1,67.3 72.8,74.6 90.6,94.6 100.4,94.6 89.1,81.9 92.4,74.6 112.1,74.6 125.1,89.4 
				121.8,96.6 82.6,96.6 89.1,104 138.1,104 141.4,96.7 			"/>
			<polygon class="st9" points="223.4,96.6 207.9,96.6 189.5,96.6 186.2,89.4 199.2,74.6 218.9,74.6 218.9,74.6 238.4,74.6 
				238.5,74.6 235.2,67.3 195.9,67.3 169.9,96.7 173.2,104 222.2,104 228.7,96.6 			"/>
		</g>
	</g>
	<g id="Layer_4" class="st3">
		<g class="st4">
			<polygon class="st10" points="82.7,261.1 9.8,134.8 82.7,8.5 228.6,8.5 301.5,134.8 228.6,261.1 			"/>
			<g>
				<path class="st11" d="M224,16.5l68.3,118.3L224,253.1H87.3L19.1,134.8L87.3,16.5H224 M233.2,0.5H78.1L0.6,134.8l77.5,134.3
					h155.1l77.5-134.3L233.2,0.5L233.2,0.5z"/>
			</g>
		</g>
		<g class="st4">
			<g>
				<g>
					<path class="st12" d="M221.5,164.5c-2.5,1.5-18.7,3.3-18.7,3.3l0,0c-0.2,0.4-0.4,0.8-0.6,1c-1.2,2.3-6,20-12.9,28.3
						c-9,11.2-20.8,13.1-21,13.1c0,0-6-33.7-12.7-71.8c18.9-3.3,33.1-15.8,41-36c3.3-8.5,4.8-16.7,5.6-22.1
						c5.2,10.6,8.1,22.9,9,35.2l0,0c2.5,12.5,13.1,13.7,16.5,18.1C231.5,138.3,224.2,163,221.5,164.5z"/>
				</g>
				<g>
					<g>
						<path class="st11" d="M198.6,73.3c0,0-1.3,53.3-43.5,60.6l-14.8-84.1c4-0.8,8.3-1.2,11.9-1.2c14.4-0.4,25.8,4,34.6,11.2
							c0.8,0.8,1.5,1.3,2.5,2.1c1.2,1,2.3,2.3,3.5,3.5c0.8,0.8,1.3,1.5,2.1,2.5C196.1,69.6,197.4,71.6,198.6,73.3z"/>
					</g>
				</g>
			</g>
			<g>
				<g>
					<path class="st12" d="M82.6,169.3c1.7-5.4,11.4-10,9.4-22.7l0,0c-3.3-11.9-4.8-24.4-3.7-36.2c2.5,5,6.7,12.1,12.7,18.9
						c14.2,16.4,31.9,23.1,50.8,19.6c6.7,37.9,12.7,71.8,12.7,71.8c-0.2,0-11.7,2.1-24.2-5.2c-9.2-5.4-19.8-20.4-21.7-22.1
						c-0.2-0.2-0.6-0.4-0.8-0.8l0,0c0,0-15.8,3.8-18.7,3.3S80.9,174.7,82.6,169.3z"/>
				</g>
				<g>
					<g>
						<path class="st11" d="M91.2,96c0.4-1,0.8-1.9,1.2-3.1c0.6-1.5,1.3-3.1,1.9-4.4c0.6-1,1.2-1.9,1.5-2.9
							c6-9.8,15.2-17.7,28.7-22.3c3.5-1.2,7.5-2.3,11.5-2.9l14.8,84.3c-42.1,7.5-61.6-42.1-61.6-42.1C89.9,100.2,90.7,98.1,91.2,96z
							"/>
					</g>
				</g>
			</g>
		</g>
	</g>
	<g id="Layer_5" class="st3">
		<g class="st4">
			<polygon class="st13" points="82.7,261.1 9.8,134.8 82.7,8.5 228.6,8.5 301.5,134.8 228.6,261.1 			"/>
			<path class="st14" d="M224,16.5l68.3,118.3L224,253.1H87.3L19.1,134.8L87.3,16.5H224 M233.2,0.5H78.1L0.6,134.8l77.5,134.3h155.1
				l77.5-134.3L233.2,0.5L233.2,0.5z"/>
		</g>
		<g id="Layer_7" class="st4">
			<path class="st14" d="M147.3,93.5c-32.5,0-58.8,26.3-58.8,58.8c0,32.4,26.3,58.8,58.8,58.8c32.4,0,58.8-26.3,58.8-58.8
				C206.1,119.9,179.8,93.5,147.3,93.5z M178.7,146.7c0-8.1-6.6-14.7-14.7-14.7c8.1,0,14.7-6.6,14.7-14.7c0,8.1,6.6,14.7,14.7,14.7
				C185.2,132,178.7,138.6,178.7,146.7z"/>
			<path class="st14" d="M208,117.3c0-8.1-6.6-14.7-14.7-14.7c8.1,0,14.7-6.6,14.7-14.7c0,8.1,6.6,14.7,14.7,14.7
				C214.6,102.6,208,109.2,208,117.3z"/>
			<path class="st14" d="M178.7,87.9c0-8.1-6.6-14.7-14.7-14.7c8.1,0,14.7-6.6,14.7-14.7c0,8.1,6.6,14.7,14.7,14.7
				C185.2,73.2,178.7,79.8,178.7,87.9z"/>
		</g>
	</g>
	<g id="Layer_6" class="st3">
		<g class="st4">
			<polygon class="st15" points="82.7,261.1 9.8,134.8 82.7,8.5 228.6,8.5 301.5,134.8 228.6,261.1 			"/>
			<path class="st16" d="M224,16.5l68.3,118.3L224,253.1H87.3L19.1,134.8L87.3,16.5H224 M233.2,0.5H78.1L0.6,134.8l77.5,134.3h155.1
				l77.5-134.3L233.2,0.5L233.2,0.5z"/>
		</g>
		<g class="st4">
			<path class="st17" d="M230,196.4h-27.3l-33.1-26.9V153h8.4c12.1,0,21.9-9.8,21.9-21.9s-9.8-21.9-21.9-21.9h-12.8v87.2h-16.7
				v-87.2H95.3L74.8,92.4H178c1.3,0,2.6,0.1,3.9,0.2l0,0c0.1,0,0.2,0,0.3,0h0.1c4.5,0.5,8.8,1.8,12.8,3.7c0.3,0.1,0.5,0.3,0.8,0.4
				c0,0,0.1,0,0.1,0.1c0.2,0.1,0.5,0.2,0.7,0.4c0.3,0.1,0.5,0.3,0.8,0.4c0.5,0.3,1,0.6,1.5,0.9c0.8,0.5,1.5,1,2.2,1.5
				c0.3,0.2,0.6,0.4,0.9,0.7c0.2,0.2,0.4,0.3,0.6,0.5c0.1,0.1,0.2,0.1,0.2,0.2l0,0c0.5,0.5,1.1,0.9,1.6,1.4
				c7.6,7.1,12.3,17.1,12.3,28.3c0,15.9-9.6,29.5-23.2,35.5L230,196.4z"/>
			<polygon class="st18" points="143.9,113.7 143.9,130.4 121.5,130.4 101,113.7 			"/>
			<polygon class="st18" points="143.9,135 143.9,148.6 143.1,147.9 143,147.9 127.2,135 			"/>
		</g>
	</g>
</g>
<g id="Layer_2">
	
		<image style="display:none;overflow:visible;" width="640" height="554" xlink:href="../../../../../Desktop/Screen Shot 2020-06-26 at 4.53.32 PM.png"  transform="matrix(0.5967 0 0 0.5967 -35.0076 -42.8817)">
	</image>
	
		<image style="overflow:visible;" width="640" height="554" xlink:href="../../../../../Desktop/Screen Shot 2020-06-26 at 5.38.17 PM.png"  transform="matrix(0.5694 0 0 0.5694 -490.3814 -22.9143)">
	</image>
</g>
<g id="Layer_3_1_">
	<g id="Layer_4_1_" class="st3">
		<path class="st19" d="M179,225.2c-34.6,5.9-45.2,19.2-48.4,27.9H87.3l-2-3.6c0,0,16.9-18.8,49.9-23.3c4.5-0.6,9.4-1,14.6-1H179z"
			/>
		<path class="st20" d="M231.4,225.2c-21.1,5.2-36.9,19-45.3,27.9h-55.5c3.2-8.7,13.8-22,48.4-27.9H231.4z"/>
		<path class="st19" d="M240.1,225.2l-2.6,4.5c-13.2,6.4-24.5,16.4-31.4,23.4h-20.1c8.4-8.9,24.2-22.7,45.3-27.9H240.1z"/>
		<path class="st20" d="M237.5,229.7L224,253.1h-17.9C213,246.1,224.3,236.1,237.5,229.7z"/>
		<path class="st21" d="M282.1,152.5l-42,72.7H179c0,0,12.7-6.6,10.3-28.2c-0.1-0.9-0.2-1.8-0.4-2.8c2.9-1.6,5.6-3.2,8-4.9h0
			c41.3-28.1,10.8-61.3,10.2-62c0,0,0,0,0,0l-0.6-1c0.5,0,1.1,0,1.7,0c16.3,0.2,30.7-9.7,34.1-24.7c1-4.5,1-9,0-13.3
			c-0.1-0.6-0.3-1.3-0.5-1.9l6.8,0.6h0l0.8,0.1C250.4,90.8,263.4,135.6,282.1,152.5z"/>
		<path class="st22" d="M179.2,190.9c-0.2,7.2-2.6,9.9-2.8,10v0h0c-18,9.4-30.6,14.8-39.8,16.6c-13,2.6-19.1-1.8-23.5-12.2
			c-8.3-19.3-12.7-17.7-16.6-25.4c-2.8-5.7-12.2-20-17.2-35.4c0.3-0.2,0.5-0.5,0.8-0.8c0.2-0.2,0.3-0.4,0.5-0.5l0.3-0.4
			c0,0,0,0,0.1-0.1c0,0,0.1-0.1,0.1-0.1c0,0,0.1-0.1,0.1-0.1c0.2-0.2,0.4-0.5,0.5-0.7c0.3-0.5,0.6-1,0.8-1.5
			c0.1-0.2,0.2-0.4,0.3-0.6c0,0,0,0,0-0.1c0.1-0.2,0.2-0.5,0.3-0.7c0.1-0.1,0.1-0.2,0.1-0.4c0-0.1,0.1-0.2,0.1-0.4
			c0.1-0.2,0.1-0.4,0.2-0.6c0.1-0.3,0.2-0.6,0.2-0.8c0.1-0.2,0.1-0.4,0.1-0.6c0-0.2,0.1-0.4,0.1-0.6c0.1-0.4,0.1-0.7,0.1-1.1
			c0.1-1.4,0-2.4,0-2.4s0.6-0.1,1.9-0.2c0,0,0,0,0,0c0,0,0,0,0,0c0.3,0,0.7-0.1,1.1-0.1c0,0,0.1,0,0.1,0c0.2,0,0.5,0,0.7-0.1
			c0.2,0,0.4,0,0.6-0.1c0.2,0,0.3,0,0.5-0.1c0,0,0.1,0,0.1,0c0.5,0,0.9-0.1,1.4-0.2c0.4,0,0.8-0.1,1.2-0.1c0.3,0,0.7-0.1,1-0.1
			c0,0,0,0,0.1,0c0.3,0,0.7-0.1,1-0.1c0.2,0,0.4,0,0.6-0.1c0.8-0.1,1.5-0.2,2.3-0.3c0.4-0.1,0.8-0.1,1.2-0.2
			c0.5-0.1,1.1-0.2,1.7-0.2c0.3,0,0.6-0.1,0.9-0.1c1.4-0.2,2.8-0.4,4.2-0.6c0.5-0.1,1-0.1,1.5-0.2c0.2,0,0.5-0.1,0.8-0.1
			c0.5-0.1,1-0.2,1.5-0.2c0,0,0,0,0,0c0.5-0.1,0.9-0.1,1.4-0.2c0.3,0,0.6-0.1,0.9-0.2c0.5-0.1,1-0.2,1.5-0.3
			c0.8-0.1,1.7-0.3,2.5-0.4c0.8-0.1,1.5-0.3,2.3-0.4c0.1,0,0.2,0,0.2,0c0.9-0.2,1.8-0.3,2.7-0.5c2.8-0.5,5.7-1.1,8.6-1.7
			c0.5-0.1,1.1-0.2,1.7-0.4c0.8-0.2,1.7-0.4,2.5-0.5c7.5-1.7,15-3.7,22.1-6c1-0.3,2-0.7,3-1c0.6-0.2,1.1-0.4,1.7-0.6
			c0.5-0.2,1-0.4,1.5-0.6c0.4-0.1,0.8-0.3,1.1-0.4c0.5-0.2,0.9-0.4,1.4-0.5c0.8-0.3,1.6-0.6,2.3-1c0.4-0.2,0.8-0.3,1.2-0.5
			c1.1-0.5,2.2-1,3.3-1.5c-4.6,4.4-9.7,10.3-14.9,18.2C175.7,162.4,179.5,180.9,179.2,190.9z"/>
		<path class="st22" d="M151,82.4c-16.6,0.6-38.9,3.6-60.3,13.6c-5.4,2.5-10.4,5.1-14.8,7.7c0-9.5,0.1-19,0.1-25.7
			c1-0.4,2.1-0.9,3.3-1.5c1.8-0.8,3.4-1.7,5.1-2.6c1.6,1.3,4.2,2.9,7.5,2c-2.3-2.5-3.3-2.8-3.9-3.9c5.1-2.9,10-5.8,15.4-7.5
			c8.1,5.2,31.4,19.2,40.5,13.3c-8.7-1.5-16.9-0.9-35.5-14.5c5.3-0.9,11.3-0.6,18.6,1.5c21.9,6.4,28.5,1.5,28.8,1.2
			C155.5,66.6,147.5,77.4,151,82.4z"/>
		<path class="st23" d="M197,189.4L197,189.4c-2.4,1.7-5.1,3.3-8.1,4.9c-4.4,2.4-8.5,4.6-12.4,6.6c0.2-0.2,2.5-2.9,2.8-10
			c0.3-9.9-3.6-28.4-23.3-60.7c5.2-7.8,10.3-13.8,14.9-18.2c0,0,0,0,0,0c1.8-0.9,3.6-1.8,5.2-2.7c3.1,4.8,7.4,8.9,12.7,11.9
			c3.3,1.9,7,3.4,10.9,4.3c2.3,0.5,4.6,0.9,6.9,1l0.6,1c0,0,0,0,0,0C207.8,128.1,238.3,161.3,197,189.4z"/>
		<path class="st24" d="M179,225.2h-29.3c-5.2,0-10,0.4-14.6,1c0.5-2.1,1.1-5,1.6-8.6c9.2-1.8,21.8-7.3,39.8-16.6h0v0
			c3.9-2,8-4.2,12.4-6.6c0.2,1,0.3,1.9,0.4,2.8C191.7,218.6,179,225.2,179,225.2z"/>
		<path class="st19" d="M242.3,101.8c-3.4,15-17.8,24.9-34.1,24.7c-0.5,0-1.1,0-1.7,0c-2.3-0.1-4.6-0.4-6.9-1
			c-4-0.9-7.6-2.4-10.9-4.3c-5.3-3-9.6-7.1-12.7-11.9c-1.6,0.9-3.4,1.9-5.2,2.7c0,0,0,0,0,0c-1.1,0.5-2.2,1-3.3,1.5
			c-0.4,0.2-0.8,0.3-1.2,0.5c-0.8,0.3-1.5,0.6-2.3,1c-0.5,0.2-0.9,0.4-1.4,0.5c-0.4,0.1-0.7,0.3-1.1,0.4c-0.5,0.2-1,0.4-1.5,0.6
			c-0.5,0.2-1.1,0.4-1.7,0.6c-1,0.3-2,0.7-3,1c-7.1,2.3-14.7,4.3-22.1,6c-0.8,0.2-1.7,0.4-2.5,0.5c-0.6,0.1-1.1,0.2-1.7,0.4
			c-2.9,0.6-5.8,1.2-8.6,1.7c-0.9,0.2-1.8,0.3-2.7,0.5c-0.1,0-0.1,0-0.2,0c-0.8,0.1-1.5,0.3-2.3,0.4c-0.9,0.2-1.7,0.3-2.5,0.4
			c-0.5,0.1-1,0.2-1.5,0.3c-0.3,0-0.6,0.1-0.9,0.2c-0.5,0.1-0.9,0.2-1.4,0.2c0,0,0,0,0,0c-0.5,0.1-1,0.2-1.5,0.2
			c-0.3,0-0.5,0.1-0.8,0.1c-0.5,0.1-1,0.2-1.5,0.2c-1.5,0.2-2.9,0.4-4.2,0.6c-0.3,0-0.6,0.1-0.9,0.1c-0.6,0.1-1.1,0.2-1.7,0.2
			c-0.4,0.1-0.8,0.1-1.2,0.2c-0.8,0.1-1.6,0.2-2.3,0.3c-0.2,0-0.4,0.1-0.6,0.1c-0.3,0-0.7,0.1-1,0.1c0,0,0,0-0.1,0
			c-0.4,0-0.7,0.1-1,0.1c-0.4,0-0.8,0.1-1.2,0.1c-0.5,0.1-1,0.1-1.4,0.2c0,0-0.1,0-0.1,0c-0.2,0-0.4,0-0.5,0.1c-0.2,0-0.4,0-0.6,0.1
			c-0.2,0-0.5,0.1-0.7,0.1c0,0-0.1,0-0.1,0c-0.4,0-0.7,0.1-1,0.1c0,0,0,0,0,0c0,0,0,0,0,0c0,0,0,0,0,0c-1.2,0.1-1.9,0.2-1.9,0.2
			s0.1,0.9,0,2.4c0,0.3-0.1,0.7-0.1,1.1c0,0.2-0.1,0.4-0.1,0.6c0,0.2-0.1,0.4-0.1,0.6c-0.1,0.3-0.1,0.6-0.2,0.8
			c-0.1,0.2-0.1,0.4-0.2,0.6c0,0.1-0.1,0.2-0.1,0.4s-0.1,0.2-0.1,0.4c-0.1,0.2-0.2,0.5-0.3,0.7c0,0,0,0,0,0.1
			c-0.1,0.2-0.2,0.4-0.3,0.6c-0.2,0.5-0.5,1-0.8,1.5c-0.2,0.2-0.3,0.5-0.5,0.7c0,0-0.1,0.1-0.1,0.1c0,0-0.1,0.1-0.1,0.1
			c0,0,0,0-0.1,0.1l-0.3,0.4c-0.2,0.2-0.3,0.4-0.5,0.5c-0.3,0.3-0.5,0.5-0.8,0.8c0,0,0,0,0,0c-1.5,1.4-3.7,1.8-5.7,1.4
			c-9.3-2.2-15.4-5.3-18.8-8.8c0,0,17.8-19,46.9-26.1c1.2-0.3,2.5-0.6,3.6-0.9c0.8-0.2,1.6-0.4,2.3-0.5c3-0.7,5.8-1.3,8.4-1.8
			c0.6-0.1,1.2-0.2,1.8-0.4c5.6-1.1,10-1.9,13.4-2.7c0.4-0.1,0.7-0.2,1.1-0.3c1.1-0.3,2.1-0.6,3-0.9c0.2-0.1,0.4-0.2,0.6-0.2
			c0.2-0.1,0.5-0.2,0.7-0.3c0.2-0.1,0.3-0.1,0.4-0.2c0.7-0.4,1.3-0.8,1.7-1.2c0.1-0.1,0.1-0.1,0.2-0.2c0.2-0.3,0.4-0.6,0.6-0.9
			c0.1-0.2,0.1-0.3,0.2-0.5c0.2-0.9,0.2-2-0.2-3.3c0-0.1-0.1-0.2-0.1-0.4c0-0.1-0.1-0.2-0.2-0.3c0,0-0.1-0.1-0.1-0.2
			c-0.1-0.2-0.3-0.4-0.5-0.5c0,0-0.1-0.1-0.1-0.1c0,0-0.1-0.1-0.1-0.1c-0.1-0.1-0.2-0.1-0.3-0.2c-0.2-0.2-0.5-0.3-0.8-0.4
			c-0.1,0-0.2-0.1-0.3-0.1c-0.2-0.1-0.5-0.2-0.7-0.2c-0.2-0.1-0.4-0.1-0.6-0.2c-0.1,0-0.3-0.1-0.4-0.1c-0.2,0-0.5-0.1-0.7-0.1
			c-0.2,0-0.5-0.1-0.8-0.1c-0.1,0-0.3,0-0.5,0c-0.2,0-0.5,0-0.7-0.1c-0.5,0-1-0.1-1.5-0.1c-1.2,0-2.5,0-3.9,0.1c-0.2,0-0.5,0-0.8,0
			c-0.3,0-0.5,0-0.8,0.1c-0.4,0-0.9,0.1-1.3,0.1c-0.7,0.1-1.3,0.1-2,0.2c-0.4,0-0.8,0.1-1.2,0.1c-0.8,0.1-1.5,0.2-2.3,0.3
			c-0.4,0-0.7,0.1-1.1,0.2c-0.5,0.1-1,0.2-1.5,0.2c-0.5,0.1-1,0.2-1.5,0.3c-0.4,0.1-0.8,0.1-1.2,0.2c-2.5,0.5-5.1,1-7.6,1.6
			c-0.4,0.1-0.9,0.2-1.3,0.3c-0.1,0-0.2,0-0.2,0.1c-0.8,0.2-1.6,0.4-2.4,0.6c-0.1,0-0.2,0-0.2,0.1c-1,0.2-1.9,0.5-2.9,0.8
			c0,0-0.1,0-0.1,0c-0.5,0.2-1.1,0.3-1.6,0.5c0,0-0.1,0-0.2,0c-0.5,0.1-1,0.3-1.4,0.4c-0.4,0.1-0.8,0.2-1.1,0.3
			c-0.1,0-0.1,0-0.2,0.1c-0.6,0.2-1.2,0.3-1.7,0.5c-0.6,0.2-1.3,0.4-1.9,0.6c-0.6,0.2-1.2,0.4-1.8,0.6c-1,0.3-1.9,0.6-2.8,1
			c-0.3,0.1-0.6,0.2-0.9,0.3c-0.4,0.1-0.8,0.3-1.2,0.4c-0.5,0.2-1,0.4-1.4,0.5c-0.6,0.2-1.1,0.4-1.6,0.6c-0.3,0.1-0.5,0.2-0.8,0.3
			c-0.2,0.1-0.3,0.1-0.5,0.2c-0.2,0.1-0.4,0.2-0.7,0.3c-1.1,0.5-2,0.9-2.9,1.4c-14.7,7.5-20.6,13.9-21,14.3c0.6-0.9,1.3-1.8,2.1-2.7
			c0,0,0-0.1,0.1-0.1c4.1-4.8,10.5-9.7,18.8-14.6c4.4-2.6,9.4-5.2,14.8-7.7c21.4-9.9,43.7-12.9,60.3-13.6c9.3-0.4,16.8,0.1,21.3,0.4
			c4.5-13.7,18.6-22.5,34.2-22c2.5,0.1,5.1,0.4,7.7,1c12.6,2.9,22.3,11.4,26.5,21.7c0.4,1,0.7,1.9,1,2.9c0.2,0.6,0.4,1.3,0.5,1.9
			C243.3,92.8,243.3,97.3,242.3,101.8z"/>
		<path class="st19" d="M86.3,131.9c0,0-0.1,0.1-0.6,0.4c-0.7,0.5-1.2,1.3-1.3,2.1c0.1-1.4,0-2.4,0-2.4S85,132.1,86.3,131.9z"/>
		<path class="st25" d="M101.8,110.9C72.7,118,54.9,137,54.9,137c-4.3-4.6-4-10.1,0-16c0,0,0,0,0,0c0.4-0.4,6.3-6.8,21-14.3
			c15.1-7.7,61.1-19,63.7-10.2C142.2,105.4,130.9,103.7,101.8,110.9z"/>
		<path class="st26" d="M265.8,88.8l-16.4-1.5l-0.8-0.1h0l-6.8-0.6c-0.3-1-0.6-2-1-2.9c-4.2-10.4-13.9-18.8-26.5-21.7
			c-2.6-0.6-5.2-0.9-7.7-1c-15.6-0.5-29.7,8.3-34.2,22c-4.5-0.4-12-0.8-21.3-0.4c-3.5-5,4.5-15.9,4.9-16.4
			c-0.4,0.3-6.9,5.2-28.8-1.2c-7.4-2.2-13.4-2.4-18.6-1.5c18.6,13.6,26.8,13,35.5,14.5c-9.1,5.9-32.4-8-40.5-13.3
			C98,66.2,93.2,69,88,72c0.6,1.1,1.6,1.4,3.9,3.9c-3.3,0.9-5.9-0.6-7.5-2c-1.6,0.9-3.3,1.7-5.1,2.6c-1.2,0.6-2.3,1-3.3,1.5
			c-12.3,5-13.5,1.2-22.6,10.9c-9,9.6,1.7,26.4,3.7,29.4c0,0-0.1,0.1-0.1,0.1c-2-1.8-10.7-10-17.2-19.6l47.4-82.3h116.6
			c7.1,2.5,16.7,6.1,26,10.2L265.8,88.8z"/>
		<path class="st19" d="M57.1,118.2c0.2,0.2,0.3,0.4,0.3,0.4C57.4,118.6,57.2,118.5,57.1,118.2C57,118.3,57.1,118.3,57.1,118.2z"/>
		<g class="st27">
			<path class="st28" d="M109,170.2l7,10.8c0,0,23.1-10.4,46.4-9.2C155.3,152.3,129.4,161.1,109,170.2z"/>
		</g>
	</g>
	<g id="Layer_6_1_">
		<path class="st29" d="M191.4,229.2c-1.4,0-2.8,0-4.2,0c-18.9,0.9-39.7-15.7-45-20.3c0.2,0,0.5,0,0.7-0.1c5.6-0.3,10.7,0,15.2,0.7
			C176.2,212.5,186.3,222.3,191.4,229.2z"/>
		<path class="st30" d="M215.3,120.4c0,0-12.1,5-22-2.8C198.3,112.7,214.3,104.1,215.3,120.4z"/>
		<g class="st31">
			<path class="st32" d="M168,188.2c-5.7,0-11.6-3.4-15.2-8.6c-3.8-5.6-4.5-12.5-1.8-19.4c3.3-8.5,8.6-10.2,12.5-10.2
				c5.2,0,9.8,3,11.1,3.9c1.2-0.2,2.3-0.2,3.3-0.2c7,0,9.3,3.7,9.9,6.7c1.9,8.7-7.1,23.4-14.6,26.8
				C171.7,187.8,169.9,188.2,168,188.2L168,188.2z"/>
			<path d="M163.5,151c5.7,0,10.8,3.9,10.8,3.9c1.3-0.2,2.5-0.3,3.6-0.3c18.5,0,4.9,27.1-5.1,31.6c-1.5,0.7-3.2,1-4.9,1
				c-10.1,0-21.9-11.5-16.1-26.6C154.8,153.1,159.3,151,163.5,151 M163.5,149c-4.2,0-10,1.9-13.5,10.9c-2.8,7.2-2.1,14.4,1.9,20.3
				c3.7,5.5,10,9,16,9c2,0,3.9-0.4,5.7-1.2c7.8-3.5,17.1-18.8,15.1-27.9c-0.6-2.8-2.8-7.5-10.9-7.5c-1,0-2,0.1-3.1,0.2
				C173.1,151.7,168.6,149,163.5,149L163.5,149z"/>
		</g>
		<path class="st30" d="M155.8,112.4c0,0-10-6.4-23.8-3.4c-9-4.4-1.5-15.6,11.9-11.1C157.2,102.4,155.8,112.4,155.8,112.4z"/>
		<path class="st30" d="M215.3,120.4c0,0-12.1,5-22-2.8C198.3,112.7,214.3,104.1,215.3,120.4z"/>
		<path class="st30" d="M155.8,112.4c0,0-10-6.4-23.8-3.4c-9-4.4-1.5-15.6,11.9-11.1C157.2,102.4,155.8,112.4,155.8,112.4z"/>
		<path class="st33" d="M140.8,60.9c28,21.1,45.9-6.6,45.9-6.6C170.2,51.3,154.5,54.8,140.8,60.9z"/>
		<path class="st33" d="M208.9,65c-2.2-2.2-4.4-4.1-6.8-6h0c-2.8-1.2-5.5-2.2-8.3-3c-0.6,0.7-28.4,32.8-59.5,8
			c-9.8,5.1-18.3,11.2-25.3,16.6c-20.2,15.9-14.7,37.2-14.5,37.8c0,0,0,0,0,0h0c0,0,0.1,0.1,0.1,0.1c0.4,0.4,0.8,0.8,1.1,1.2
			c0.2,0.2,0.3,0.4,0.5,0.6c0.4,0.4,0.7,0.8,1.1,1.3c3.9,4.6,7.7,10,11.3,15.8c0.5,0.7,0.9,1.4,1.3,2.2c1.1,1.9,2.3,3.8,3.4,5.7
			c0.2,0.4,0.4,0.7,0.6,1.1c0.8,1.3,1.5,2.7,2.2,4.1c0.2,0.5,0.5,0.9,0.7,1.4c0.2,0.5,0.5,0.9,0.7,1.4c0.2,0.5,0.5,0.9,0.7,1.4
			c1.4,2.8,2.8,5.5,4.1,8.3c0.4,0.9,0.9,1.8,1.3,2.7c0.6,1.2,1.1,2.4,1.6,3.5c1,2.2,2,4.5,3,6.6c0.2,0.6,0.5,1.2,0.8,1.8
			c0.7,1.7,1.4,3.4,2.1,5c0.3,0.8,0.7,1.6,1,2.4c0.2,0.4,0.3,0.8,0.5,1.2c5.2,12.7,8.2,21.7,8.2,21.7s0.3,0.3,0.9,0.8
			c0.1,0.1,0.3,0.2,0.4,0.4c0.2,0,0.5,0,0.7-0.1c5.6-0.3,10.7,0,15.2,0.7c1.3-0.2,2.6-0.5,4-0.9c13.4-3.6,25.5-12.4,35.4-24.1
			c2.4-2.9,4.7-5.9,6.8-9.1c2-3,3.9-6.1,5.7-9.3C228.6,132.6,232.2,88.1,208.9,65z M132,109c-9-4.4-1.5-15.6,11.9-11.1
			c13.4,4.5,11.9,14.5,11.9,14.5S145.7,106,132,109z M172.9,186.2c-10.6,4.8-27.7-8-20.9-25.6c6.8-17.5,22.4-5.7,22.4-5.7
			C198,151.4,183.5,181.4,172.9,186.2z M193.3,117.6c5.1-4.9,21-13.5,22,2.8C215.3,120.4,203.2,125.4,193.3,117.6z"/>
		<path class="st34" d="M19.1,134.8l10.2,17.7l42,72.7l2.6,4.5l13.5,23.4h10.9c-3.3-14.9-8.1-36.2-13.7-59.9
			C75.3,154.1,64,108.6,53.8,74.6l-7.7,13.3l-0.5,0.9L19.1,134.8z"/>
		<path class="st35" d="M233.5,236.9l-7.3,12.7l-2.1,3.6H98.3c-3.3-14.9-8.1-36.2-13.7-59.9C75.3,154.1,64,108.6,53.8,74.6
			l10.9-18.9c3.9,12.9,9,31.3,12.4,51c2.7,0.7,5.3,1.9,8,3.6c0.3,0.2,0.6,0.4,1,0.6c0.3,0.2,0.6,0.4,0.9,0.6c1,0.7,2,1.5,3,2.4
			c0.3,0.3,0.7,0.6,1,0.9c1.2,1.1,2.4,2.3,3.6,3.5c0,0,0,0,0,0h0c0,0,0.1,0.1,0.1,0.1c0.4,0.4,0.8,0.8,1.1,1.2
			c0.2,0.2,0.3,0.4,0.5,0.6c0.4,0.4,0.7,0.8,1.1,1.3c3.9,4.6,7.7,10,11.3,15.8c0.5,0.7,0.9,1.4,1.3,2.2c1.1,1.9,2.3,3.8,3.4,5.7
			c0.2,0.4,0.4,0.7,0.6,1.1c0.8,1.3,1.5,2.7,2.2,4.1c0.2,0.5,0.5,0.9,0.7,1.4c0.2,0.5,0.5,0.9,0.7,1.4c0.2,0.5,0.5,0.9,0.7,1.4
			c1.4,2.8,2.8,5.5,4.1,8.3c0.4,0.9,0.9,1.8,1.3,2.7c0.6,1.2,1.1,2.4,1.6,3.5c1,2.2,2,4.5,3,6.6c0.2,0.6,0.5,1.2,0.8,1.8
			c0.7,1.7,1.4,3.4,2.1,5c0.3,0.8,0.7,1.6,1,2.4c0.2,0.4,0.3,0.8,0.5,1.2c5.2,12.7,8.2,21.7,8.2,21.7s0.3,0.3,0.9,0.8
			c0.1,0.1,0.3,0.2,0.4,0.4c5.3,4.5,26.1,21.1,45,20.3c1.3-0.1,2.8-0.1,4.2,0C205.6,229.4,223,233.8,233.5,236.9
			C233.4,236.8,233.4,236.8,233.5,236.9z"/>
		<path class="st30" d="M155.8,112.4c0,0-10-6.4-23.8-3.4c-9-4.4-1.5-15.6,11.9-11.1C157.2,102.4,155.8,112.4,155.8,112.4z"/>
		<path class="st36" d="M225.5,176l-0.6,0.9l-3.3,5.1l-6.8,10.7h4.5l-10.1,14.6v-11h-6.6l7.5-11.5h-12.7c2.4-2.9,4.7-5.9,6.8-9.1
			c2-3,3.9-6.1,5.7-9.3h13.6l-4.2,5.7l-1.8,2.5l-1.1,1.5H225.5z"/>
		<g class="st31">
			<path class="st28" d="M155.2,113.2c-0.1,0-6.4-4-15.7-4c-2.4,0-4.9,0.3-7.3,0.8l-0.3,0.1l-0.3-0.2c-3.4-1.6-5-4.4-4.3-7.4
				c0.7-3.2,4.4-6.6,10.7-6.6c2,0,4.1,0.4,6.3,1.1c7.3,2.4,10.3,6.5,11.6,9.5c1.4,3.3,1,6,1,6.1l-0.2,1.5L155.2,113.2z"/>
			<path d="M137.9,96.9c1.8,0,3.8,0.3,6,1c13.4,4.5,11.9,14.5,11.9,14.5s-6.5-4.2-16.3-4.2c-2.3,0-4.8,0.2-7.5,0.8
				C124.4,105.4,128.5,96.9,137.9,96.9 M137.9,94.9L137.9,94.9c-5.9,0-10.7,3-11.7,7.4c-0.6,2.7,0.3,6.3,4.9,8.5l0.6,0.3l0.7-0.2
				c2.3-0.5,4.7-0.8,7.1-0.8c9.1,0,15.1,3.8,15.2,3.9l2.6,1.7l0.5-3.1c0-0.3,0.4-3.1-1.1-6.6c-1.3-3.2-4.5-7.5-12.2-10
				C142.2,95.3,140,94.9,137.9,94.9L137.9,94.9z"/>
		</g>
		<path class="st37" d="M241.1,145.2c0,0,18.1-0.6,24.5-5.4c4.4-3.3,13.3-8.9,23.7-10.2l-2.1-3.6l-15.7-27.2l-47.4-82.3H87.4
			l-5.9,10.2l-16.8,29c3.9,12.9,9,31.3,12.4,51c2.7,0.7,5.3,1.9,8,3.6c0.3,0.2,0.6,0.4,1,0.6c0.3,0.2,0.6,0.4,0.9,0.6
			c1,0.7,2,1.5,3,2.4c0.3,0.3,0.7,0.6,1,0.9c1.2,1.1,2.4,2.3,3.6,3.5c-0.2-0.6-5.7-22,14.5-37.8C116,75.1,124.6,69,134.3,64
			c31.2,24.8,58.9-7.3,59.5-8c2.7,0.8,5.5,1.8,8.3,3h0c2.3,1.8,4.6,3.8,6.8,6c23.3,23.1,19.7,67.6,1.2,101.4h13.6l-4.2,5.7l-1.8,2.5
			l-1.1,1.5h9l-0.6,0.9l-3.3,5.1c11.9,15.9,10.3,30.7,9.1,36.2c7.4-12.7-1.9-34.8-4.6-40.7c7.1,3.5,16.3,10.7,27.1,24.8c0,0,0,0,0,0
			l16.6-28.8l0,0L241.1,145.2z M140.8,60.9c13.7-6,29.3-9.6,45.9-6.6C186.7,54.3,168.8,81.9,140.8,60.9z"/>
		<g class="st31">
			<path d="M185.7,115.6c0.5,2.3,1.2,4.5,2.1,6.7c0.9,2.1,1.9,4.3,3.4,5.9l0.6,0.6l0.6,0.4c0.5,0.3,1.1,0.7,1.6,1.2
				c1,1,1.6,2.2,1.9,3.5c0.3,1.3,0.3,2.7-0.1,4c-0.3,1.3-1,2.5-1.8,3.6c-0.8,1-1.8,1.9-3,2.6c-0.6,0.4-1.1,0.6-1.7,0.9
				c-0.7,0.3-1.4,0.5-2.2,0.6c-0.8,0-1.6-0.1-2.4-0.4c-0.7-0.3-1.4-0.7-1.9-1.1c-1.1-0.9-1.9-1.8-2.6-2.6c-1.5-1.7-3-3.1-5-3.4
				c-1-0.2-2.1-0.1-3.2,0.1c-1.1,0.2-2.2,0.6-3.3,1l-0.2-0.3c1.8-1.5,4-2.9,6.8-3c1.4,0,2.8,0.4,3.9,1.1c1.2,0.7,2.1,1.5,3,2.4
				c0.9,0.8,1.7,1.7,2.4,2.3c0.8,0.6,1.5,0.9,2.2,0.9c0.4,0,0.8-0.1,1.2-0.2c0.5-0.2,1-0.4,1.4-0.6c0.9-0.5,1.7-1.1,2.5-1.8
				c0.7-0.8,1.2-1.7,1.5-2.6c0.3-1,0.4-2,0.2-3c-0.2-1-0.6-1.9-1.2-2.7c-0.3-0.4-0.7-0.7-1.2-1l-0.8-0.6l-0.7-0.7
				c-1.6-2-2.4-4.3-3.1-6.5c-0.7-2.3-1.2-4.6-1.5-6.9L185.7,115.6z"/>
		</g>
		<g class="st31">
			<path d="M164.1,100.1c-1.3-1.3-2.5-2.6-3.8-3.9c-1.3-1.3-2.6-2.6-3.9-3.8c-2.7-2.4-5.5-4.8-8.4-6.9c-1.5-1.1-3-2.1-4.5-3
				c-1.5-0.9-3.2-1.8-4.8-2.5c-1.7-0.7-3.4-1.2-5.2-1.5c-1.8-0.3-3.6-0.3-5.4,0.2c1.7-0.6,3.6-0.8,5.5-0.6c1.8,0.2,3.7,0.6,5.4,1.3
				c3.5,1.3,6.7,3.2,9.6,5.4c3,2.2,5.7,4.6,8.3,7.2C159.5,94.4,161.9,97.1,164.1,100.1z"/>
		</g>
		<g class="st31">
			<path d="M195.1,109.3c1.5-1.8,3.2-3.4,5-5c1.7-1.6,3.6-3.1,5.5-4.5c1.9-1.4,3.9-2.7,6.2-3.5c1.1-0.4,2.4-0.7,3.6-0.5
				c0.6,0.2,1.2,0.5,1.5,1.1c0.2,0.3,0.2,0.6,0.3,0.8c0,0.3,0.1,0.6,0.1,0.9l-0.3-0.8c-0.1-0.2-0.2-0.5-0.4-0.7
				c-0.3-0.5-0.9-0.7-1.4-0.8c-1.1-0.1-2.2,0.2-3.2,0.7c-2.1,1-4,2.3-5.9,3.6c-1.9,1.4-3.7,2.8-5.6,4.3c-0.9,0.7-1.8,1.5-2.7,2.2
				L195.1,109.3z"/>
		</g>
		<g class="st31">
			<path class="st28" d="M206.4,123c-5.2,0-9.8-1.5-13.7-4.6l-0.9-0.7l0.8-0.8c2.8-2.7,9.3-7,15-7c3.7,0,8.2,1.8,8.7,10.4l0,0.7
				l-0.7,0.3C215.5,121.4,211.6,123,206.4,123z"/>
			<path d="M207.6,110.9c4,0,7.3,2.4,7.7,9.5c0,0-3.8,1.6-8.9,1.6c-4,0-8.8-1-13.1-4.4C196.1,114.8,202.4,110.9,207.6,110.9
				 M207.6,108.9L207.6,108.9c-6,0-12.8,4.4-15.7,7.2l-1.6,1.6l1.8,1.4c4,3.2,8.9,4.8,14.3,4.8c5.4,0,9.5-1.7,9.7-1.7l1.3-0.5
				l-0.1-1.4C216.7,110.4,211,108.9,207.6,108.9L207.6,108.9z"/>
		</g>
	</g>
</g>
<g id="Layer_5_1_">
</g>
</svg>
